<svg width="1200" height="360" viewBox="0 0 1200 360" fill="none" xmlns="http://www.w3.org/2000/svg">
  <rect width="1200" height="360" rx="28" fill="#F8FAF9"/>
  <rect x="52" y="52" width="1096" height="256" rx="26" stroke="#D8E0DE" stroke-width="2"/>
  <g transform="translate(92 76)">
    <path d="M104 10C157 10 198 48 198 104C198 159 157 198 104 198C50 198 10 159 10 104C10 48 50 10 104 10Z" fill="#061016"/>
    <path d="M58 70H123M58 104H111M58 138H123" stroke="#F8FAF9" stroke-width="14" stroke-linecap="round"/>
    <path d="M111 104C138 104 151 86 151 64" stroke="#4CC9F0" stroke-width="10" stroke-linecap="round"/>
    <path d="M111 104C142 104 166 127 174 158" stroke="#32D69A" stroke-width="10" stroke-linecap="round"/>
    <circle cx="111" cy="104" r="11" fill="#32D69A"/>
  </g>
  <text x="340" y="134" fill="#061016" font-family="Trebuchet MS, Arial, Helvetica, sans-serif" font-size="62" font-weight="800" letter-spacing="1">ESTHIEN</text>
  <text x="343" y="190" fill="#061016" font-family="Trebuchet MS, Arial, Helvetica, sans-serif" font-size="42" font-weight="700" letter-spacing="8">LABS</text>
  <text x="344" y="229" fill="#007EA7" font-family="Arial, Helvetica, sans-serif" font-size="21" font-weight="800" letter-spacing="2.5">ENGINEERING CUSTOM FPGA CHIPSETS</text>
  <text x="344" y="263" fill="#0E7F66" font-family="Arial, Helvetica, sans-serif" font-size="21" font-weight="800" letter-spacing="2.5">FOR PHYSICAL INTELLIGENCE</text>
</svg>
