<svg width="1200" height="630" viewBox="0 0 1200 630" fill="none" xmlns="http://www.w3.org/2000/svg">
<g clip-path="url(#clip0_2011_129)">
<path d="M1200 0H0V630H1200V0Z" fill="#050608"/>
<path d="M0 105H1200M0 210H1200M0 315H1200M0 420H1200M0 525H1200M150 0V630M300 0V630M450 0V630M600 0V630M750 0V630M900 0V630M1050 0V630" stroke="#252B31"/>
<g opacity="0.4">
<g opacity="0.58">
<path d="M650 155H1065M650 235H1065M650 315H1065M650 395H1065M650 475H1065" stroke="#3A5374" stroke-width="1.2"/>
<path d="M690 120V510M780 120V510M870 120V510M960 120V510M1050 120V510" stroke="#3A5374" stroke-width="1.2"/>
</g>
<g opacity="0.86">
<path d="M690 159C692.209 159 694 157.209 694 155C694 152.791 692.209 151 690 151C687.791 151 686 152.791 686 155C686 157.209 687.791 159 690 159Z" fill="#9FB2C6"/>
<path d="M780 239C782.209 239 784 237.209 784 235C784 232.791 782.209 231 780 231C777.791 231 776 232.791 776 235C776 237.209 777.791 239 780 239Z" fill="#9FB2C6"/>
<path d="M870 319C872.209 319 874 317.209 874 315C874 312.791 872.209 311 870 311C867.791 311 866 312.791 866 315C866 317.209 867.791 319 870 319Z" fill="#9FB2C6"/>
<path d="M960 399C962.209 399 964 397.209 964 395C964 392.791 962.209 391 960 391C957.791 391 956 392.791 956 395C956 397.209 957.791 399 960 399Z" fill="#9FB2C6"/>
<path d="M1050 479C1052.21 479 1054 477.209 1054 475C1054 472.791 1052.21 471 1050 471C1047.79 471 1046 472.791 1046 475C1046 477.209 1047.79 479 1050 479Z" fill="#9FB2C6"/>
<path d="M780 159C782.209 159 784 157.209 784 155C784 152.791 782.209 151 780 151C777.791 151 776 152.791 776 155C776 157.209 777.791 159 780 159Z" fill="#9FB2C6"/>
<path d="M960 239C962.209 239 964 237.209 964 235C964 232.791 962.209 231 960 231C957.791 231 956 232.791 956 235C956 237.209 957.791 239 960 239Z" fill="#9FB2C6"/>
<path d="M690 399C692.209 399 694 397.209 694 395C694 392.791 692.209 391 690 391C687.791 391 686 392.791 686 395C686 397.209 687.791 399 690 399Z" fill="#9FB2C6"/>
<path d="M870 479C872.209 479 874 477.209 874 475C874 472.791 872.209 471 870 471C867.791 471 866 472.791 866 475C866 477.209 867.791 479 870 479Z" fill="#9FB2C6"/>
</g>
<path d="M870 243C874.418 243 878 239.418 878 235C878 230.582 874.418 227 870 227C865.582 227 862 230.582 862 235C862 239.418 865.582 243 870 243Z" fill="#32D69A" fill-opacity="0.6"/>
<path d="M1050 323C1054.42 323 1058 319.418 1058 315C1058 310.582 1054.42 307 1050 307C1045.58 307 1042 310.582 1042 315C1042 319.418 1045.58 323 1050 323Z" fill="#32D69A" fill-opacity="0.6"/>
<path d="M780 483C784.418 483 788 479.418 788 475C788 470.582 784.418 467 780 467C775.582 467 772 470.582 772 475C772 479.418 775.582 483 780 483Z" fill="#32D69A" fill-opacity="0.6"/>
</g>
<path d="M109 84.5H1091C1104.53 84.5 1115.5 95.469 1115.5 109V521C1115.5 534.531 1104.53 545.5 1091 545.5H109C95.469 545.5 84.5 534.531 84.5 521V109C84.5 95.469 95.469 84.5 109 84.5Z" stroke="#C8A96A" stroke-opacity="0.28" stroke-width="5"/>
<path d="M289.769 157H158.231C142.087 157 129 170.087 129 186.231V317.769C129 333.913 142.087 347 158.231 347H289.769C305.913 347 319 333.913 319 317.769V186.231C319 170.087 305.913 157 289.769 157Z" fill="#0A0D10" stroke="#CBD5D8" stroke-opacity="0.55" stroke-width="3"/>
<path d="M158.234 195.365H231.311V220.942H181.984V235.558H222.177V259.308H181.984V283.058H231.311V308.634H158.234V195.365Z" fill="#F8FAF9"/>
<path d="M244.094 195.365H262.363V308.634H244.094V195.365Z" fill="#32D69A"/>
<path d="M271.5 195.365H289.769V308.634H271.5V195.365Z" fill="#4CC9F0"/>
<path d="M244.094 220.942H289.767M244.094 283.058H289.767" stroke="#263239" stroke-width="4"/>
<path d="M253.23 259.308C257.265 259.308 260.537 256.036 260.537 252C260.537 247.964 257.265 244.692 253.23 244.692C249.194 244.692 245.922 247.964 245.922 252C245.922 256.036 249.194 259.308 253.23 259.308Z" fill="#0A0D10"/>
<path d="M280.636 259.308C284.672 259.308 287.944 256.036 287.944 252C287.944 247.964 284.672 244.692 280.636 244.692C276.6 244.692 273.328 247.964 273.328 252C273.328 256.036 276.6 259.308 280.636 259.308Z" fill="#0A0D10"/>
<path d="M387.068 287V217.182H434.114V229.352H401.83V245.989H431.693V258.159H401.83V274.83H434.25V287H387.068ZM483.724 237.261C483.452 234.511 482.281 232.375 480.213 230.852C478.145 229.33 475.338 228.568 471.793 228.568C469.384 228.568 467.349 228.909 465.69 229.591C464.031 230.25 462.759 231.17 461.872 232.352C461.009 233.534 460.577 234.875 460.577 236.375C460.531 237.625 460.793 238.716 461.361 239.648C461.952 240.58 462.759 241.386 463.781 242.068C464.804 242.727 465.986 243.307 467.327 243.807C468.668 244.284 470.099 244.693 471.622 245.034L477.895 246.534C480.94 247.216 483.736 248.125 486.281 249.261C488.827 250.398 491.031 251.795 492.895 253.455C494.759 255.114 496.202 257.068 497.224 259.318C498.27 261.568 498.804 264.148 498.827 267.057C498.804 271.33 497.713 275.034 495.554 278.17C493.418 281.284 490.327 283.705 486.281 285.432C482.259 287.136 477.406 287.989 471.724 287.989C466.088 287.989 461.179 287.125 456.997 285.398C452.838 283.67 449.588 281.114 447.247 277.727C444.929 274.318 443.713 270.102 443.599 265.08H457.884C458.043 267.42 458.713 269.375 459.895 270.943C461.099 272.489 462.702 273.659 464.702 274.455C466.724 275.227 469.009 275.614 471.554 275.614C474.054 275.614 476.224 275.25 478.065 274.523C479.929 273.795 481.372 272.784 482.395 271.489C483.418 270.193 483.929 268.705 483.929 267.023C483.929 265.455 483.463 264.136 482.531 263.068C481.622 262 480.281 261.091 478.509 260.341C476.759 259.591 474.611 258.909 472.065 258.295L464.463 256.386C458.577 254.955 453.929 252.716 450.52 249.67C447.111 246.625 445.418 242.523 445.44 237.364C445.418 233.136 446.543 229.443 448.815 226.284C451.111 223.125 454.259 220.659 458.259 218.886C462.259 217.114 466.804 216.227 471.895 216.227C477.077 216.227 481.599 217.114 485.463 218.886C489.349 220.659 492.372 223.125 494.531 226.284C496.69 229.443 497.804 233.102 497.872 237.261H483.724ZM506.097 229.352V217.182H563.438V229.352H542.062V287H527.472V229.352H506.097ZM572.881 287V217.182H587.642V245.989H617.608V217.182H632.335V287H617.608V258.159H587.642V287H572.881ZM659.267 217.182V287H644.506V217.182H659.267ZM671.412 287V217.182H718.457V229.352H686.173V245.989H716.037V258.159H686.173V274.83H718.594V287H671.412ZM788.591 217.182V287H775.841L745.466 243.057H744.955V287H730.193V217.182H743.148L773.284 261.091H773.898V217.182H788.591ZM823.006 287V217.182H837.767V274.83H867.699V287H823.006ZM891.29 287H875.472L899.574 217.182H918.597L942.665 287H926.847L909.358 233.136H908.812L891.29 287ZM890.301 259.557H927.665V271.08H890.301V259.557ZM951.068 287V217.182H979.023C984.159 217.182 988.443 217.943 991.875 219.466C995.307 220.989 997.886 223.102 999.614 225.807C1001.34 228.489 1002.2 231.58 1002.2 235.08C1002.2 237.807 1001.66 240.205 1000.57 242.273C999.477 244.318 997.977 246 996.068 247.318C994.182 248.614 992.023 249.534 989.591 250.08V250.761C992.25 250.875 994.739 251.625 997.057 253.011C999.398 254.398 1001.3 256.341 1002.75 258.841C1004.2 261.318 1004.93 264.273 1004.93 267.705C1004.93 271.409 1004.01 274.716 1002.17 277.625C1000.35 280.511 997.659 282.795 994.091 284.477C990.523 286.159 986.125 287 980.898 287H951.068ZM965.83 274.932H977.864C981.977 274.932 984.977 274.148 986.864 272.58C988.75 270.989 989.693 268.875 989.693 266.239C989.693 264.307 989.227 262.602 988.295 261.125C987.364 259.648 986.034 258.489 984.307 257.648C982.602 256.807 980.568 256.386 978.205 256.386H965.83V274.932ZM965.83 246.398H976.773C978.795 246.398 980.591 246.045 982.159 245.341C983.75 244.614 985 243.591 985.909 242.273C986.841 240.955 987.307 239.375 987.307 237.534C987.307 235.011 986.409 232.977 984.614 231.432C982.841 229.886 980.318 229.114 977.045 229.114H965.83V246.398ZM1052.41 237.261C1052.14 234.511 1050.97 232.375 1048.9 230.852C1046.83 229.33 1044.03 228.568 1040.48 228.568C1038.07 228.568 1036.04 228.909 1034.38 229.591C1032.72 230.25 1031.45 231.17 1030.56 232.352C1029.7 233.534 1029.26 234.875 1029.26 236.375C1029.22 237.625 1029.48 238.716 1030.05 239.648C1030.64 240.58 1031.45 241.386 1032.47 242.068C1033.49 242.727 1034.67 243.307 1036.01 243.807C1037.36 244.284 1038.79 244.693 1040.31 245.034L1046.58 246.534C1049.63 247.216 1052.42 248.125 1054.97 249.261C1057.51 250.398 1059.72 251.795 1061.58 253.455C1063.45 255.114 1064.89 257.068 1065.91 259.318C1066.96 261.568 1067.49 264.148 1067.51 267.057C1067.49 271.33 1066.4 275.034 1064.24 278.17C1062.11 281.284 1059.01 283.705 1054.97 285.432C1050.95 287.136 1046.09 287.989 1040.41 287.989C1034.78 287.989 1029.87 287.125 1025.68 285.398C1021.53 283.67 1018.28 281.114 1015.93 277.727C1013.62 274.318 1012.4 270.102 1012.29 265.08H1026.57C1026.73 267.42 1027.4 269.375 1028.58 270.943C1029.79 272.489 1031.39 273.659 1033.39 274.455C1035.41 275.227 1037.7 275.614 1040.24 275.614C1042.74 275.614 1044.91 275.25 1046.75 274.523C1048.62 273.795 1050.06 272.784 1051.08 271.489C1052.11 270.193 1052.62 268.705 1052.62 267.023C1052.62 265.455 1052.15 264.136 1051.22 263.068C1050.31 262 1048.97 261.091 1047.2 260.341C1045.45 259.591 1043.3 258.909 1040.75 258.295L1033.15 256.386C1027.26 254.955 1022.62 252.716 1019.21 249.67C1015.8 246.625 1014.11 242.523 1014.13 237.364C1014.11 233.136 1015.23 229.443 1017.5 226.284C1019.8 223.125 1022.95 220.659 1026.95 218.886C1030.95 217.114 1035.49 216.227 1040.58 216.227C1045.76 216.227 1050.29 217.114 1054.15 218.886C1058.04 220.659 1061.06 223.125 1063.22 226.284C1065.38 229.443 1066.49 233.102 1066.56 237.261H1052.41Z" fill="#F8FAF9"/>
<path d="M280.465 412V383.636H299.577V388.581H286.462V395.339H298.594V400.283H286.462V407.056H299.633V412H280.465ZM310.134 399.702V412H304.234V390.727H309.857V394.48H310.106C310.577 393.243 311.367 392.265 312.475 391.544C313.583 390.815 314.926 390.45 316.505 390.45C317.982 390.45 319.27 390.773 320.369 391.42C321.468 392.066 322.322 392.989 322.931 394.19C323.54 395.381 323.845 396.803 323.845 398.455V412H317.945V399.508C317.954 398.206 317.622 397.19 316.948 396.461C316.274 395.722 315.346 395.353 314.164 395.353C313.37 395.353 312.669 395.524 312.059 395.865C311.459 396.207 310.988 396.706 310.647 397.361C310.314 398.007 310.143 398.788 310.134 399.702ZM338.079 420.42C336.168 420.42 334.529 420.157 333.162 419.631C331.805 419.114 330.725 418.408 329.922 417.512C329.118 416.616 328.597 415.61 328.357 414.493L333.813 413.759C333.979 414.184 334.243 414.581 334.603 414.95C334.963 415.319 335.438 415.615 336.029 415.836C336.629 416.067 337.359 416.183 338.217 416.183C339.501 416.183 340.558 415.869 341.389 415.241C342.229 414.622 342.649 413.583 342.649 412.125V408.233H342.4C342.141 408.824 341.754 409.382 341.237 409.909C340.719 410.435 340.055 410.864 339.242 411.197C338.43 411.529 337.46 411.695 336.334 411.695C334.737 411.695 333.282 411.326 331.971 410.587C330.669 409.839 329.631 408.699 328.855 407.167C328.089 405.625 327.706 403.676 327.706 401.322C327.706 398.912 328.098 396.9 328.883 395.284C329.668 393.668 330.711 392.458 332.013 391.655C333.324 390.852 334.76 390.45 336.32 390.45C337.511 390.45 338.508 390.653 339.311 391.06C340.115 391.457 340.761 391.955 341.25 392.555C341.749 393.146 342.132 393.728 342.4 394.3H342.621V390.727H348.48V412.208C348.48 414.017 348.037 415.532 347.15 416.75C346.264 417.969 345.036 418.883 343.466 419.493C341.906 420.111 340.11 420.42 338.079 420.42ZM338.203 407.263C339.154 407.263 339.958 407.028 340.613 406.557C341.278 406.077 341.786 405.394 342.137 404.507C342.497 403.612 342.677 402.541 342.677 401.294C342.677 400.048 342.501 398.968 342.151 398.054C341.8 397.13 341.292 396.415 340.627 395.907C339.962 395.399 339.154 395.145 338.203 395.145C337.234 395.145 336.417 395.408 335.752 395.935C335.087 396.452 334.584 397.172 334.243 398.095C333.901 399.018 333.73 400.085 333.73 401.294C333.73 402.522 333.901 403.584 334.243 404.48C334.593 405.366 335.097 406.054 335.752 406.543C336.417 407.023 337.234 407.263 338.203 407.263ZM353.175 412V390.727H359.075V412H353.175ZM356.138 387.985C355.261 387.985 354.509 387.694 353.881 387.113C353.262 386.522 352.953 385.815 352.953 384.994C352.953 384.181 353.262 383.484 353.881 382.902C354.509 382.311 355.261 382.016 356.138 382.016C357.016 382.016 357.763 382.311 358.382 382.902C359.01 383.484 359.324 384.181 359.324 384.994C359.324 385.815 359.01 386.522 358.382 387.113C357.763 387.694 357.016 387.985 356.138 387.985ZM369.701 399.702V412H363.801V390.727H369.424V394.48H369.673C370.144 393.243 370.933 392.265 372.041 391.544C373.149 390.815 374.492 390.45 376.071 390.45C377.549 390.45 378.837 390.773 379.935 391.42C381.034 392.066 381.888 392.989 382.497 394.19C383.107 395.381 383.411 396.803 383.411 398.455V412H377.512V399.508C377.521 398.206 377.188 397.19 376.514 396.461C375.84 395.722 374.913 395.353 373.731 395.353C372.937 395.353 372.235 395.524 371.626 395.865C371.025 396.207 370.555 396.706 370.213 397.361C369.881 398.007 369.71 398.788 369.701 399.702ZM397.756 412.415C395.568 412.415 393.684 411.972 392.105 411.086C390.536 410.19 389.326 408.925 388.477 407.291C387.627 405.648 387.203 403.704 387.203 401.461C387.203 399.272 387.627 397.352 388.477 395.699C389.326 394.047 390.522 392.759 392.064 391.835C393.615 390.912 395.434 390.45 397.521 390.45C398.924 390.45 400.23 390.676 401.44 391.129C402.659 391.572 403.721 392.241 404.625 393.137C405.539 394.033 406.25 395.159 406.758 396.516C407.266 397.864 407.52 399.443 407.52 401.253V402.873H389.557V399.217H401.966C401.966 398.368 401.782 397.615 401.412 396.96C401.043 396.304 400.531 395.792 399.875 395.422C399.229 395.044 398.476 394.854 397.618 394.854C396.722 394.854 395.928 395.062 395.235 395.478C394.552 395.884 394.017 396.433 393.629 397.126C393.241 397.809 393.043 398.571 393.033 399.411V402.887C393.033 403.94 393.227 404.849 393.615 405.615C394.012 406.382 394.571 406.973 395.291 407.388C396.011 407.804 396.865 408.011 397.853 408.011C398.509 408.011 399.109 407.919 399.653 407.734C400.198 407.55 400.664 407.273 401.052 406.903C401.44 406.534 401.735 406.082 401.939 405.546L407.395 405.906C407.118 407.217 406.55 408.362 405.692 409.341C404.842 410.31 403.744 411.067 402.396 411.612C401.057 412.148 399.51 412.415 397.756 412.415ZM421.065 412.415C418.876 412.415 416.993 411.972 415.414 411.086C413.844 410.19 412.635 408.925 411.786 407.291C410.936 405.648 410.511 403.704 410.511 401.461C410.511 399.272 410.936 397.352 411.786 395.699C412.635 394.047 413.831 392.759 415.373 391.835C416.924 390.912 418.743 390.45 420.829 390.45C422.233 390.45 423.539 390.676 424.749 391.129C425.967 391.572 427.029 392.241 427.934 393.137C428.848 394.033 429.559 395.159 430.067 396.516C430.575 397.864 430.828 399.443 430.828 401.253V402.873H412.866V399.217H425.275C425.275 398.368 425.09 397.615 424.721 396.96C424.352 396.304 423.839 395.792 423.184 395.422C422.537 395.044 421.785 394.854 420.926 394.854C420.031 394.854 419.237 395.062 418.544 395.478C417.861 395.884 417.325 396.433 416.938 397.126C416.55 397.809 416.351 398.571 416.342 399.411V402.887C416.342 403.94 416.536 404.849 416.924 405.615C417.321 406.382 417.879 406.973 418.599 407.388C419.32 407.804 420.174 408.011 421.162 408.011C421.817 408.011 422.417 407.919 422.962 407.734C423.507 407.55 423.973 407.273 424.361 406.903C424.749 406.534 425.044 406.082 425.247 405.546L430.704 405.906C430.427 407.217 429.859 408.362 429 409.341C428.151 410.31 427.052 411.067 425.704 411.612C424.365 412.148 422.819 412.415 421.065 412.415ZM434.679 412V390.727H440.398V394.439H440.62C441.008 393.119 441.659 392.121 442.573 391.447C443.487 390.764 444.539 390.423 445.73 390.423C446.026 390.423 446.344 390.441 446.686 390.478C447.028 390.515 447.328 390.566 447.586 390.63V395.865C447.309 395.782 446.926 395.708 446.437 395.644C445.947 395.579 445.5 395.547 445.093 395.547C444.225 395.547 443.45 395.736 442.767 396.115C442.093 396.484 441.557 397.001 441.16 397.666C440.772 398.331 440.578 399.097 440.578 399.965V412H434.679ZM450.637 412V390.727H456.536V412H450.637ZM453.6 387.985C452.723 387.985 451.971 387.694 451.343 387.113C450.724 386.522 450.415 385.815 450.415 384.994C450.415 384.181 450.724 383.484 451.343 382.902C451.971 382.311 452.723 382.016 453.6 382.016C454.478 382.016 455.225 382.311 455.844 382.902C456.472 383.484 456.786 384.181 456.786 384.994C456.786 385.815 456.472 386.522 455.844 387.113C455.225 387.694 454.478 387.985 453.6 387.985ZM467.162 399.702V412H461.263V390.727H466.885V394.48H467.135C467.606 393.243 468.395 392.265 469.503 391.544C470.611 390.815 471.954 390.45 473.533 390.45C475.01 390.45 476.298 390.773 477.397 391.42C478.496 392.066 479.35 392.989 479.959 394.19C480.569 395.381 480.873 396.803 480.873 398.455V412H474.974V399.508C474.983 398.206 474.65 397.19 473.976 396.461C473.302 395.722 472.374 395.353 471.193 395.353C470.399 395.353 469.697 395.524 469.088 395.865C468.487 396.207 468.017 396.706 467.675 397.361C467.343 398.007 467.172 398.788 467.162 399.702ZM495.107 420.42C493.196 420.42 491.557 420.157 490.191 419.631C488.833 419.114 487.753 418.408 486.95 417.512C486.147 416.616 485.625 415.61 485.385 414.493L490.842 413.759C491.008 414.184 491.271 414.581 491.631 414.95C491.991 415.319 492.467 415.615 493.057 415.836C493.658 416.067 494.387 416.183 495.246 416.183C496.529 416.183 497.586 415.869 498.417 415.241C499.257 414.622 499.677 413.583 499.677 412.125V408.233H499.428C499.17 408.824 498.782 409.382 498.265 409.909C497.748 410.435 497.083 410.864 496.271 411.197C495.458 411.529 494.489 411.695 493.362 411.695C491.765 411.695 490.311 411.326 489 410.587C487.698 409.839 486.659 408.699 485.883 407.167C485.117 405.625 484.734 403.676 484.734 401.322C484.734 398.912 485.126 396.9 485.911 395.284C486.696 393.668 487.739 392.458 489.041 391.655C490.352 390.852 491.788 390.45 493.348 390.45C494.539 390.45 495.536 390.653 496.34 391.06C497.143 391.457 497.789 391.955 498.279 392.555C498.777 393.146 499.16 393.728 499.428 394.3H499.65V390.727H505.508V412.208C505.508 414.017 505.065 415.532 504.179 416.75C503.292 417.969 502.064 418.883 500.495 419.493C498.934 420.111 497.138 420.42 495.107 420.42ZM495.232 407.263C496.183 407.263 496.986 407.028 497.642 406.557C498.306 406.077 498.814 405.394 499.165 404.507C499.525 403.612 499.705 402.541 499.705 401.294C499.705 400.048 499.53 398.968 499.179 398.054C498.828 397.13 498.32 396.415 497.655 395.907C496.991 395.399 496.183 395.145 495.232 395.145C494.262 395.145 493.445 395.408 492.78 395.935C492.116 396.452 491.612 397.172 491.271 398.095C490.929 399.018 490.758 400.085 490.758 401.294C490.758 402.522 490.929 403.584 491.271 404.48C491.622 405.366 492.125 406.054 492.78 406.543C493.445 407.023 494.262 407.263 495.232 407.263ZM544.366 393.566H538.3C538.189 392.782 537.963 392.085 537.621 391.475C537.28 390.857 536.841 390.33 536.306 389.896C535.77 389.462 535.152 389.13 534.45 388.899C533.757 388.668 533.005 388.553 532.192 388.553C530.724 388.553 529.446 388.918 528.356 389.647C527.267 390.367 526.422 391.42 525.822 392.805C525.222 394.18 524.922 395.852 524.922 397.818C524.922 399.84 525.222 401.539 525.822 402.915C526.431 404.29 527.281 405.329 528.37 406.031C529.46 406.733 530.72 407.083 532.151 407.083C532.954 407.083 533.697 406.977 534.381 406.765C535.073 406.553 535.687 406.243 536.223 405.837C536.758 405.422 537.201 404.918 537.552 404.327C537.912 403.737 538.162 403.062 538.3 402.305L544.366 402.333C544.209 403.635 543.817 404.891 543.189 406.1C542.57 407.3 541.735 408.376 540.682 409.327C539.639 410.269 538.392 411.017 536.943 411.571C535.502 412.115 533.873 412.388 532.054 412.388C529.524 412.388 527.262 411.815 525.268 410.67C523.283 409.526 521.713 407.868 520.559 405.699C519.414 403.529 518.842 400.902 518.842 397.818C518.842 394.725 519.423 392.094 520.587 389.924C521.75 387.754 523.329 386.102 525.323 384.966C527.317 383.821 529.561 383.249 532.054 383.249C533.697 383.249 535.221 383.479 536.624 383.941C538.037 384.403 539.288 385.077 540.377 385.963C541.467 386.84 542.353 387.916 543.037 389.19C543.729 390.464 544.172 391.923 544.366 393.566ZM562.197 402.942V390.727H568.097V412H562.433V408.136H562.211C561.731 409.382 560.932 410.384 559.815 411.141C558.707 411.898 557.355 412.277 555.757 412.277C554.335 412.277 553.084 411.954 552.004 411.308C550.924 410.661 550.079 409.743 549.47 408.551C548.869 407.36 548.565 405.934 548.556 404.272V390.727H554.455V403.219C554.465 404.475 554.802 405.468 555.466 406.197C556.131 406.926 557.022 407.291 558.139 407.291C558.85 407.291 559.515 407.13 560.134 406.806C560.752 406.474 561.251 405.985 561.629 405.338C562.017 404.692 562.206 403.893 562.197 402.942ZM590.516 396.793L585.115 397.126C585.022 396.664 584.824 396.249 584.519 395.879C584.214 395.501 583.813 395.201 583.314 394.979C582.825 394.748 582.239 394.633 581.555 394.633C580.641 394.633 579.87 394.827 579.242 395.214C578.615 395.593 578.301 396.101 578.301 396.738C578.301 397.246 578.504 397.675 578.91 398.026C579.316 398.377 580.013 398.658 581.001 398.871L584.851 399.646C586.92 400.071 588.462 400.754 589.477 401.696C590.493 402.638 591.001 403.875 591.001 405.408C591.001 406.802 590.59 408.025 589.768 409.078C588.956 410.13 587.838 410.952 586.416 411.543C585.004 412.125 583.374 412.415 581.528 412.415C578.712 412.415 576.468 411.829 574.797 410.657C573.135 409.475 572.161 407.868 571.875 405.837L577.677 405.532C577.853 406.391 578.278 407.047 578.952 407.499C579.626 407.942 580.489 408.164 581.541 408.164C582.576 408.164 583.407 407.965 584.034 407.568C584.671 407.162 584.995 406.64 585.004 406.003C584.995 405.468 584.768 405.029 584.325 404.688C583.882 404.337 583.199 404.069 582.275 403.884L578.592 403.15C576.514 402.735 574.968 402.015 573.952 400.99C572.946 399.965 572.442 398.658 572.442 397.07C572.442 395.704 572.812 394.527 573.55 393.539C574.298 392.551 575.346 391.789 576.694 391.254C578.051 390.718 579.639 390.45 581.458 390.45C584.145 390.45 586.259 391.018 587.801 392.154C589.353 393.289 590.257 394.836 590.516 396.793ZM606.031 390.727V395.159H593.22V390.727H606.031ZM596.128 385.631H602.028V405.463C602.028 406.008 602.111 406.433 602.278 406.737C602.444 407.033 602.675 407.24 602.97 407.36C603.275 407.48 603.626 407.54 604.023 407.54C604.3 407.54 604.577 407.517 604.854 407.471C605.131 407.416 605.343 407.374 605.491 407.347L606.419 411.737C606.123 411.829 605.708 411.935 605.172 412.055C604.637 412.185 603.986 412.263 603.219 412.291C601.797 412.346 600.551 412.157 599.48 411.723C598.418 411.289 597.592 410.615 597.001 409.701C596.41 408.787 596.119 407.633 596.128 406.239V385.631ZM619.257 412.415C617.106 412.415 615.245 411.958 613.676 411.044C612.115 410.121 610.91 408.838 610.061 407.194C609.211 405.542 608.787 403.626 608.787 401.447C608.787 399.249 609.211 397.329 610.061 395.685C610.91 394.033 612.115 392.749 613.676 391.835C615.245 390.912 617.106 390.45 619.257 390.45C621.408 390.45 623.264 390.912 624.824 391.835C626.394 392.749 627.604 394.033 628.453 395.685C629.302 397.329 629.727 399.249 629.727 401.447C629.727 403.626 629.302 405.542 628.453 407.194C627.604 408.838 626.394 410.121 624.824 411.044C623.264 411.958 621.408 412.415 619.257 412.415ZM619.285 407.845C620.263 407.845 621.08 407.568 621.736 407.014C622.392 406.451 622.885 405.685 623.218 404.715C623.559 403.746 623.73 402.642 623.73 401.405C623.73 400.168 623.559 399.065 623.218 398.095C622.885 397.126 622.392 396.359 621.736 395.796C621.08 395.233 620.263 394.951 619.285 394.951C618.297 394.951 617.466 395.233 616.792 395.796C616.127 396.359 615.624 397.126 615.282 398.095C614.95 399.065 614.784 400.168 614.784 401.405C614.784 402.642 614.95 403.746 615.282 404.715C615.624 405.685 616.127 406.451 616.792 407.014C617.466 407.568 618.297 407.845 619.285 407.845ZM633.563 412V390.727H639.186V394.48H639.436C639.879 393.234 640.617 392.251 641.651 391.531C642.686 390.81 643.923 390.45 645.363 390.45C646.822 390.45 648.064 390.815 649.089 391.544C650.113 392.265 650.797 393.243 651.138 394.48H651.36C651.794 393.262 652.579 392.288 653.714 391.558C654.859 390.82 656.212 390.45 657.772 390.45C659.757 390.45 661.368 391.083 662.606 392.348C663.852 393.603 664.475 395.385 664.475 397.694V412H658.589V398.857C658.589 397.675 658.275 396.789 657.648 396.198C657.02 395.607 656.235 395.311 655.293 395.311C654.222 395.311 653.387 395.653 652.786 396.336C652.186 397.01 651.886 397.901 651.886 399.009V412H646.166V398.732C646.166 397.689 645.866 396.858 645.266 396.239C644.675 395.621 643.895 395.311 642.926 395.311C642.27 395.311 641.679 395.478 641.153 395.81C640.636 396.133 640.225 396.59 639.92 397.181C639.616 397.763 639.463 398.446 639.463 399.231V412H633.563ZM678.273 412V383.636H697.053V388.581H684.27V395.339H695.806V400.283H684.27V412H678.273ZM701.086 412V383.636H712.277C714.428 383.636 716.261 384.047 717.775 384.869C719.289 385.681 720.443 386.812 721.237 388.262C722.04 389.702 722.442 391.364 722.442 393.248C722.442 395.131 722.036 396.793 721.223 398.234C720.411 399.674 719.234 400.796 717.692 401.599C716.159 402.402 714.303 402.804 712.124 402.804H704.992V397.998H711.155C712.309 397.998 713.26 397.8 714.008 397.403C714.765 396.996 715.328 396.438 715.697 395.727C716.076 395.007 716.265 394.18 716.265 393.248C716.265 392.306 716.076 391.484 715.697 390.783C715.328 390.072 714.765 389.522 714.008 389.135C713.251 388.738 712.29 388.539 711.127 388.539H707.083V412H701.086ZM745.145 392.805C744.951 392.131 744.679 391.535 744.328 391.018C743.977 390.492 743.547 390.049 743.04 389.689C742.541 389.319 741.969 389.038 741.322 388.844C740.685 388.65 739.979 388.553 739.203 388.553C737.754 388.553 736.48 388.913 735.381 389.633C734.291 390.353 733.442 391.401 732.833 392.777C732.223 394.143 731.919 395.815 731.919 397.79C731.919 399.766 732.219 401.447 732.819 402.832C733.419 404.217 734.268 405.274 735.367 406.003C736.466 406.723 737.763 407.083 739.259 407.083C740.616 407.083 741.775 406.843 742.735 406.363C743.704 405.874 744.443 405.186 744.951 404.3C745.468 403.413 745.726 402.365 745.726 401.156L746.945 401.336H739.633V396.821H751.502V400.394C751.502 402.887 750.975 405.029 749.923 406.82C748.87 408.602 747.421 409.978 745.574 410.947C743.728 411.908 741.613 412.388 739.231 412.388C736.572 412.388 734.236 411.801 732.223 410.629C730.21 409.447 728.641 407.771 727.514 405.602C726.397 403.423 725.839 400.837 725.839 397.846C725.839 395.547 726.171 393.497 726.836 391.697C727.51 389.887 728.452 388.354 729.661 387.099C730.871 385.843 732.279 384.887 733.885 384.232C735.492 383.576 737.232 383.249 739.106 383.249C740.713 383.249 742.209 383.484 743.594 383.955C744.979 384.417 746.207 385.072 747.278 385.922C748.358 386.771 749.24 387.782 749.923 388.955C750.606 390.118 751.045 391.401 751.239 392.805H745.145ZM760.019 412H753.593L763.384 383.636H771.112L780.89 412H774.464L767.359 390.118H767.138L760.019 412ZM759.617 400.851H774.796V405.532H759.617V400.851ZM818.356 393.566H812.29C812.18 392.782 811.953 392.085 811.612 391.475C811.27 390.857 810.831 390.33 810.296 389.896C809.76 389.462 809.142 389.13 808.44 388.899C807.748 388.668 806.995 388.553 806.183 388.553C804.715 388.553 803.436 388.918 802.346 389.647C801.257 390.367 800.412 391.42 799.812 392.805C799.212 394.18 798.912 395.852 798.912 397.818C798.912 399.84 799.212 401.539 799.812 402.915C800.421 404.29 801.271 405.329 802.36 406.031C803.45 406.733 804.71 407.083 806.141 407.083C806.944 407.083 807.688 406.977 808.371 406.765C809.063 406.553 809.677 406.243 810.213 405.837C810.748 405.422 811.192 404.918 811.542 404.327C811.903 403.737 812.152 403.062 812.29 402.305L818.356 402.333C818.199 403.635 817.807 404.891 817.179 406.1C816.561 407.3 815.725 408.376 814.672 409.327C813.629 410.269 812.383 411.017 810.933 411.571C809.493 412.115 807.863 412.388 806.044 412.388C803.514 412.388 801.252 411.815 799.258 410.67C797.273 409.526 795.703 407.868 794.549 405.699C793.404 403.529 792.832 400.902 792.832 397.818C792.832 394.725 793.414 392.094 794.577 389.924C795.74 387.754 797.319 386.102 799.313 384.966C801.308 383.821 803.551 383.249 806.044 383.249C807.688 383.249 809.211 383.479 810.615 383.941C812.027 384.403 813.278 385.077 814.368 385.963C815.457 386.84 816.344 387.916 817.027 389.19C817.719 390.464 818.162 391.923 818.356 393.566ZM828.446 399.702V412H822.546V383.636H828.279V394.48H828.529C829.009 393.225 829.784 392.241 830.855 391.531C831.926 390.81 833.27 390.45 834.886 390.45C836.363 390.45 837.651 390.773 838.75 391.42C839.858 392.057 840.716 392.975 841.326 394.176C841.944 395.367 842.249 396.793 842.24 398.455V412H836.34V399.508C836.349 398.197 836.017 397.176 835.343 396.447C834.678 395.718 833.745 395.353 832.545 395.353C831.742 395.353 831.031 395.524 830.412 395.865C829.803 396.207 829.323 396.706 828.972 397.361C828.63 398.007 828.455 398.788 828.446 399.702ZM846.883 412V390.727H852.783V412H846.883ZM849.847 387.985C848.969 387.985 848.217 387.694 847.589 387.113C846.97 386.522 846.661 385.815 846.661 384.994C846.661 384.181 846.97 383.484 847.589 382.902C848.217 382.311 848.969 382.016 849.847 382.016C850.724 382.016 851.472 382.311 852.09 382.902C852.718 383.484 853.032 384.181 853.032 384.994C853.032 385.815 852.718 386.522 852.09 387.113C851.472 387.694 850.724 387.985 849.847 387.985ZM857.509 419.977V390.727H863.325V394.3H863.589C863.847 393.728 864.221 393.146 864.71 392.555C865.209 391.955 865.855 391.457 866.649 391.06C867.453 390.653 868.45 390.45 869.641 390.45C871.192 390.45 872.623 390.857 873.934 391.669C875.245 392.472 876.293 393.686 877.078 395.311C877.863 396.927 878.255 398.954 878.255 401.391C878.255 403.764 877.872 405.768 877.106 407.402C876.349 409.027 875.314 410.26 874.003 411.1C872.702 411.931 871.243 412.346 869.627 412.346C868.482 412.346 867.508 412.157 866.705 411.778C865.911 411.4 865.26 410.924 864.752 410.352C864.244 409.77 863.856 409.184 863.589 408.593H863.409V419.977H857.509ZM863.284 401.364C863.284 402.629 863.459 403.732 863.81 404.674C864.161 405.615 864.669 406.349 865.334 406.876C865.998 407.393 866.806 407.651 867.757 407.651C868.718 407.651 869.53 407.388 870.195 406.862C870.86 406.326 871.363 405.588 871.704 404.646C872.055 403.695 872.231 402.601 872.231 401.364C872.231 400.136 872.06 399.055 871.718 398.123C871.377 397.19 870.873 396.461 870.209 395.935C869.544 395.408 868.727 395.145 867.757 395.145C866.797 395.145 865.985 395.399 865.32 395.907C864.664 396.415 864.161 397.135 863.81 398.067C863.459 399 863.284 400.099 863.284 401.364ZM899.888 396.793L894.487 397.126C894.394 396.664 894.196 396.249 893.891 395.879C893.586 395.501 893.185 395.201 892.686 394.979C892.197 394.748 891.611 394.633 890.927 394.633C890.013 394.633 889.242 394.827 888.615 395.214C887.987 395.593 887.673 396.101 887.673 396.738C887.673 397.246 887.876 397.675 888.282 398.026C888.688 398.377 889.385 398.658 890.373 398.871L894.224 399.646C896.292 400.071 897.834 400.754 898.849 401.696C899.865 402.638 900.373 403.875 900.373 405.408C900.373 406.802 899.962 408.025 899.14 409.078C898.328 410.13 897.21 410.952 895.789 411.543C894.376 412.125 892.746 412.415 890.9 412.415C888.084 412.415 885.84 411.829 884.169 410.657C882.507 409.475 881.533 407.868 881.247 405.837L887.05 405.532C887.225 406.391 887.65 407.047 888.324 407.499C888.998 407.942 889.861 408.164 890.914 408.164C891.948 408.164 892.779 407.965 893.406 407.568C894.044 407.162 894.367 406.64 894.376 406.003C894.367 405.468 894.14 405.029 893.697 404.688C893.254 404.337 892.571 404.069 891.648 403.884L887.964 403.15C885.886 402.735 884.34 402.015 883.324 400.99C882.318 399.965 881.814 398.658 881.814 397.07C881.814 395.704 882.184 394.527 882.922 393.539C883.67 392.551 884.718 391.789 886.066 391.254C887.423 390.718 889.012 390.45 890.83 390.45C893.517 390.45 895.632 391.018 897.173 392.154C898.725 393.289 899.629 394.836 899.888 396.793ZM913.782 412.415C911.594 412.415 909.711 411.972 908.132 411.086C906.562 410.19 905.353 408.925 904.503 407.291C903.654 405.648 903.229 403.704 903.229 401.461C903.229 399.272 903.654 397.352 904.503 395.699C905.353 394.047 906.548 392.759 908.09 391.835C909.641 390.912 911.46 390.45 913.547 390.45C914.95 390.45 916.257 390.676 917.466 391.129C918.685 391.572 919.747 392.241 920.652 393.137C921.566 394.033 922.277 395.159 922.785 396.516C923.292 397.864 923.546 399.443 923.546 401.253V402.873H905.584V399.217H917.993C917.993 398.368 917.808 397.615 917.439 396.96C917.069 396.304 916.557 395.792 915.901 395.422C915.255 395.044 914.503 394.854 913.644 394.854C912.748 394.854 911.954 395.062 911.262 395.478C910.579 395.884 910.043 396.433 909.655 397.126C909.267 397.809 909.069 398.571 909.06 399.411V402.887C909.06 403.94 909.254 404.849 909.641 405.615C910.038 406.382 910.597 406.973 911.317 407.388C912.037 407.804 912.891 408.011 913.879 408.011C914.535 408.011 915.135 407.919 915.68 407.734C916.225 407.55 916.691 407.273 917.079 406.903C917.466 406.534 917.762 406.082 917.965 405.546L923.422 405.906C923.145 407.217 922.577 408.362 921.718 409.341C920.869 410.31 919.77 411.067 918.422 411.612C917.083 412.148 915.537 412.415 913.782 412.415ZM938.711 390.727V395.159H925.901V390.727H938.711ZM928.809 385.631H934.709V405.463C934.709 406.008 934.792 406.433 934.958 406.737C935.124 407.033 935.355 407.24 935.651 407.36C935.955 407.48 936.306 407.54 936.703 407.54C936.98 407.54 937.257 407.517 937.534 407.471C937.811 407.416 938.024 407.374 938.171 407.347L939.099 411.737C938.804 411.829 938.388 411.935 937.853 412.055C937.317 412.185 936.666 412.263 935.9 412.291C934.478 412.346 933.232 412.157 932.161 411.723C931.099 411.289 930.272 410.615 929.682 409.701C929.091 408.787 928.8 407.633 928.809 406.239V385.631ZM959.988 396.793L954.586 397.126C954.494 396.664 954.295 396.249 953.991 395.879C953.686 395.501 953.284 395.201 952.786 394.979C952.297 394.748 951.71 394.633 951.027 394.633C950.113 394.633 949.342 394.827 948.714 395.214C948.086 395.593 947.772 396.101 947.772 396.738C947.772 397.246 947.975 397.675 948.382 398.026C948.788 398.377 949.485 398.658 950.473 398.871L954.323 399.646C956.391 400.071 957.933 400.754 958.949 401.696C959.964 402.638 960.472 403.875 960.472 405.408C960.472 406.802 960.061 408.025 959.24 409.078C958.427 410.13 957.31 410.952 955.888 411.543C954.475 412.125 952.846 412.415 950.999 412.415C948.183 412.415 945.94 411.829 944.268 410.657C942.607 409.475 941.632 407.868 941.346 405.837L947.149 405.532C947.325 406.391 947.749 407.047 948.423 407.499C949.097 407.942 949.961 408.164 951.013 408.164C952.047 408.164 952.878 407.965 953.506 407.568C954.143 407.162 954.466 406.64 954.475 406.003C954.466 405.468 954.24 405.029 953.797 404.688C953.354 404.337 952.67 404.069 951.747 403.884L948.063 403.15C945.986 402.735 944.439 402.015 943.424 400.99C942.417 399.965 941.914 398.658 941.914 397.07C941.914 395.704 942.283 394.527 943.022 393.539C943.77 392.551 944.818 391.789 946.166 391.254C947.523 390.718 949.111 390.45 950.93 390.45C953.617 390.45 955.731 391.018 957.273 392.154C958.824 393.289 959.729 394.836 959.988 396.793Z" fill="#4CC9F0"/>
<path d="M357.794 442.727V447.159H344.665V442.727H357.794ZM347.67 464V441.19C347.67 439.648 347.97 438.369 348.57 437.354C349.18 436.338 350.011 435.576 351.063 435.069C352.116 434.561 353.311 434.307 354.65 434.307C355.555 434.307 356.381 434.376 357.129 434.515C357.886 434.653 358.45 434.778 358.819 434.888L357.766 439.32C357.536 439.246 357.249 439.177 356.908 439.113C356.575 439.048 356.234 439.016 355.883 439.016C355.015 439.016 354.41 439.219 354.069 439.625C353.727 440.022 353.556 440.581 353.556 441.301V464H347.67ZM370.248 464.415C368.097 464.415 366.236 463.958 364.667 463.044C363.106 462.121 361.902 460.838 361.052 459.194C360.203 457.542 359.778 455.626 359.778 453.447C359.778 451.249 360.203 449.329 361.052 447.685C361.902 446.033 363.106 444.749 364.667 443.835C366.236 442.912 368.097 442.45 370.248 442.45C372.399 442.45 374.255 442.912 375.816 443.835C377.385 444.749 378.595 446.033 379.444 447.685C380.294 449.329 380.718 451.249 380.718 453.447C380.718 455.626 380.294 457.542 379.444 459.194C378.595 460.838 377.385 462.121 375.816 463.044C374.255 463.958 372.399 464.415 370.248 464.415ZM370.276 459.845C371.255 459.845 372.072 459.568 372.727 459.014C373.383 458.451 373.877 457.685 374.209 456.715C374.551 455.746 374.722 454.642 374.722 453.405C374.722 452.168 374.551 451.065 374.209 450.095C373.877 449.126 373.383 448.359 372.727 447.796C372.072 447.233 371.255 446.951 370.276 446.951C369.288 446.951 368.457 447.233 367.783 447.796C367.118 448.359 366.615 449.126 366.273 450.095C365.941 451.065 365.775 452.168 365.775 453.405C365.775 454.642 365.941 455.746 366.273 456.715C366.615 457.685 367.118 458.451 367.783 459.014C368.457 459.568 369.288 459.845 370.276 459.845ZM384.555 464V442.727H390.274V446.439H390.496C390.884 445.119 391.535 444.121 392.449 443.447C393.363 442.764 394.415 442.423 395.606 442.423C395.902 442.423 396.22 442.441 396.562 442.478C396.904 442.515 397.204 442.566 397.462 442.63V447.865C397.185 447.782 396.802 447.708 396.313 447.644C395.823 447.579 395.376 447.547 394.969 447.547C394.101 447.547 393.326 447.736 392.643 448.115C391.969 448.484 391.433 449.001 391.036 449.666C390.648 450.331 390.454 451.097 390.454 451.965V464H384.555ZM409.65 464V435.636H420.84C422.991 435.636 424.824 436.047 426.338 436.869C427.853 437.681 429.007 438.812 429.801 440.262C430.604 441.702 431.006 443.364 431.006 445.248C431.006 447.131 430.599 448.793 429.787 450.234C428.974 451.674 427.797 452.796 426.255 453.599C424.723 454.402 422.867 454.804 420.688 454.804H413.555V449.998H419.718C420.872 449.998 421.823 449.8 422.571 449.403C423.328 448.996 423.892 448.438 424.261 447.727C424.639 447.007 424.829 446.18 424.829 445.248C424.829 444.306 424.639 443.484 424.261 442.783C423.892 442.072 423.328 441.522 422.571 441.135C421.814 440.738 420.854 440.539 419.691 440.539H415.647V464H409.65ZM434.901 464V435.636H440.898V447.339H453.071V435.636H459.054V464H453.071V452.283H440.898V464H434.901ZM462.336 435.636H469.053L475.521 447.852H475.798L482.266 435.636H488.983L478.637 453.973V464H472.682V453.973L462.336 435.636ZM507.645 443.794C507.534 442.676 507.059 441.809 506.218 441.19C505.378 440.571 504.238 440.262 502.798 440.262C501.819 440.262 500.993 440.401 500.319 440.678C499.645 440.945 499.127 441.319 498.767 441.799C498.417 442.279 498.241 442.824 498.241 443.434C498.223 443.941 498.329 444.385 498.56 444.763C498.8 445.142 499.127 445.469 499.543 445.746C499.958 446.014 500.439 446.25 500.983 446.453C501.528 446.647 502.11 446.813 502.728 446.951L505.277 447.561C506.514 447.838 507.65 448.207 508.684 448.669C509.718 449.13 510.613 449.698 511.37 450.372C512.127 451.046 512.714 451.84 513.129 452.754C513.554 453.668 513.771 454.716 513.78 455.898C513.771 457.634 513.328 459.139 512.451 460.413C511.583 461.678 510.327 462.661 508.684 463.363C507.049 464.055 505.078 464.402 502.77 464.402C500.48 464.402 498.486 464.051 496.787 463.349C495.097 462.647 493.777 461.609 492.826 460.233C491.884 458.848 491.39 457.135 491.344 455.095H497.147C497.212 456.046 497.484 456.84 497.964 457.477C498.453 458.105 499.104 458.58 499.917 458.903C500.739 459.217 501.667 459.374 502.701 459.374C503.716 459.374 504.598 459.227 505.346 458.931C506.103 458.636 506.689 458.225 507.105 457.699C507.52 457.172 507.728 456.567 507.728 455.884C507.728 455.247 507.539 454.712 507.16 454.278C506.791 453.844 506.246 453.474 505.526 453.17C504.815 452.865 503.942 452.588 502.908 452.339L499.82 451.563C497.429 450.982 495.54 450.072 494.156 448.835C492.771 447.598 492.083 445.931 492.092 443.835C492.083 442.118 492.54 440.618 493.463 439.334C494.396 438.051 495.674 437.049 497.299 436.329C498.924 435.609 500.771 435.249 502.839 435.249C504.944 435.249 506.782 435.609 508.351 436.329C509.93 437.049 511.158 438.051 512.035 439.334C512.912 440.618 513.365 442.104 513.392 443.794H507.645ZM523.811 435.636V464H517.814V435.636H523.811ZM553.77 445.566H547.704C547.594 444.782 547.367 444.085 547.026 443.475C546.684 442.857 546.246 442.33 545.71 441.896C545.175 441.462 544.556 441.13 543.854 440.899C543.162 440.668 542.409 440.553 541.597 440.553C540.129 440.553 538.85 440.918 537.76 441.647C536.671 442.367 535.826 443.42 535.226 444.805C534.626 446.18 534.326 447.852 534.326 449.818C534.326 451.84 534.626 453.539 535.226 454.915C535.835 456.29 536.685 457.329 537.774 458.031C538.864 458.733 540.124 459.083 541.555 459.083C542.358 459.083 543.102 458.977 543.785 458.765C544.477 458.553 545.091 458.243 545.627 457.837C546.162 457.422 546.606 456.918 546.956 456.327C547.317 455.737 547.566 455.062 547.704 454.305L553.77 454.333C553.613 455.635 553.221 456.891 552.593 458.1C551.975 459.3 551.139 460.376 550.086 461.327C549.043 462.269 547.797 463.017 546.347 463.571C544.907 464.115 543.277 464.388 541.458 464.388C538.928 464.388 536.666 463.815 534.672 462.67C532.687 461.526 531.117 459.868 529.963 457.699C528.818 455.529 528.246 452.902 528.246 449.818C528.246 446.725 528.828 444.094 529.991 441.924C531.154 439.754 532.733 438.102 534.727 436.966C536.722 435.821 538.965 435.249 541.458 435.249C543.102 435.249 544.625 435.479 546.029 435.941C547.441 436.403 548.692 437.077 549.782 437.963C550.871 438.84 551.758 439.916 552.441 441.19C553.133 442.464 553.577 443.923 553.77 445.566ZM562.426 464H556L565.792 435.636H573.52L583.297 464H576.871L569.767 442.118H569.545L562.426 464ZM562.025 452.851H577.204V457.532H562.025V452.851ZM586.711 464V435.636H592.708V459.056H604.868V464H586.711ZM623.862 435.636V464H617.866V435.636H623.862ZM652.52 435.636V464H647.341L635.001 446.148H634.793V464H628.796V435.636H634.059L646.302 453.474H646.551V435.636H652.52ZM656.395 440.581V435.636H679.689V440.581H671.006V464H665.078V440.581H656.395ZM683.526 464V435.636H702.638V440.581H689.523V447.339H701.655V452.283H689.523V459.056H702.693V464H683.526ZM707.406 464V435.636H713.402V459.056H725.562V464H707.406ZM729.534 464V435.636H735.53V459.056H747.69V464H729.534ZM757.658 435.636V464H751.661V435.636H757.658ZM781.4 444.805C781.206 444.131 780.933 443.535 780.583 443.018C780.232 442.492 779.802 442.049 779.295 441.689C778.796 441.319 778.224 441.038 777.577 440.844C776.94 440.65 776.234 440.553 775.458 440.553C774.009 440.553 772.735 440.913 771.636 441.633C770.546 442.353 769.697 443.401 769.088 444.777C768.478 446.143 768.173 447.815 768.173 449.79C768.173 451.766 768.474 453.447 769.074 454.832C769.674 456.217 770.523 457.274 771.622 458.003C772.721 458.723 774.018 459.083 775.514 459.083C776.871 459.083 778.03 458.843 778.99 458.363C779.959 457.874 780.698 457.186 781.206 456.3C781.723 455.413 781.981 454.365 781.981 453.156L783.2 453.336H775.888V448.821H787.757V452.394C787.757 454.887 787.23 457.029 786.178 458.82C785.125 460.602 783.676 461.978 781.829 462.947C779.982 463.908 777.868 464.388 775.486 464.388C772.827 464.388 770.491 463.801 768.478 462.629C766.465 461.447 764.896 459.771 763.769 457.602C762.652 455.423 762.094 452.837 762.094 449.846C762.094 447.547 762.426 445.497 763.091 443.697C763.765 441.887 764.706 440.354 765.916 439.099C767.126 437.843 768.534 436.887 770.14 436.232C771.747 435.576 773.487 435.249 775.361 435.249C776.968 435.249 778.464 435.484 779.849 435.955C781.233 436.417 782.461 437.072 783.532 437.922C784.613 438.771 785.494 439.782 786.178 440.955C786.861 442.118 787.3 443.401 787.493 444.805H781.4ZM792.261 464V435.636H811.373V440.581H798.258V447.339H810.39V452.283H798.258V459.056H811.429V464H792.261ZM839.865 435.636V464H834.685L822.346 446.148H822.138V464H816.141V435.636H821.404L833.647 453.474H833.896V435.636H839.865ZM869.846 445.566H863.78C863.669 444.782 863.443 444.085 863.101 443.475C862.759 442.857 862.321 442.33 861.785 441.896C861.25 441.462 860.631 441.13 859.929 440.899C859.237 440.668 858.484 440.553 857.672 440.553C856.204 440.553 854.925 440.918 853.836 441.647C852.746 442.367 851.901 443.42 851.301 444.805C850.701 446.18 850.401 447.852 850.401 449.818C850.401 451.84 850.701 453.539 851.301 454.915C851.911 456.29 852.76 457.329 853.85 458.031C854.939 458.733 856.199 459.083 857.63 459.083C858.434 459.083 859.177 458.977 859.86 458.765C860.553 458.553 861.167 458.243 861.702 457.837C862.238 457.422 862.681 456.918 863.032 456.327C863.392 455.737 863.641 455.062 863.78 454.305L869.846 454.333C869.689 455.635 869.296 456.891 868.668 458.1C868.05 459.3 867.214 460.376 866.162 461.327C865.118 462.269 863.872 463.017 862.422 463.571C860.982 464.115 859.352 464.388 857.533 464.388C855.004 464.388 852.742 463.815 850.747 462.67C848.762 461.526 847.193 459.868 846.038 457.699C844.894 455.529 844.321 452.902 844.321 449.818C844.321 446.725 844.903 444.094 846.066 441.924C847.229 439.754 848.808 438.102 850.803 436.966C852.797 435.821 855.041 435.249 857.533 435.249C859.177 435.249 860.7 435.479 862.104 435.941C863.516 436.403 864.767 437.077 865.857 437.963C866.946 438.84 867.833 439.916 868.516 441.19C869.209 442.464 869.652 443.923 869.846 445.566ZM874.146 464V435.636H893.258V440.581H880.143V447.339H892.275V452.283H880.143V459.056H893.313V464H874.146Z" fill="#F4F1E8"/>
</g>
<defs>
<clipPath id="clip0_2011_129">
<rect width="1200" height="630" fill="white"/>
</clipPath>
</defs>
</svg>
