<?xml version="1.0" encoding="UTF-8"?>
<svg width="1200" height="630" viewBox="0 0 1200 630" fill="none" xmlns="http://www.w3.org/2000/svg" role="img" aria-label="Esthien Labs custom FPGA chipsets">
  <title>Esthien Labs custom FPGA chipsets</title>
  <rect width="1200" height="630" fill="#050608"/>
  <g opacity="0.35" stroke="#252B31">
    <path d="M0 105H1200M0 210H1200M0 315H1200M0 420H1200M0 525H1200"/>
    <path d="M150 0V630M300 0V630M450 0V630M600 0V630M750 0V630M900 0V630M1050 0V630"/>
  </g>
  <rect x="84.5" y="84.5" width="1031" height="461" rx="24.5" stroke="#C8A96A" stroke-opacity="0.28" stroke-width="5"/>
  <g transform="translate(129 157) scale(1.98)">
    <rect width="96" height="96" rx="14" fill="#0A0D10" stroke="#CBD5D8" stroke-opacity="0.55" stroke-width="1.5"/>
    
  <path d="M13 18H26V78H13V18Z M26 18H52V31H26V18Z M26 41.5H48V54.5H26V41.5Z M26 65H52V78H26V65Z" fill="#F8FAF9"/>
  <path d="M59 18H69V78H59V18Z" fill="#32D69A"/>
  <path d="M74 18H84V78H74V18Z" fill="#4CC9F0"/>
  <path d="M59 31H84M59 65H84" stroke="#263239" stroke-width="4"/>
  <circle cx="64" cy="48" r="4.2" fill="#0A0D10"/>
  <circle cx="79" cy="48" r="4.2" fill="#0A0D10"/>
  </g>
  <text x="387" y="286" fill="#F8FAF9" font-family="Arial Black, Arial, Helvetica, sans-serif" font-size="76" font-weight="900" letter-spacing="0.2">ESTHIEN LABS</text>
  <text x="390" y="366" fill="#4CC9F0" font-family="Arial, Helvetica, sans-serif" font-size="32" font-weight="800" letter-spacing="2.6">CUSTOM FPGA CHIPSETS FOR PHYSICAL INTELLIGENCE</text>
  <text x="390" y="430" fill="#F4F1E8" font-family="Arial, Helvetica, sans-serif" font-size="24" font-weight="500">Edge AI, bionic arms, prosthetics, automotive radar, and safety-critical embedded systems.</text>
  <g opacity="0.52" stroke="#3A5374" stroke-width="1.2">
    <path d="M720 150H1065M720 230H1065M720 310H1065M720 390H1065M720 470H1065"/>
    <path d="M760 120V505M850 120V505M940 120V505M1030 120V505"/>
  </g>
</svg>
