<svg width="1200" height="360" viewBox="0 0 1200 360" fill="none" xmlns="http://www.w3.org/2000/svg">
<g clip-path="url(#clip0_2004_46)">
<path d="M1172 0H28C12.536 0 0 12.536 0 28V332C0 347.464 12.536 360 28 360H1172C1187.46 360 1200 347.464 1200 332V28C1200 12.536 1187.46 0 1172 0Z" fill="#0A0D10"/>
<path d="M1122 64H78C70.268 64 64 70.268 64 78V282C64 289.732 70.268 296 78 296H1122C1129.73 296 1136 289.732 1136 282V78C1136 70.268 1129.73 64 1122 64Z" fill="#11181C" stroke="#CBD5D8" stroke-width="2"/>
<path d="M161 95H291V133.324H197.344V160.838H272.129V198.179H197.344V226.676H291V265H161V95Z" fill="#F8FAF9"/>
<path d="M331 265H307V95H331V265ZM319 170C313.477 170 309 174.477 309 180C309 185.523 313.477 190 319 190C324.523 190 329 185.523 329 180C329 174.477 324.523 170 319 170Z" fill="#32D69A"/>
<path d="M331 235H307V227H331V235ZM331 133H307V125H331V133Z" fill="#CBD5D8"/>
<path d="M367 265H343V95H367V265ZM355 170C349.477 170 345 174.477 345 180C345 185.523 349.477 190 355 190C360.523 190 365 185.523 365 180C365 174.477 360.523 170 355 170Z" fill="#4CC9F0"/>
<path d="M367 235H343V227H367V235ZM367 133H343V125H367V133Z" fill="#CBD5D8"/>
<path d="M504.238 182V130.461H542.453V139.18H514.645V150.605H540.52V159.289H514.645V173.316H543.438V182H504.238ZM549.625 165.23L559.75 164.246C560.359 167.645 561.59 170.141 563.441 171.734C565.316 173.328 567.836 174.125 571 174.125C574.352 174.125 576.871 173.422 578.559 172.016C580.27 170.586 581.125 168.922 581.125 167.023C581.125 165.805 580.762 164.773 580.035 163.93C579.332 163.062 578.09 162.312 576.309 161.68C575.09 161.258 572.312 160.508 567.977 159.43C562.398 158.047 558.484 156.348 556.234 154.332C553.07 151.496 551.488 148.039 551.488 143.961C551.488 141.336 552.227 138.887 553.703 136.613C555.203 134.316 557.348 132.57 560.137 131.375C562.949 130.18 566.336 129.582 570.297 129.582C576.766 129.582 581.629 131 584.887 133.836C588.168 136.672 589.891 140.457 590.055 145.191L579.648 145.648C579.203 143 578.242 141.102 576.766 139.953C575.312 138.781 573.121 138.195 570.191 138.195C567.168 138.195 564.801 138.816 563.09 140.059C561.988 140.855 561.438 141.922 561.438 143.258C561.438 144.477 561.953 145.52 562.984 146.387C564.297 147.488 567.484 148.637 572.547 149.832C577.609 151.027 581.348 152.27 583.762 153.559C586.199 154.824 588.098 156.57 589.457 158.797C590.84 161 591.531 163.73 591.531 166.988C591.531 169.941 590.711 172.707 589.07 175.285C587.43 177.863 585.109 179.785 582.109 181.051C579.109 182.293 575.371 182.914 570.895 182.914C564.379 182.914 559.375 181.414 555.883 178.414C552.391 175.391 550.305 170.996 549.625 165.23ZM611.887 182V139.18H596.594V130.461H637.551V139.18H622.293V182H611.887ZM644.336 182V130.461H654.742V150.746H675.133V130.461H685.539V182H675.133V159.465H654.742V182H644.336ZM696.016 182V130.461H706.422V182H696.016ZM716.371 182V130.461H754.586V139.18H726.777V150.605H752.652V159.289H726.777V173.316H755.57V182H716.371ZM764.5 182V130.461H774.625L795.719 164.879V130.461H805.387V182H794.945L774.168 148.391V182H764.5ZM836.746 182V130.883H847.152V173.316H873.027V182H836.746ZM926.957 182H915.637L911.137 170.293H890.535L886.281 182H875.242L895.316 130.461H906.32L926.957 182ZM907.797 161.609L900.695 142.484L893.734 161.609H907.797ZM932.547 130.461H953.148C957.227 130.461 960.262 130.637 962.254 130.988C964.27 131.316 966.062 132.02 967.633 133.098C969.227 134.176 970.551 135.617 971.605 137.422C972.66 139.203 973.188 141.207 973.188 143.434C973.188 145.848 972.531 148.062 971.219 150.078C969.93 152.094 968.172 153.605 965.945 154.613C969.086 155.527 971.5 157.086 973.188 159.289C974.875 161.492 975.719 164.082 975.719 167.059C975.719 169.402 975.168 171.688 974.066 173.914C972.988 176.117 971.5 177.887 969.602 179.223C967.727 180.535 965.406 181.344 962.641 181.648C960.906 181.836 956.723 181.953 950.09 182H932.547V130.461ZM942.953 139.039V150.957H949.773C953.828 150.957 956.348 150.898 957.332 150.781C959.113 150.57 960.508 149.961 961.516 148.953C962.547 147.922 963.062 146.574 963.062 144.91C963.062 143.316 962.617 142.027 961.727 141.043C960.859 140.035 959.559 139.426 957.824 139.215C956.793 139.098 953.828 139.039 948.93 139.039H942.953ZM942.953 159.535V173.316H952.586C956.336 173.316 958.715 173.211 959.723 173C961.27 172.719 962.523 172.039 963.484 170.961C964.469 169.859 964.961 168.395 964.961 166.566C964.961 165.02 964.586 163.707 963.836 162.629C963.086 161.551 961.996 160.766 960.566 160.273C959.16 159.781 956.09 159.535 951.355 159.535H942.953ZM981.906 165.23L992.031 164.246C992.641 167.645 993.871 170.141 995.723 171.734C997.598 173.328 1000.12 174.125 1003.28 174.125C1006.63 174.125 1009.15 173.422 1010.84 172.016C1012.55 170.586 1013.41 168.922 1013.41 167.023C1013.41 165.805 1013.04 164.773 1012.32 163.93C1011.61 163.062 1010.37 162.312 1008.59 161.68C1007.37 161.258 1004.59 160.508 1000.26 159.43C994.68 158.047 990.766 156.348 988.516 154.332C985.352 151.496 983.77 148.039 983.77 143.961C983.77 141.336 984.508 138.887 985.984 136.613C987.484 134.316 989.629 132.57 992.418 131.375C995.23 130.18 998.617 129.582 1002.58 129.582C1009.05 129.582 1013.91 131 1017.17 133.836C1020.45 136.672 1022.17 140.457 1022.34 145.191L1011.93 145.648C1011.48 143 1010.52 141.102 1009.05 139.953C1007.59 138.781 1005.4 138.195 1002.47 138.195C999.449 138.195 997.082 138.816 995.371 140.059C994.27 140.855 993.719 141.922 993.719 143.258C993.719 144.477 994.234 145.52 995.266 146.387C996.578 147.488 999.766 148.637 1004.83 149.832C1009.89 151.027 1013.63 152.27 1016.04 153.559C1018.48 154.824 1020.38 156.57 1021.74 158.797C1023.12 161 1023.81 163.73 1023.81 166.988C1023.81 169.941 1022.99 172.707 1021.35 175.285C1019.71 177.863 1017.39 179.785 1014.39 181.051C1011.39 182.293 1007.65 182.914 1003.18 182.914C996.66 182.914 991.656 181.414 988.164 178.414C984.672 175.391 982.586 170.996 981.906 165.23Z" fill="#F8FAF9"/>
<path d="M525.746 221V203.82H538.484V206.727H529.215V210.535H537.84V213.43H529.215V218.105H538.812V221H525.746ZM541.789 221V203.82H545.164L552.195 215.293V203.82H555.418V221H551.938L545.012 209.797V221H541.789ZM567.09 214.684V211.789H574.566V218.633C573.84 219.336 572.785 219.957 571.402 220.496C570.027 221.027 568.633 221.293 567.219 221.293C565.422 221.293 563.855 220.918 562.52 220.168C561.184 219.41 560.18 218.332 559.508 216.934C558.836 215.527 558.5 214 558.5 212.352C558.5 210.562 558.875 208.973 559.625 207.582C560.375 206.191 561.473 205.125 562.918 204.383C564.02 203.812 565.391 203.527 567.031 203.527C569.164 203.527 570.828 203.977 572.023 204.875C573.227 205.766 574 207 574.344 208.578L570.898 209.223C570.656 208.379 570.199 207.715 569.527 207.23C568.863 206.738 568.031 206.492 567.031 206.492C565.516 206.492 564.309 206.973 563.41 207.934C562.52 208.895 562.074 210.32 562.074 212.211C562.074 214.25 562.527 215.781 563.434 216.805C564.34 217.82 565.527 218.328 566.996 218.328C567.723 218.328 568.449 218.188 569.176 217.906C569.91 217.617 570.539 217.27 571.062 216.863V214.684H567.09ZM577.672 221V203.82H581.141V221H577.672ZM584.492 221V203.82H587.867L594.898 215.293V203.82H598.121V221H594.641L587.715 209.797V221H584.492ZM601.801 221V203.82H614.539V206.727H605.27V210.535H613.895V213.43H605.27V218.105H614.867V221H601.801ZM617.809 221V203.82H630.547V206.727H621.277V210.535H629.902V213.43H621.277V218.105H630.875V221H617.809ZM633.828 221V203.82H641.129C642.965 203.82 644.297 203.977 645.125 204.289C645.961 204.594 646.629 205.141 647.129 205.93C647.629 206.719 647.879 207.621 647.879 208.637C647.879 209.926 647.5 210.992 646.742 211.836C645.984 212.672 644.852 213.199 643.344 213.418C644.094 213.855 644.711 214.336 645.195 214.859C645.688 215.383 646.348 216.312 647.176 217.648L649.273 221H645.125L642.617 217.262C641.727 215.926 641.117 215.086 640.789 214.742C640.461 214.391 640.113 214.152 639.746 214.027C639.379 213.895 638.797 213.828 638 213.828H637.297V221H633.828ZM637.297 211.086H639.863C641.527 211.086 642.566 211.016 642.98 210.875C643.395 210.734 643.719 210.492 643.953 210.148C644.188 209.805 644.305 209.375 644.305 208.859C644.305 208.281 644.148 207.816 643.836 207.465C643.531 207.105 643.098 206.879 642.535 206.785C642.254 206.746 641.41 206.727 640.004 206.727H637.297V211.086ZM651.055 221V203.82H654.523V221H651.055ZM657.875 221V203.82H661.25L668.281 215.293V203.82H671.504V221H668.023L661.098 209.797V221H657.875ZM683.176 214.684V211.789H690.652V218.633C689.926 219.336 688.871 219.957 687.488 220.496C686.113 221.027 684.719 221.293 683.305 221.293C681.508 221.293 679.941 220.918 678.605 220.168C677.27 219.41 676.266 218.332 675.594 216.934C674.922 215.527 674.586 214 674.586 212.352C674.586 210.562 674.961 208.973 675.711 207.582C676.461 206.191 677.559 205.125 679.004 204.383C680.105 203.812 681.477 203.527 683.117 203.527C685.25 203.527 686.914 203.977 688.109 204.875C689.312 205.766 690.086 207 690.43 208.578L686.984 209.223C686.742 208.379 686.285 207.715 685.613 207.23C684.949 206.738 684.117 206.492 683.117 206.492C681.602 206.492 680.395 206.973 679.496 207.934C678.605 208.895 678.16 210.32 678.16 212.211C678.16 214.25 678.613 215.781 679.52 216.805C680.426 217.82 681.613 218.328 683.082 218.328C683.809 218.328 684.535 218.188 685.262 217.906C685.996 217.617 686.625 217.27 687.148 216.863V214.684H683.176Z" fill="#4CC9F0"/>
<path d="M700.746 221V203.82H706.312C708.422 203.82 709.797 203.906 710.438 204.078C711.422 204.336 712.246 204.898 712.91 205.766C713.574 206.625 713.906 207.738 713.906 209.105C713.906 210.16 713.715 211.047 713.332 211.766C712.949 212.484 712.461 213.051 711.867 213.465C711.281 213.871 710.684 214.141 710.074 214.273C709.246 214.438 708.047 214.52 706.477 214.52H704.215V221H700.746ZM704.215 206.727V211.602H706.113C707.48 211.602 708.395 211.512 708.855 211.332C709.316 211.152 709.676 210.871 709.934 210.488C710.199 210.105 710.332 209.66 710.332 209.152C710.332 208.527 710.148 208.012 709.781 207.605C709.414 207.199 708.949 206.945 708.387 206.844C707.973 206.766 707.141 206.727 705.891 206.727H704.215ZM716.766 221V203.82H720.234V210.582H727.031V203.82H730.5V221H727.031V213.488H720.234V221H716.766ZM738.609 221V213.77L732.316 203.82H736.383L740.426 210.617L744.387 203.82H748.383L742.066 213.793V221H738.609ZM749.227 215.41L752.602 215.082C752.805 216.215 753.215 217.047 753.832 217.578C754.457 218.109 755.297 218.375 756.352 218.375C757.469 218.375 758.309 218.141 758.871 217.672C759.441 217.195 759.727 216.641 759.727 216.008C759.727 215.602 759.605 215.258 759.363 214.977C759.129 214.688 758.715 214.438 758.121 214.227C757.715 214.086 756.789 213.836 755.344 213.477C753.484 213.016 752.18 212.449 751.43 211.777C750.375 210.832 749.848 209.68 749.848 208.32C749.848 207.445 750.094 206.629 750.586 205.871C751.086 205.105 751.801 204.523 752.73 204.125C753.668 203.727 754.797 203.527 756.117 203.527C758.273 203.527 759.895 204 760.98 204.945C762.074 205.891 762.648 207.152 762.703 208.73L759.234 208.883C759.086 208 758.766 207.367 758.273 206.984C757.789 206.594 757.059 206.398 756.082 206.398C755.074 206.398 754.285 206.605 753.715 207.02C753.348 207.285 753.164 207.641 753.164 208.086C753.164 208.492 753.336 208.84 753.68 209.129C754.117 209.496 755.18 209.879 756.867 210.277C758.555 210.676 759.801 211.09 760.605 211.52C761.418 211.941 762.051 212.523 762.504 213.266C762.965 214 763.195 214.91 763.195 215.996C763.195 216.98 762.922 217.902 762.375 218.762C761.828 219.621 761.055 220.262 760.055 220.684C759.055 221.098 757.809 221.305 756.316 221.305C754.145 221.305 752.477 220.805 751.312 219.805C750.148 218.797 749.453 217.332 749.227 215.41ZM766.008 221V203.82H769.477V221H766.008ZM783.785 214.684L787.148 215.75C786.633 217.625 785.773 219.02 784.57 219.934C783.375 220.84 781.855 221.293 780.012 221.293C777.73 221.293 775.855 220.516 774.387 218.961C772.918 217.398 772.184 215.266 772.184 212.562C772.184 209.703 772.922 207.484 774.398 205.906C775.875 204.32 777.816 203.527 780.223 203.527C782.324 203.527 784.031 204.148 785.344 205.391C786.125 206.125 786.711 207.18 787.102 208.555L783.668 209.375C783.465 208.484 783.039 207.781 782.391 207.266C781.75 206.75 780.969 206.492 780.047 206.492C778.773 206.492 777.738 206.949 776.941 207.863C776.152 208.777 775.758 210.258 775.758 212.305C775.758 214.477 776.148 216.023 776.93 216.945C777.711 217.867 778.727 218.328 779.977 218.328C780.898 218.328 781.691 218.035 782.355 217.449C783.02 216.863 783.496 215.941 783.785 214.684ZM805.629 221H801.855L800.355 217.098H793.488L792.07 221H788.391L795.082 203.82H798.75L805.629 221ZM799.242 214.203L796.875 207.828L794.555 214.203H799.242ZM807.574 221V203.961H811.043V218.105H819.668V221H807.574Z" fill="#F8FAF9"/>
<path d="M828.641 221V203.82H832.109V221H828.641ZM835.461 221V203.82H838.836L845.867 215.293V203.82H849.09V221H845.609L838.684 209.797V221H835.461ZM856.637 221V206.727H851.539V203.82H865.191V206.727H860.105V221H856.637ZM867.441 221V203.82H880.18V206.727H870.91V210.535H879.535V213.43H870.91V218.105H880.508V221H867.441ZM883.543 221V203.961H887.012V218.105H895.637V221H883.543ZM898.215 221V203.961H901.684V218.105H910.309V221H898.215ZM912.688 221V203.82H916.156V221H912.688ZM927.465 214.684V211.789H934.941V218.633C934.215 219.336 933.16 219.957 931.777 220.496C930.402 221.027 929.008 221.293 927.594 221.293C925.797 221.293 924.23 220.918 922.895 220.168C921.559 219.41 920.555 218.332 919.883 216.934C919.211 215.527 918.875 214 918.875 212.352C918.875 210.562 919.25 208.973 920 207.582C920.75 206.191 921.848 205.125 923.293 204.383C924.395 203.812 925.766 203.527 927.406 203.527C929.539 203.527 931.203 203.977 932.398 204.875C933.602 205.766 934.375 207 934.719 208.578L931.273 209.223C931.031 208.379 930.574 207.715 929.902 207.23C929.238 206.738 928.406 206.492 927.406 206.492C925.891 206.492 924.684 206.973 923.785 207.934C922.895 208.895 922.449 210.32 922.449 212.211C922.449 214.25 922.902 215.781 923.809 216.805C924.715 217.82 925.902 218.328 927.371 218.328C928.098 218.328 928.824 218.188 929.551 217.906C930.285 217.617 930.914 217.27 931.438 216.863V214.684H927.465ZM938.152 221V203.82H950.891V206.727H941.621V210.535H950.246V213.43H941.621V218.105H951.219V221H938.152ZM954.195 221V203.82H957.57L964.602 215.293V203.82H967.824V221H964.344L957.418 209.797V221H954.195ZM982.496 214.684L985.859 215.75C985.344 217.625 984.484 219.02 983.281 219.934C982.086 220.84 980.566 221.293 978.723 221.293C976.441 221.293 974.566 220.516 973.098 218.961C971.629 217.398 970.895 215.266 970.895 212.562C970.895 209.703 971.633 207.484 973.109 205.906C974.586 204.32 976.527 203.527 978.934 203.527C981.035 203.527 982.742 204.148 984.055 205.391C984.836 206.125 985.422 207.18 985.812 208.555L982.379 209.375C982.176 208.484 981.75 207.781 981.102 207.266C980.461 206.75 979.68 206.492 978.758 206.492C977.484 206.492 976.449 206.949 975.652 207.863C974.863 208.777 974.469 210.258 974.469 212.305C974.469 214.477 974.859 216.023 975.641 216.945C976.422 217.867 977.438 218.328 978.688 218.328C979.609 218.328 980.402 218.035 981.066 217.449C981.73 216.863 982.207 215.941 982.496 214.684ZM988.848 221V203.82H1001.59V206.727H992.316V210.535H1000.94V213.43H992.316V218.105H1001.91V221H988.848Z" fill="#F8FAF9"/>
<path d="M487 245H1040" stroke="#CBD5D8" stroke-width="2"/>
</g>
<defs>
<clipPath id="clip0_2004_46">
<rect width="1200" height="360" fill="white"/>
</clipPath>
</defs>
</svg>
