<svg width="512" height="512" viewBox="0 0 512 512" fill="none" xmlns="http://www.w3.org/2000/svg">
<path d="M139 144H289.52V175.561H181.081V198.22H267.67V228.971H181.081V252.439H289.52V284H139V144Z" fill="#0A0D10"/>
<path d="M332.409 284H304.086V144H332.409V284ZM318.247 205.503C313.554 205.503 309.75 209.307 309.75 214C309.75 218.693 313.554 222.497 318.247 222.497C322.94 222.497 326.744 218.693 326.744 214C326.744 209.307 322.94 205.503 318.247 205.503Z" fill="#4CC9F0"/>
<path d="M304.09 171H332.415M304.09 255.971H332.409" stroke="#CBD5D8" stroke-width="8"/>
<path d="M374.487 284H346.164V144H374.487V284ZM360.333 205.503C355.64 205.503 351.836 209.307 351.836 214C351.836 218.693 355.64 222.497 360.333 222.497C365.026 222.497 368.83 218.693 368.83 214C368.83 209.307 365.026 205.503 360.333 205.503Z" fill="#4CC9F0"/>
<path d="M346.166 171H374.492M346.165 255.971H374.482" stroke="#CBD5D8" stroke-width="8"/>
<path d="M126.619 337V311.23H145.727V315.59H131.822V321.303H144.76V325.645H131.822V332.658H146.219V337H126.619ZM149.312 328.615L154.375 328.123C154.68 329.822 155.295 331.07 156.221 331.867C157.158 332.664 158.418 333.062 160 333.062C161.676 333.062 162.936 332.711 163.779 332.008C164.635 331.293 165.062 330.461 165.062 329.512C165.062 328.902 164.881 328.387 164.518 327.965C164.166 327.531 163.545 327.156 162.654 326.84C162.045 326.629 160.656 326.254 158.488 325.715C155.699 325.023 153.742 324.174 152.617 323.166C151.035 321.748 150.244 320.02 150.244 317.98C150.244 316.668 150.613 315.443 151.352 314.307C152.102 313.158 153.174 312.285 154.568 311.688C155.975 311.09 157.668 310.791 159.648 310.791C162.883 310.791 165.314 311.5 166.943 312.918C168.584 314.336 169.445 316.229 169.527 318.596L164.324 318.824C164.102 317.5 163.621 316.551 162.883 315.977C162.156 315.391 161.061 315.098 159.596 315.098C158.084 315.098 156.9 315.408 156.045 316.029C155.494 316.428 155.219 316.961 155.219 317.629C155.219 318.238 155.477 318.76 155.992 319.193C156.648 319.744 158.242 320.318 160.773 320.916C163.305 321.514 165.174 322.135 166.381 322.779C167.6 323.412 168.549 324.285 169.229 325.398C169.92 326.5 170.266 327.865 170.266 329.494C170.266 330.971 169.855 332.354 169.035 333.643C168.215 334.932 167.055 335.893 165.555 336.525C164.055 337.146 162.186 337.457 159.947 337.457C156.689 337.457 154.188 336.707 152.441 335.207C150.695 333.695 149.652 331.498 149.312 328.615ZM180.443 337V315.59H172.797V311.23H193.275V315.59H185.646V337H180.443ZM196.668 337V311.23H201.871V321.373H212.066V311.23H217.27V337H212.066V325.732H201.871V337H196.668ZM222.508 337V311.23H227.711V337H222.508ZM232.686 337V311.23H251.793V315.59H237.889V321.303H250.826V325.645H237.889V332.658H252.285V337H232.686ZM256.75 337V311.23H261.812L272.359 328.439V311.23H277.193V337H271.973L261.584 320.195V337H256.75ZM292.873 337V311.441H298.076V332.658H311.014V337H292.873ZM337.979 337H332.318L330.068 331.146H319.768L317.641 337H312.121L322.158 311.23H327.66L337.979 337ZM328.398 326.805L324.848 317.242L321.367 326.805H328.398ZM340.773 311.23H351.074C353.113 311.23 354.631 311.318 355.627 311.494C356.635 311.658 357.531 312.01 358.316 312.549C359.113 313.088 359.775 313.809 360.303 314.711C360.83 315.602 361.094 316.604 361.094 317.717C361.094 318.924 360.766 320.031 360.109 321.039C359.465 322.047 358.586 322.803 357.473 323.307C359.043 323.764 360.25 324.543 361.094 325.645C361.938 326.746 362.359 328.041 362.359 329.529C362.359 330.701 362.084 331.844 361.533 332.957C360.994 334.059 360.25 334.943 359.301 335.611C358.363 336.268 357.203 336.672 355.82 336.824C354.953 336.918 352.861 336.977 349.545 337H340.773V311.23ZM345.977 315.52V321.479H349.387C351.414 321.479 352.674 321.449 353.166 321.391C354.057 321.285 354.754 320.98 355.258 320.477C355.773 319.961 356.031 319.287 356.031 318.455C356.031 317.658 355.809 317.014 355.363 316.521C354.93 316.018 354.279 315.713 353.412 315.607C352.896 315.549 351.414 315.52 348.965 315.52H345.977ZM345.977 325.768V332.658H350.793C352.668 332.658 353.857 332.605 354.361 332.5C355.135 332.359 355.762 332.02 356.242 331.48C356.734 330.93 356.98 330.197 356.98 329.283C356.98 328.51 356.793 327.854 356.418 327.314C356.043 326.775 355.498 326.383 354.783 326.137C354.08 325.891 352.545 325.768 350.178 325.768H345.977ZM365.453 328.615L370.516 328.123C370.82 329.822 371.436 331.07 372.361 331.867C373.299 332.664 374.559 333.062 376.141 333.062C377.816 333.062 379.076 332.711 379.92 332.008C380.775 331.293 381.203 330.461 381.203 329.512C381.203 328.902 381.021 328.387 380.658 327.965C380.307 327.531 379.686 327.156 378.795 326.84C378.186 326.629 376.797 326.254 374.629 325.715C371.84 325.023 369.883 324.174 368.758 323.166C367.176 321.748 366.385 320.02 366.385 317.98C366.385 316.668 366.754 315.443 367.492 314.307C368.242 313.158 369.314 312.285 370.709 311.688C372.115 311.09 373.809 310.791 375.789 310.791C379.023 310.791 381.455 311.5 383.084 312.918C384.725 314.336 385.586 316.229 385.668 318.596L380.465 318.824C380.242 317.5 379.762 316.551 379.023 315.977C378.297 315.391 377.201 315.098 375.736 315.098C374.225 315.098 373.041 315.408 372.186 316.029C371.635 316.428 371.359 316.961 371.359 317.629C371.359 318.238 371.617 318.76 372.133 319.193C372.789 319.744 374.383 320.318 376.914 320.916C379.445 321.514 381.314 322.135 382.521 322.779C383.74 323.412 384.689 324.285 385.369 325.398C386.061 326.5 386.406 327.865 386.406 329.494C386.406 330.971 385.996 332.354 385.176 333.643C384.355 334.932 383.195 335.893 381.695 336.525C380.195 337.146 378.326 337.457 376.088 337.457C372.83 337.457 370.328 336.707 368.582 335.207C366.836 333.695 365.793 331.498 365.453 328.615Z" fill="#0A0D10"/>
<path d="M167.873 356V347.41H174.242V348.863H169.607V350.768H173.92V352.215H169.607V354.553H174.406V356H167.873ZM175.895 356V347.41H177.582L181.098 353.146V347.41H182.709V356H180.969L177.506 350.398V356H175.895ZM188.545 352.842V351.395H192.283V354.816C191.92 355.168 191.393 355.479 190.701 355.748C190.014 356.014 189.316 356.146 188.609 356.146C187.711 356.146 186.928 355.959 186.26 355.584C185.592 355.205 185.09 354.666 184.754 353.967C184.418 353.264 184.25 352.5 184.25 351.676C184.25 350.781 184.438 349.986 184.812 349.291C185.188 348.596 185.736 348.062 186.459 347.691C187.01 347.406 187.695 347.264 188.516 347.264C189.582 347.264 190.414 347.488 191.012 347.938C191.613 348.383 192 349 192.172 349.789L190.449 350.111C190.328 349.689 190.1 349.357 189.764 349.115C189.432 348.869 189.016 348.746 188.516 348.746C187.758 348.746 187.154 348.986 186.705 349.467C186.26 349.947 186.037 350.66 186.037 351.605C186.037 352.625 186.264 353.391 186.717 353.902C187.17 354.41 187.764 354.664 188.498 354.664C188.861 354.664 189.225 354.594 189.588 354.453C189.955 354.309 190.27 354.135 190.531 353.932V352.842H188.545ZM193.836 356V347.41H195.57V356H193.836ZM197.246 356V347.41H198.934L202.449 353.146V347.41H204.061V356H202.32L198.857 350.398V356H197.246ZM205.9 356V347.41H212.27V348.863H207.635V350.768H211.947V352.215H207.635V354.553H212.434V356H205.9ZM213.904 356V347.41H220.273V348.863H215.639V350.768H219.951V352.215H215.639V354.553H220.438V356H213.904ZM221.914 356V347.41H225.564C226.482 347.41 227.148 347.488 227.562 347.645C227.98 347.797 228.314 348.07 228.564 348.465C228.814 348.859 228.939 349.311 228.939 349.818C228.939 350.463 228.75 350.996 228.371 351.418C227.992 351.836 227.426 352.1 226.672 352.209C227.047 352.428 227.355 352.668 227.598 352.93C227.844 353.191 228.174 353.656 228.588 354.324L229.637 356H227.562L226.309 354.131C225.863 353.463 225.559 353.043 225.395 352.871C225.23 352.695 225.057 352.576 224.873 352.514C224.689 352.447 224.398 352.414 224 352.414H223.648V356H221.914ZM223.648 351.043H224.932C225.764 351.043 226.283 351.008 226.49 350.938C226.697 350.867 226.859 350.746 226.977 350.574C227.094 350.402 227.152 350.188 227.152 349.93C227.152 349.641 227.074 349.408 226.918 349.232C226.766 349.053 226.549 348.939 226.268 348.893C226.127 348.873 225.705 348.863 225.002 348.863H223.648V351.043ZM230.527 356V347.41H232.262V356H230.527ZM233.938 356V347.41H235.625L239.141 353.146V347.41H240.752V356H239.012L235.549 350.398V356H233.938ZM246.588 352.842V351.395H250.326V354.816C249.963 355.168 249.436 355.479 248.744 355.748C248.057 356.014 247.359 356.146 246.652 356.146C245.754 356.146 244.971 355.959 244.303 355.584C243.635 355.205 243.133 354.666 242.797 353.967C242.461 353.264 242.293 352.5 242.293 351.676C242.293 350.781 242.48 349.986 242.855 349.291C243.23 348.596 243.779 348.062 244.502 347.691C245.053 347.406 245.738 347.264 246.559 347.264C247.625 347.264 248.457 347.488 249.055 347.938C249.656 348.383 250.043 349 250.215 349.789L248.492 350.111C248.371 349.689 248.143 349.357 247.807 349.115C247.475 348.869 247.059 348.746 246.559 348.746C245.801 348.746 245.197 348.986 244.748 349.467C244.303 349.947 244.08 350.66 244.08 351.605C244.08 352.625 244.307 353.391 244.76 353.902C245.213 354.41 245.807 354.664 246.541 354.664C246.904 354.664 247.268 354.594 247.631 354.453C247.998 354.309 248.312 354.135 248.574 353.932V352.842H246.588Z" fill="#4CC9F0"/>
<path d="M257.82 356V347.41H259.555V356H257.82ZM261.23 356V347.41H262.918L266.434 353.146V347.41H268.045V356H266.305L262.842 350.398V356H261.23ZM271.818 356V348.863H269.27V347.41H276.096V348.863H273.553V356H271.818ZM277.221 356V347.41H283.59V348.863H278.955V350.768H283.268V352.215H278.955V354.553H283.754V356H277.221ZM285.271 356V347.48H287.006V354.553H291.318V356H285.271ZM292.607 356V347.48H294.342V354.553H298.654V356H292.607ZM299.844 356V347.41H301.578V356H299.844ZM307.232 352.842V351.395H310.971V354.816C310.607 355.168 310.08 355.479 309.389 355.748C308.701 356.014 308.004 356.146 307.297 356.146C306.398 356.146 305.615 355.959 304.947 355.584C304.279 355.205 303.777 354.666 303.441 353.967C303.105 353.264 302.938 352.5 302.938 351.676C302.938 350.781 303.125 349.986 303.5 349.291C303.875 348.596 304.424 348.062 305.146 347.691C305.697 347.406 306.383 347.264 307.203 347.264C308.27 347.264 309.102 347.488 309.699 347.938C310.301 348.383 310.688 349 310.859 349.789L309.137 350.111C309.016 349.689 308.787 349.357 308.451 349.115C308.119 348.869 307.703 348.746 307.203 348.746C306.445 348.746 305.842 348.986 305.393 349.467C304.947 349.947 304.725 350.66 304.725 351.605C304.725 352.625 304.951 353.391 305.404 353.902C305.857 354.41 306.451 354.664 307.186 354.664C307.549 354.664 307.912 354.594 308.275 354.453C308.643 354.309 308.957 354.135 309.219 353.932V352.842H307.232ZM312.576 356V347.41H318.945V348.863H314.311V350.768H318.623V352.215H314.311V354.553H319.109V356H312.576ZM320.598 356V347.41H322.285L325.801 353.146V347.41H327.412V356H325.672L322.209 350.398V356H320.598ZM334.748 352.842L336.43 353.375C336.172 354.312 335.742 355.01 335.141 355.467C334.543 355.92 333.783 356.146 332.861 356.146C331.721 356.146 330.783 355.758 330.049 354.98C329.314 354.199 328.947 353.133 328.947 351.781C328.947 350.352 329.316 349.242 330.055 348.453C330.793 347.66 331.764 347.264 332.967 347.264C334.018 347.264 334.871 347.574 335.527 348.195C335.918 348.562 336.211 349.09 336.406 349.777L334.689 350.188C334.588 349.742 334.375 349.391 334.051 349.133C333.73 348.875 333.34 348.746 332.879 348.746C332.242 348.746 331.725 348.975 331.326 349.432C330.932 349.889 330.734 350.629 330.734 351.652C330.734 352.738 330.93 353.512 331.32 353.973C331.711 354.434 332.219 354.664 332.844 354.664C333.305 354.664 333.701 354.518 334.033 354.225C334.365 353.932 334.604 353.471 334.748 352.842ZM337.924 356V347.41H344.293V348.863H339.658V350.768H343.971V352.215H339.658V354.553H344.457V356H337.924Z" fill="#0A0D10"/>
</svg>
