<svg width="1072" height="232" viewBox="0 0 1072 232" fill="none" xmlns="http://www.w3.org/2000/svg">
<path d="M440.238 118V66.4609H478.453V75.1797H450.645V86.6055H476.52V95.2891H450.645V109.316H479.438V118H440.238ZM485.625 101.23L495.75 100.246C496.359 103.645 497.59 106.141 499.441 107.734C501.316 109.328 503.836 110.125 507 110.125C510.352 110.125 512.871 109.422 514.559 108.016C516.27 106.586 517.125 104.922 517.125 103.023C517.125 101.805 516.762 100.773 516.035 99.9297C515.332 99.0625 514.09 98.3125 512.309 97.6797C511.09 97.2578 508.312 96.5078 503.977 95.4297C498.398 94.0469 494.484 92.3477 492.234 90.332C489.07 87.4961 487.488 84.0391 487.488 79.9609C487.488 77.3359 488.227 74.8867 489.703 72.6133C491.203 70.3164 493.348 68.5703 496.137 67.375C498.949 66.1797 502.336 65.582 506.297 65.582C512.766 65.582 517.629 67 520.887 69.8359C524.168 72.6719 525.891 76.457 526.055 81.1914L515.648 81.6484C515.203 79 514.242 77.1016 512.766 75.9531C511.312 74.7812 509.121 74.1953 506.191 74.1953C503.168 74.1953 500.801 74.8164 499.09 76.0586C497.988 76.8555 497.438 77.9219 497.438 79.2578C497.438 80.4766 497.953 81.5195 498.984 82.3867C500.297 83.4883 503.484 84.6367 508.547 85.832C513.609 87.0273 517.348 88.2695 519.762 89.5586C522.199 90.8242 524.098 92.5703 525.457 94.7969C526.84 97 527.531 99.7305 527.531 102.988C527.531 105.941 526.711 108.707 525.07 111.285C523.43 113.863 521.109 115.785 518.109 117.051C515.109 118.293 511.371 118.914 506.895 118.914C500.379 118.914 495.375 117.414 491.883 114.414C488.391 111.391 486.305 106.996 485.625 101.23ZM547.887 118V75.1797H532.594V66.4609H573.551V75.1797H558.293V118H547.887ZM580.336 118V66.4609H590.742V86.7461H611.133V66.4609H621.539V118H611.133V95.4648H590.742V118H580.336ZM632.016 118V66.4609H642.422V118H632.016ZM652.371 118V66.4609H690.586V75.1797H662.777V86.6055H688.652V95.2891H662.777V109.316H691.57V118H652.371ZM700.5 118V66.4609H710.625L731.719 100.879V66.4609H741.387V118H730.945L710.168 84.3906V118H700.5ZM772.746 118V66.8828H783.152V109.316H809.027V118H772.746ZM862.957 118H851.637L847.137 106.293H826.535L822.281 118H811.242L831.316 66.4609H842.32L862.957 118ZM843.797 97.6094L836.695 78.4844L829.734 97.6094H843.797ZM868.547 66.4609H889.148C893.227 66.4609 896.262 66.6367 898.254 66.9883C900.27 67.3164 902.062 68.0195 903.633 69.0977C905.227 70.1758 906.551 71.6172 907.605 73.4219C908.66 75.2031 909.188 77.207 909.188 79.4336C909.188 81.8477 908.531 84.0625 907.219 86.0781C905.93 88.0938 904.172 89.6055 901.945 90.6133C905.086 91.5273 907.5 93.0859 909.188 95.2891C910.875 97.4922 911.719 100.082 911.719 103.059C911.719 105.402 911.168 107.688 910.066 109.914C908.988 112.117 907.5 113.887 905.602 115.223C903.727 116.535 901.406 117.344 898.641 117.648C896.906 117.836 892.723 117.953 886.09 118H868.547V66.4609ZM878.953 75.0391V86.957H885.773C889.828 86.957 892.348 86.8984 893.332 86.7812C895.113 86.5703 896.508 85.9609 897.516 84.9531C898.547 83.9219 899.062 82.5742 899.062 80.9102C899.062 79.3164 898.617 78.0273 897.727 77.043C896.859 76.0352 895.559 75.4258 893.824 75.2148C892.793 75.0977 889.828 75.0391 884.93 75.0391H878.953ZM878.953 95.5352V109.316H888.586C892.336 109.316 894.715 109.211 895.723 109C897.27 108.719 898.523 108.039 899.484 106.961C900.469 105.859 900.961 104.395 900.961 102.566C900.961 101.02 900.586 99.707 899.836 98.6289C899.086 97.5508 897.996 96.7656 896.566 96.2734C895.16 95.7812 892.09 95.5352 887.355 95.5352H878.953ZM917.906 101.23L928.031 100.246C928.641 103.645 929.871 106.141 931.723 107.734C933.598 109.328 936.117 110.125 939.281 110.125C942.633 110.125 945.152 109.422 946.84 108.016C948.551 106.586 949.406 104.922 949.406 103.023C949.406 101.805 949.043 100.773 948.316 99.9297C947.613 99.0625 946.371 98.3125 944.59 97.6797C943.371 97.2578 940.594 96.5078 936.258 95.4297C930.68 94.0469 926.766 92.3477 924.516 90.332C921.352 87.4961 919.77 84.0391 919.77 79.9609C919.77 77.3359 920.508 74.8867 921.984 72.6133C923.484 70.3164 925.629 68.5703 928.418 67.375C931.23 66.1797 934.617 65.582 938.578 65.582C945.047 65.582 949.91 67 953.168 69.8359C956.449 72.6719 958.172 76.457 958.336 81.1914L947.93 81.6484C947.484 79 946.523 77.1016 945.047 75.9531C943.594 74.7812 941.402 74.1953 938.473 74.1953C935.449 74.1953 933.082 74.8164 931.371 76.0586C930.27 76.8555 929.719 77.9219 929.719 79.2578C929.719 80.4766 930.234 81.5195 931.266 82.3867C932.578 83.4883 935.766 84.6367 940.828 85.832C945.891 87.0273 949.629 88.2695 952.043 89.5586C954.48 90.8242 956.379 92.5703 957.738 94.7969C959.121 97 959.812 99.7305 959.812 102.988C959.812 105.941 958.992 108.707 957.352 111.285C955.711 113.863 953.391 115.785 950.391 117.051C947.391 118.293 943.652 118.914 939.176 118.914C932.66 118.914 927.656 117.414 924.164 114.414C920.672 111.391 918.586 106.996 917.906 101.23Z" fill="black"/>
<path d="M461.746 157V139.82H474.484V142.727H465.215V146.535H473.84V149.43H465.215V154.105H474.812V157H461.746ZM477.789 157V139.82H481.164L488.195 151.293V139.82H491.418V157H487.938L481.012 145.797V157H477.789ZM503.09 150.684V147.789H510.566V154.633C509.84 155.336 508.785 155.957 507.402 156.496C506.027 157.027 504.633 157.293 503.219 157.293C501.422 157.293 499.855 156.918 498.52 156.168C497.184 155.41 496.18 154.332 495.508 152.934C494.836 151.527 494.5 150 494.5 148.352C494.5 146.562 494.875 144.973 495.625 143.582C496.375 142.191 497.473 141.125 498.918 140.383C500.02 139.812 501.391 139.527 503.031 139.527C505.164 139.527 506.828 139.977 508.023 140.875C509.227 141.766 510 143 510.344 144.578L506.898 145.223C506.656 144.379 506.199 143.715 505.527 143.23C504.863 142.738 504.031 142.492 503.031 142.492C501.516 142.492 500.309 142.973 499.41 143.934C498.52 144.895 498.074 146.32 498.074 148.211C498.074 150.25 498.527 151.781 499.434 152.805C500.34 153.82 501.527 154.328 502.996 154.328C503.723 154.328 504.449 154.188 505.176 153.906C505.91 153.617 506.539 153.27 507.062 152.863V150.684H503.09ZM513.672 157V139.82H517.141V157H513.672ZM520.492 157V139.82H523.867L530.898 151.293V139.82H534.121V157H530.641L523.715 145.797V157H520.492ZM537.801 157V139.82H550.539V142.727H541.27V146.535H549.895V149.43H541.27V154.105H550.867V157H537.801ZM553.809 157V139.82H566.547V142.727H557.277V146.535H565.902V149.43H557.277V154.105H566.875V157H553.809ZM569.828 157V139.82H577.129C578.965 139.82 580.297 139.977 581.125 140.289C581.961 140.594 582.629 141.141 583.129 141.93C583.629 142.719 583.879 143.621 583.879 144.637C583.879 145.926 583.5 146.992 582.742 147.836C581.984 148.672 580.852 149.199 579.344 149.418C580.094 149.855 580.711 150.336 581.195 150.859C581.688 151.383 582.348 152.312 583.176 153.648L585.273 157H581.125L578.617 153.262C577.727 151.926 577.117 151.086 576.789 150.742C576.461 150.391 576.113 150.152 575.746 150.027C575.379 149.895 574.797 149.828 574 149.828H573.297V157H569.828ZM573.297 147.086H575.863C577.527 147.086 578.566 147.016 578.98 146.875C579.395 146.734 579.719 146.492 579.953 146.148C580.188 145.805 580.305 145.375 580.305 144.859C580.305 144.281 580.148 143.816 579.836 143.465C579.531 143.105 579.098 142.879 578.535 142.785C578.254 142.746 577.41 142.727 576.004 142.727H573.297V147.086ZM587.055 157V139.82H590.523V157H587.055ZM593.875 157V139.82H597.25L604.281 151.293V139.82H607.504V157H604.023L597.098 145.797V157H593.875ZM619.176 150.684V147.789H626.652V154.633C625.926 155.336 624.871 155.957 623.488 156.496C622.113 157.027 620.719 157.293 619.305 157.293C617.508 157.293 615.941 156.918 614.605 156.168C613.27 155.41 612.266 154.332 611.594 152.934C610.922 151.527 610.586 150 610.586 148.352C610.586 146.562 610.961 144.973 611.711 143.582C612.461 142.191 613.559 141.125 615.004 140.383C616.105 139.812 617.477 139.527 619.117 139.527C621.25 139.527 622.914 139.977 624.109 140.875C625.312 141.766 626.086 143 626.43 144.578L622.984 145.223C622.742 144.379 622.285 143.715 621.613 143.23C620.949 142.738 620.117 142.492 619.117 142.492C617.602 142.492 616.395 142.973 615.496 143.934C614.605 144.895 614.16 146.32 614.16 148.211C614.16 150.25 614.613 151.781 615.52 152.805C616.426 153.82 617.613 154.328 619.082 154.328C619.809 154.328 620.535 154.188 621.262 153.906C621.996 153.617 622.625 153.27 623.148 152.863V150.684H619.176Z" fill="white"/>
<path d="M636.746 157V139.82H642.312C644.422 139.82 645.797 139.906 646.438 140.078C647.422 140.336 648.246 140.898 648.91 141.766C649.574 142.625 649.906 143.738 649.906 145.105C649.906 146.16 649.715 147.047 649.332 147.766C648.949 148.484 648.461 149.051 647.867 149.465C647.281 149.871 646.684 150.141 646.074 150.273C645.246 150.438 644.047 150.52 642.477 150.52H640.215V157H636.746ZM640.215 142.727V147.602H642.113C643.48 147.602 644.395 147.512 644.855 147.332C645.316 147.152 645.676 146.871 645.934 146.488C646.199 146.105 646.332 145.66 646.332 145.152C646.332 144.527 646.148 144.012 645.781 143.605C645.414 143.199 644.949 142.945 644.387 142.844C643.973 142.766 643.141 142.727 641.891 142.727H640.215ZM652.766 157V139.82H656.234V146.582H663.031V139.82H666.5V157H663.031V149.488H656.234V157H652.766ZM674.609 157V149.77L668.316 139.82H672.383L676.426 146.617L680.387 139.82H684.383L678.066 149.793V157H674.609ZM685.227 151.41L688.602 151.082C688.805 152.215 689.215 153.047 689.832 153.578C690.457 154.109 691.297 154.375 692.352 154.375C693.469 154.375 694.309 154.141 694.871 153.672C695.441 153.195 695.727 152.641 695.727 152.008C695.727 151.602 695.605 151.258 695.363 150.977C695.129 150.688 694.715 150.438 694.121 150.227C693.715 150.086 692.789 149.836 691.344 149.477C689.484 149.016 688.18 148.449 687.43 147.777C686.375 146.832 685.848 145.68 685.848 144.32C685.848 143.445 686.094 142.629 686.586 141.871C687.086 141.105 687.801 140.523 688.73 140.125C689.668 139.727 690.797 139.527 692.117 139.527C694.273 139.527 695.895 140 696.98 140.945C698.074 141.891 698.648 143.152 698.703 144.73L695.234 144.883C695.086 144 694.766 143.367 694.273 142.984C693.789 142.594 693.059 142.398 692.082 142.398C691.074 142.398 690.285 142.605 689.715 143.02C689.348 143.285 689.164 143.641 689.164 144.086C689.164 144.492 689.336 144.84 689.68 145.129C690.117 145.496 691.18 145.879 692.867 146.277C694.555 146.676 695.801 147.09 696.605 147.52C697.418 147.941 698.051 148.523 698.504 149.266C698.965 150 699.195 150.91 699.195 151.996C699.195 152.98 698.922 153.902 698.375 154.762C697.828 155.621 697.055 156.262 696.055 156.684C695.055 157.098 693.809 157.305 692.316 157.305C690.145 157.305 688.477 156.805 687.312 155.805C686.148 154.797 685.453 153.332 685.227 151.41ZM702.008 157V139.82H705.477V157H702.008ZM719.785 150.684L723.148 151.75C722.633 153.625 721.773 155.02 720.57 155.934C719.375 156.84 717.855 157.293 716.012 157.293C713.73 157.293 711.855 156.516 710.387 154.961C708.918 153.398 708.184 151.266 708.184 148.562C708.184 145.703 708.922 143.484 710.398 141.906C711.875 140.32 713.816 139.527 716.223 139.527C718.324 139.527 720.031 140.148 721.344 141.391C722.125 142.125 722.711 143.18 723.102 144.555L719.668 145.375C719.465 144.484 719.039 143.781 718.391 143.266C717.75 142.75 716.969 142.492 716.047 142.492C714.773 142.492 713.738 142.949 712.941 143.863C712.152 144.777 711.758 146.258 711.758 148.305C711.758 150.477 712.148 152.023 712.93 152.945C713.711 153.867 714.727 154.328 715.977 154.328C716.898 154.328 717.691 154.035 718.355 153.449C719.02 152.863 719.496 151.941 719.785 150.684ZM741.629 157H737.855L736.355 153.098H729.488L728.07 157H724.391L731.082 139.82H734.75L741.629 157ZM735.242 150.203L732.875 143.828L730.555 150.203H735.242ZM743.574 157V139.961H747.043V154.105H755.668V157H743.574Z" fill="black"/>
<path d="M764.641 157V139.82H768.109V157H764.641ZM771.461 157V139.82H774.836L781.867 151.293V139.82H785.09V157H781.609L774.684 145.797V157H771.461ZM792.637 157V142.727H787.539V139.82H801.191V142.727H796.105V157H792.637ZM803.441 157V139.82H816.18V142.727H806.91V146.535H815.535V149.43H806.91V154.105H816.508V157H803.441ZM819.543 157V139.961H823.012V154.105H831.637V157H819.543ZM834.215 157V139.961H837.684V154.105H846.309V157H834.215ZM848.688 157V139.82H852.156V157H848.688ZM863.465 150.684V147.789H870.941V154.633C870.215 155.336 869.16 155.957 867.777 156.496C866.402 157.027 865.008 157.293 863.594 157.293C861.797 157.293 860.23 156.918 858.895 156.168C857.559 155.41 856.555 154.332 855.883 152.934C855.211 151.527 854.875 150 854.875 148.352C854.875 146.562 855.25 144.973 856 143.582C856.75 142.191 857.848 141.125 859.293 140.383C860.395 139.812 861.766 139.527 863.406 139.527C865.539 139.527 867.203 139.977 868.398 140.875C869.602 141.766 870.375 143 870.719 144.578L867.273 145.223C867.031 144.379 866.574 143.715 865.902 143.23C865.238 142.738 864.406 142.492 863.406 142.492C861.891 142.492 860.684 142.973 859.785 143.934C858.895 144.895 858.449 146.32 858.449 148.211C858.449 150.25 858.902 151.781 859.809 152.805C860.715 153.82 861.902 154.328 863.371 154.328C864.098 154.328 864.824 154.188 865.551 153.906C866.285 153.617 866.914 153.27 867.438 152.863V150.684H863.465ZM874.152 157V139.82H886.891V142.727H877.621V146.535H886.246V149.43H877.621V154.105H887.219V157H874.152ZM890.195 157V139.82H893.57L900.602 151.293V139.82H903.824V157H900.344L893.418 145.797V157H890.195ZM918.496 150.684L921.859 151.75C921.344 153.625 920.484 155.02 919.281 155.934C918.086 156.84 916.566 157.293 914.723 157.293C912.441 157.293 910.566 156.516 909.098 154.961C907.629 153.398 906.895 151.266 906.895 148.562C906.895 145.703 907.633 143.484 909.109 141.906C910.586 140.32 912.527 139.527 914.934 139.527C917.035 139.527 918.742 140.148 920.055 141.391C920.836 142.125 921.422 143.18 921.812 144.555L918.379 145.375C918.176 144.484 917.75 143.781 917.102 143.266C916.461 142.75 915.68 142.492 914.758 142.492C913.484 142.492 912.449 142.949 911.652 143.863C910.863 144.777 910.469 146.258 910.469 148.305C910.469 150.477 910.859 152.023 911.641 152.945C912.422 153.867 913.438 154.328 914.688 154.328C915.609 154.328 916.402 154.035 917.066 153.449C917.73 152.863 918.207 151.941 918.496 150.684ZM924.848 157V139.82H937.586V142.727H928.316V146.535H936.941V149.43H928.316V154.105H937.914V157H924.848Z" fill="black"/>
<path d="M422 181H976" stroke="black" stroke-width="2"/>
<path d="M96 31H226V69.3237H132.344V96.8382H207.129V134.179H132.344V162.676H226V201H96V31Z" fill="black"/>
<path d="M266 201H242V31H266V201ZM254 106C248.477 106 244 110.477 244 116C244 121.523 248.477 126 254 126C259.523 126 264 121.523 264 116C264 110.477 259.523 106 254 106Z" fill="black"/>
<path d="M266 171H242V163H266V171ZM266 69H242V61H266V69Z" fill="white"/>
<path d="M302 201H278V31H302V201ZM290 106C284.477 106 280 110.477 280 116C280 121.523 284.477 126 290 126C295.523 126 300 121.523 300 116C300 110.477 295.523 106 290 106Z" fill="black"/>
<path d="M302 171H278V163H302V171ZM302 69H278V61H302V69Z" fill="white"/>
</svg>
