<svg width="512" height="512" viewBox="0 0 512 512" fill="none" xmlns="http://www.w3.org/2000/svg">
<rect width="512" height="512" fill="#1E1E1E"/>
<g clip-path="url(#clip0_0_1)">
<rect width="512" height="512" rx="18" fill="#F8FAF9"/>
<path d="M400 48H112C76.6538 48 48 76.6538 48 112V400C48 435.346 76.6538 464 112 464H400C435.346 464 464 435.346 464 400V112C464 76.6538 435.346 48 400 48Z" stroke="#2B373D" stroke-width="8"/>
<path d="M134 153H284.52V184.561H176.081V207.22H262.67V237.971H176.081V261.439H284.52V293H134V153Z" fill="#0A0D10"/>
<path d="M299.086 153H327.41V293H299.086V153Z" fill="#32D69A"/>
<path d="M341.164 153H369.488V293H341.164V153Z" fill="#4CC9F0"/>
<path d="M299.086 180.515H369.491M299.086 265.486H369.491" stroke="#CBD5D8" stroke-width="8"/>
<path d="M313.247 231.497C317.94 231.497 321.744 227.693 321.744 223C321.744 218.307 317.94 214.503 313.247 214.503C308.554 214.503 304.75 218.307 304.75 223C304.75 227.693 308.554 231.497 313.247 231.497Z" fill="white"/>
<path d="M355.333 231.497C360.026 231.497 363.83 227.693 363.83 223C363.83 218.307 360.026 214.503 355.333 214.503C350.64 214.503 346.836 218.307 346.836 223C346.836 227.693 350.64 231.497 355.333 231.497Z" fill="white"/>
<path d="M126.619 336V310.23H145.727V314.59H131.822V320.303H144.76V324.645H131.822V331.658H146.219V336H126.619ZM149.312 327.615L154.375 327.123C154.68 328.822 155.295 330.07 156.221 330.867C157.158 331.664 158.418 332.062 160 332.062C161.676 332.062 162.936 331.711 163.779 331.008C164.635 330.293 165.062 329.461 165.062 328.512C165.062 327.902 164.881 327.387 164.518 326.965C164.166 326.531 163.545 326.156 162.654 325.84C162.045 325.629 160.656 325.254 158.488 324.715C155.699 324.023 153.742 323.174 152.617 322.166C151.035 320.748 150.244 319.02 150.244 316.98C150.244 315.668 150.613 314.443 151.352 313.307C152.102 312.158 153.174 311.285 154.568 310.688C155.975 310.09 157.668 309.791 159.648 309.791C162.883 309.791 165.314 310.5 166.943 311.918C168.584 313.336 169.445 315.229 169.527 317.596L164.324 317.824C164.102 316.5 163.621 315.551 162.883 314.977C162.156 314.391 161.061 314.098 159.596 314.098C158.084 314.098 156.9 314.408 156.045 315.029C155.494 315.428 155.219 315.961 155.219 316.629C155.219 317.238 155.477 317.76 155.992 318.193C156.648 318.744 158.242 319.318 160.773 319.916C163.305 320.514 165.174 321.135 166.381 321.779C167.6 322.412 168.549 323.285 169.229 324.398C169.92 325.5 170.266 326.865 170.266 328.494C170.266 329.971 169.855 331.354 169.035 332.643C168.215 333.932 167.055 334.893 165.555 335.525C164.055 336.146 162.186 336.457 159.947 336.457C156.689 336.457 154.188 335.707 152.441 334.207C150.695 332.695 149.652 330.498 149.312 327.615ZM180.443 336V314.59H172.797V310.23H193.275V314.59H185.646V336H180.443ZM196.668 336V310.23H201.871V320.373H212.066V310.23H217.27V336H212.066V324.732H201.871V336H196.668ZM222.508 336V310.23H227.711V336H222.508ZM232.686 336V310.23H251.793V314.59H237.889V320.303H250.826V324.645H237.889V331.658H252.285V336H232.686ZM256.75 336V310.23H261.812L272.359 327.439V310.23H277.193V336H271.973L261.584 319.195V336H256.75ZM292.873 336V310.441H298.076V331.658H311.014V336H292.873ZM337.979 336H332.318L330.068 330.146H319.768L317.641 336H312.121L322.158 310.23H327.66L337.979 336ZM328.398 325.805L324.848 316.242L321.367 325.805H328.398ZM340.773 310.23H351.074C353.113 310.23 354.631 310.318 355.627 310.494C356.635 310.658 357.531 311.01 358.316 311.549C359.113 312.088 359.775 312.809 360.303 313.711C360.83 314.602 361.094 315.604 361.094 316.717C361.094 317.924 360.766 319.031 360.109 320.039C359.465 321.047 358.586 321.803 357.473 322.307C359.043 322.764 360.25 323.543 361.094 324.645C361.938 325.746 362.359 327.041 362.359 328.529C362.359 329.701 362.084 330.844 361.533 331.957C360.994 333.059 360.25 333.943 359.301 334.611C358.363 335.268 357.203 335.672 355.82 335.824C354.953 335.918 352.861 335.977 349.545 336H340.773V310.23ZM345.977 314.52V320.479H349.387C351.414 320.479 352.674 320.449 353.166 320.391C354.057 320.285 354.754 319.98 355.258 319.477C355.773 318.961 356.031 318.287 356.031 317.455C356.031 316.658 355.809 316.014 355.363 315.521C354.93 315.018 354.279 314.713 353.412 314.607C352.896 314.549 351.414 314.52 348.965 314.52H345.977ZM345.977 324.768V331.658H350.793C352.668 331.658 353.857 331.605 354.361 331.5C355.135 331.359 355.762 331.02 356.242 330.48C356.734 329.93 356.98 329.197 356.98 328.283C356.98 327.51 356.793 326.854 356.418 326.314C356.043 325.775 355.498 325.383 354.783 325.137C354.08 324.891 352.545 324.768 350.178 324.768H345.977ZM365.453 327.615L370.516 327.123C370.82 328.822 371.436 330.07 372.361 330.867C373.299 331.664 374.559 332.062 376.141 332.062C377.816 332.062 379.076 331.711 379.92 331.008C380.775 330.293 381.203 329.461 381.203 328.512C381.203 327.902 381.021 327.387 380.658 326.965C380.307 326.531 379.686 326.156 378.795 325.84C378.186 325.629 376.797 325.254 374.629 324.715C371.84 324.023 369.883 323.174 368.758 322.166C367.176 320.748 366.385 319.02 366.385 316.98C366.385 315.668 366.754 314.443 367.492 313.307C368.242 312.158 369.314 311.285 370.709 310.688C372.115 310.09 373.809 309.791 375.789 309.791C379.023 309.791 381.455 310.5 383.084 311.918C384.725 313.336 385.586 315.229 385.668 317.596L380.465 317.824C380.242 316.5 379.762 315.551 379.023 314.977C378.297 314.391 377.201 314.098 375.736 314.098C374.225 314.098 373.041 314.408 372.186 315.029C371.635 315.428 371.359 315.961 371.359 316.629C371.359 317.238 371.617 317.76 372.133 318.193C372.789 318.744 374.383 319.318 376.914 319.916C379.445 320.514 381.314 321.135 382.521 321.779C383.74 322.412 384.689 323.285 385.369 324.398C386.061 325.5 386.406 326.865 386.406 328.494C386.406 329.971 385.996 331.354 385.176 332.643C384.355 333.932 383.195 334.893 381.695 335.525C380.195 336.146 378.326 336.457 376.088 336.457C372.83 336.457 370.328 335.707 368.582 334.207C366.836 332.695 365.793 330.498 365.453 327.615Z" fill="#0A0D10"/>
<path d="M160.946 356V346.694H167.846V348.269H162.825V350.332H167.497V351.899H162.825V354.432H168.023V356H160.946ZM169.636 356V346.694H171.464L175.272 352.909V346.694H177.018V356H175.133L171.381 349.932V356H169.636ZM183.34 352.579V351.011H187.39V354.718C186.997 355.099 186.425 355.435 185.676 355.727C184.931 356.015 184.176 356.159 183.41 356.159C182.437 356.159 181.588 355.956 180.865 355.549C180.141 355.139 179.597 354.555 179.233 353.797C178.869 353.036 178.688 352.208 178.688 351.315C178.688 350.346 178.891 349.485 179.297 348.732C179.703 347.979 180.298 347.401 181.081 346.999C181.677 346.69 182.42 346.536 183.309 346.536C184.464 346.536 185.365 346.779 186.013 347.266C186.664 347.748 187.083 348.417 187.27 349.271L185.403 349.621C185.272 349.164 185.025 348.804 184.661 348.542C184.301 348.275 183.85 348.142 183.309 348.142C182.488 348.142 181.834 348.402 181.347 348.922C180.865 349.443 180.624 350.215 180.624 351.239C180.624 352.344 180.869 353.173 181.36 353.728C181.851 354.278 182.494 354.553 183.29 354.553C183.683 354.553 184.077 354.477 184.47 354.324C184.868 354.168 185.209 353.979 185.492 353.759V352.579H183.34ZM189.072 356V346.694H190.951V356H189.072ZM192.767 356V346.694H194.595L198.403 352.909V346.694H200.149V356H198.264L194.512 349.932V356H192.767ZM202.142 356V346.694H209.042V348.269H204.021V350.332H208.693V351.899H204.021V354.432H209.22V356H202.142ZM210.813 356V346.694H217.713V348.269H212.692V350.332H217.364V351.899H212.692V354.432H217.891V356H210.813ZM219.49 356V346.694H223.445C224.439 346.694 225.161 346.779 225.609 346.948C226.062 347.113 226.424 347.41 226.695 347.837C226.966 348.264 227.101 348.753 227.101 349.303C227.101 350.001 226.896 350.579 226.485 351.036C226.075 351.489 225.461 351.775 224.645 351.893C225.051 352.13 225.385 352.39 225.647 352.674C225.914 352.957 226.272 353.461 226.72 354.185L227.856 356H225.609L224.251 353.975C223.769 353.251 223.438 352.797 223.261 352.61C223.083 352.42 222.895 352.291 222.696 352.223C222.497 352.151 222.182 352.115 221.75 352.115H221.369V356H219.49ZM221.369 350.63H222.759C223.661 350.63 224.223 350.592 224.448 350.516C224.672 350.439 224.848 350.308 224.975 350.122C225.102 349.936 225.165 349.703 225.165 349.424C225.165 349.111 225.08 348.859 224.911 348.668C224.746 348.474 224.511 348.351 224.207 348.3C224.054 348.279 223.597 348.269 222.835 348.269H221.369V350.63ZM228.821 356V346.694H230.7V356H228.821ZM232.516 356V346.694H234.344L238.152 352.909V346.694H239.898V356H238.013L234.261 349.932V356H232.516ZM246.22 352.579V351.011H250.27V354.718C249.876 355.099 249.305 355.435 248.556 355.727C247.811 356.015 247.056 356.159 246.29 356.159C245.317 356.159 244.468 355.956 243.745 355.549C243.021 355.139 242.477 354.555 242.113 353.797C241.749 353.036 241.567 352.208 241.567 351.315C241.567 350.346 241.771 349.485 242.177 348.732C242.583 347.979 243.178 347.401 243.96 346.999C244.557 346.69 245.3 346.536 246.188 346.536C247.344 346.536 248.245 346.779 248.893 347.266C249.544 347.748 249.963 348.417 250.149 349.271L248.283 349.621C248.152 349.164 247.904 348.804 247.541 348.542C247.181 348.275 246.73 348.142 246.188 348.142C245.368 348.142 244.714 348.402 244.227 348.922C243.745 349.443 243.503 350.215 243.503 351.239C243.503 352.344 243.749 353.173 244.24 353.728C244.731 354.278 245.374 354.553 246.169 354.553C246.563 354.553 246.957 354.477 247.35 354.324C247.748 354.168 248.089 353.979 248.372 353.759V352.579H246.22Z" fill="#4CC9F0"/>
<path d="M258.889 356V346.694H260.768V356H258.889ZM262.583 356V346.694H264.411L268.22 352.909V346.694H269.965V356H268.08L264.329 349.932V356H262.583ZM274.053 356V348.269H271.292V346.694H278.687V348.269H275.932V356H274.053ZM279.906 356V346.694H286.806V348.269H281.785V350.332H286.457V351.899H281.785V354.432H286.983V356H279.906ZM288.627 356V346.771H290.506V354.432H295.178V356H288.627ZM296.575 356V346.771H298.454V354.432H303.125V356H296.575ZM304.414 356V346.694H306.293V356H304.414ZM312.418 352.579V351.011H316.468V354.718C316.075 355.099 315.503 355.435 314.754 355.727C314.01 356.015 313.254 356.159 312.488 356.159C311.515 356.159 310.667 355.956 309.943 355.549C309.219 355.139 308.675 354.555 308.312 353.797C307.948 353.036 307.766 352.208 307.766 351.315C307.766 350.346 307.969 349.485 308.375 348.732C308.781 347.979 309.376 347.401 310.159 346.999C310.755 346.69 311.498 346.536 312.387 346.536C313.542 346.536 314.443 346.779 315.091 347.266C315.743 347.748 316.161 348.417 316.348 349.271L314.481 349.621C314.35 349.164 314.103 348.804 313.739 348.542C313.379 348.275 312.928 348.142 312.387 348.142C311.566 348.142 310.912 348.402 310.425 348.922C309.943 349.443 309.702 350.215 309.702 351.239C309.702 352.344 309.947 353.173 310.438 353.728C310.929 354.278 311.572 354.553 312.368 354.553C312.761 354.553 313.155 354.477 313.548 354.324C313.946 354.168 314.287 353.979 314.57 353.759V352.579H312.418ZM318.208 356V346.694H325.107V348.269H320.086V350.332H324.758V351.899H320.086V354.432H325.285V356H318.208ZM326.897 356V346.694H328.726L332.534 352.909V346.694H334.28V356H332.395L328.643 349.932V356H326.897ZM342.227 352.579L344.049 353.156C343.77 354.172 343.304 354.927 342.652 355.422C342.005 355.913 341.182 356.159 340.183 356.159C338.947 356.159 337.932 355.738 337.136 354.896C336.341 354.049 335.943 352.894 335.943 351.43C335.943 349.881 336.343 348.679 337.143 347.824C337.942 346.965 338.994 346.536 340.297 346.536C341.436 346.536 342.36 346.872 343.071 347.545C343.494 347.943 343.812 348.514 344.023 349.259L342.164 349.703C342.054 349.221 341.823 348.84 341.472 348.561C341.125 348.281 340.701 348.142 340.202 348.142C339.512 348.142 338.952 348.389 338.52 348.884C338.093 349.379 337.879 350.181 337.879 351.29C337.879 352.466 338.09 353.304 338.514 353.804C338.937 354.303 339.487 354.553 340.164 354.553C340.663 354.553 341.093 354.394 341.453 354.077C341.812 353.759 342.07 353.26 342.227 352.579ZM345.667 356V346.694H352.567V348.269H347.546V350.332H352.218V351.899H347.546V354.432H352.745V356H345.667Z" fill="#0A0D10"/>
</g>
<defs>
<clipPath id="clip0_0_1">
<rect width="512" height="512" fill="white"/>
</clipPath>
</defs>
</svg>
