<?xml version="1.0" encoding="UTF-8"?>
<svg width="1200" height="360" viewBox="0 0 1200 360" fill="none" xmlns="http://www.w3.org/2000/svg" role="img" aria-label="Esthien Labs horizontal logo">
  <title>Esthien Labs horizontal logo</title>
  <rect width="1200" height="360" fill="#1E1E1E"/>
  <rect width="1200" height="360" rx="28" fill="#0A0D10"/>
  <rect x="64" y="64" width="1072" height="232" rx="14" fill="#11181C" stroke="#CBD5D8" stroke-width="2"/>
  <g transform="translate(104 94) scale(1.802)">
    
  <path d="M13 18H26V78H13V18Z M26 18H52V31H26V18Z M26 41.5H48V54.5H26V41.5Z M26 65H52V78H26V65Z" fill="#F8FAF9"/>
  <path d="M59 18H69V78H59V18Z" fill="#32D69A"/>
  <path d="M74 18H84V78H74V18Z" fill="#4CC9F0"/>
  <path d="M59 31H84M59 65H84" stroke="#263239" stroke-width="4"/>
  <circle cx="64" cy="48" r="4.2" fill="#0A0D10"/>
  <circle cx="79" cy="48" r="4.2" fill="#0A0D10"/>
  </g>
  <text x="455" y="176" fill="#F8FAF9" font-family="Arial Black, Arial, Helvetica, sans-serif" font-size="60" font-weight="900" letter-spacing="0.5">ESTHIEN LABS</text>
  <text x="458" y="226" fill="#4CC9F0" font-family="Arial, Helvetica, sans-serif" font-size="23" font-weight="800" letter-spacing="3.2">CUSTOM SILICON FOR PHYSICAL INTELLIGENCE</text>
  <path d="M455 252H1008" stroke="#CBD5D8" stroke-width="2"/>
</svg>
