<svg width="512" height="512" viewBox="0 0 512 512" fill="none" xmlns="http://www.w3.org/2000/svg">
<rect width="512" height="512" fill="#0A0D10"/>
<path d="M400 48H112C76.6538 48 48 76.6538 48 112V400C48 435.346 76.6538 464 112 464H400C435.346 464 464 435.346 464 400V112C464 76.6538 435.346 48 400 48Z" fill="#11181C" stroke="#CBD5D8" stroke-width="8"/>
<path d="M91 112H289V177H157V218H264V279H157V335H289V400H91V112Z" fill="#F8FAF9"/>
<path d="M321 112H361V400H321V112Z" fill="#32D69A"/>
<path d="M381 112H421V400H381V112Z" fill="#4CC9F0"/>
<path d="M321 177H421M321 335H421" stroke="#263239" stroke-width="18"/>
<path d="M341 273C350.389 273 358 265.389 358 256C358 246.611 350.389 239 341 239C331.611 239 324 246.611 324 256C324 265.389 331.611 273 341 273Z" fill="#0A0D10"/>
<path d="M401 273C410.389 273 418 265.389 418 256C418 246.611 410.389 239 401 239C391.611 239 384 246.611 384 256C384 265.389 391.611 273 401 273Z" fill="#0A0D10"/>
</svg>
