<svg width="1072" height="232" viewBox="0 0 1072 232" fill="none" xmlns="http://www.w3.org/2000/svg">
<path d="M440.238 124V72.4609H478.453V81.1797H450.645V92.6055H476.52V101.289H450.645V115.316H479.438V124H440.238ZM485.625 107.23L495.75 106.246C496.359 109.645 497.59 112.141 499.441 113.734C501.316 115.328 503.836 116.125 507 116.125C510.352 116.125 512.871 115.422 514.559 114.016C516.27 112.586 517.125 110.922 517.125 109.023C517.125 107.805 516.762 106.773 516.035 105.93C515.332 105.062 514.09 104.312 512.309 103.68C511.09 103.258 508.312 102.508 503.977 101.43C498.398 100.047 494.484 98.3477 492.234 96.332C489.07 93.4961 487.488 90.0391 487.488 85.9609C487.488 83.3359 488.227 80.8867 489.703 78.6133C491.203 76.3164 493.348 74.5703 496.137 73.375C498.949 72.1797 502.336 71.582 506.297 71.582C512.766 71.582 517.629 73 520.887 75.8359C524.168 78.6719 525.891 82.457 526.055 87.1914L515.648 87.6484C515.203 85 514.242 83.1016 512.766 81.9531C511.312 80.7812 509.121 80.1953 506.191 80.1953C503.168 80.1953 500.801 80.8164 499.09 82.0586C497.988 82.8555 497.438 83.9219 497.438 85.2578C497.438 86.4766 497.953 87.5195 498.984 88.3867C500.297 89.4883 503.484 90.6367 508.547 91.832C513.609 93.0273 517.348 94.2695 519.762 95.5586C522.199 96.8242 524.098 98.5703 525.457 100.797C526.84 103 527.531 105.73 527.531 108.988C527.531 111.941 526.711 114.707 525.07 117.285C523.43 119.863 521.109 121.785 518.109 123.051C515.109 124.293 511.371 124.914 506.895 124.914C500.379 124.914 495.375 123.414 491.883 120.414C488.391 117.391 486.305 112.996 485.625 107.23ZM547.887 124V81.1797H532.594V72.4609H573.551V81.1797H558.293V124H547.887ZM580.336 124V72.4609H590.742V92.7461H611.133V72.4609H621.539V124H611.133V101.465H590.742V124H580.336ZM632.016 124V72.4609H642.422V124H632.016ZM652.371 124V72.4609H690.586V81.1797H662.777V92.6055H688.652V101.289H662.777V115.316H691.57V124H652.371ZM700.5 124V72.4609H710.625L731.719 106.879V72.4609H741.387V124H730.945L710.168 90.3906V124H700.5ZM772.746 124V72.8828H783.152V115.316H809.027V124H772.746ZM862.957 124H851.637L847.137 112.293H826.535L822.281 124H811.242L831.316 72.4609H842.32L862.957 124ZM843.797 103.609L836.695 84.4844L829.734 103.609H843.797ZM868.547 72.4609H889.148C893.227 72.4609 896.262 72.6367 898.254 72.9883C900.27 73.3164 902.062 74.0195 903.633 75.0977C905.227 76.1758 906.551 77.6172 907.605 79.4219C908.66 81.2031 909.188 83.207 909.188 85.4336C909.188 87.8477 908.531 90.0625 907.219 92.0781C905.93 94.0938 904.172 95.6055 901.945 96.6133C905.086 97.5273 907.5 99.0859 909.188 101.289C910.875 103.492 911.719 106.082 911.719 109.059C911.719 111.402 911.168 113.688 910.066 115.914C908.988 118.117 907.5 119.887 905.602 121.223C903.727 122.535 901.406 123.344 898.641 123.648C896.906 123.836 892.723 123.953 886.09 124H868.547V72.4609ZM878.953 81.0391V92.957H885.773C889.828 92.957 892.348 92.8984 893.332 92.7812C895.113 92.5703 896.508 91.9609 897.516 90.9531C898.547 89.9219 899.062 88.5742 899.062 86.9102C899.062 85.3164 898.617 84.0273 897.727 83.043C896.859 82.0352 895.559 81.4258 893.824 81.2148C892.793 81.0977 889.828 81.0391 884.93 81.0391H878.953ZM878.953 101.535V115.316H888.586C892.336 115.316 894.715 115.211 895.723 115C897.27 114.719 898.523 114.039 899.484 112.961C900.469 111.859 900.961 110.395 900.961 108.566C900.961 107.02 900.586 105.707 899.836 104.629C899.086 103.551 897.996 102.766 896.566 102.273C895.16 101.781 892.09 101.535 887.355 101.535H878.953ZM917.906 107.23L928.031 106.246C928.641 109.645 929.871 112.141 931.723 113.734C933.598 115.328 936.117 116.125 939.281 116.125C942.633 116.125 945.152 115.422 946.84 114.016C948.551 112.586 949.406 110.922 949.406 109.023C949.406 107.805 949.043 106.773 948.316 105.93C947.613 105.062 946.371 104.312 944.59 103.68C943.371 103.258 940.594 102.508 936.258 101.43C930.68 100.047 926.766 98.3477 924.516 96.332C921.352 93.4961 919.77 90.0391 919.77 85.9609C919.77 83.3359 920.508 80.8867 921.984 78.6133C923.484 76.3164 925.629 74.5703 928.418 73.375C931.23 72.1797 934.617 71.582 938.578 71.582C945.047 71.582 949.91 73 953.168 75.8359C956.449 78.6719 958.172 82.457 958.336 87.1914L947.93 87.6484C947.484 85 946.523 83.1016 945.047 81.9531C943.594 80.7812 941.402 80.1953 938.473 80.1953C935.449 80.1953 933.082 80.8164 931.371 82.0586C930.27 82.8555 929.719 83.9219 929.719 85.2578C929.719 86.4766 930.234 87.5195 931.266 88.3867C932.578 89.4883 935.766 90.6367 940.828 91.832C945.891 93.0273 949.629 94.2695 952.043 95.5586C954.48 96.8242 956.379 98.5703 957.738 100.797C959.121 103 959.812 105.73 959.812 108.988C959.812 111.941 958.992 114.707 957.352 117.285C955.711 119.863 953.391 121.785 950.391 123.051C947.391 124.293 943.652 124.914 939.176 124.914C932.66 124.914 927.656 123.414 924.164 120.414C920.672 117.391 918.586 112.996 917.906 107.23Z" fill="white"/>
<path d="M461.746 163V145.82H474.484V148.727H465.215V152.535H473.84V155.43H465.215V160.105H474.812V163H461.746ZM477.789 163V145.82H481.164L488.195 157.293V145.82H491.418V163H487.938L481.012 151.797V163H477.789ZM503.09 156.684V153.789H510.566V160.633C509.84 161.336 508.785 161.957 507.402 162.496C506.027 163.027 504.633 163.293 503.219 163.293C501.422 163.293 499.855 162.918 498.52 162.168C497.184 161.41 496.18 160.332 495.508 158.934C494.836 157.527 494.5 156 494.5 154.352C494.5 152.562 494.875 150.973 495.625 149.582C496.375 148.191 497.473 147.125 498.918 146.383C500.02 145.812 501.391 145.527 503.031 145.527C505.164 145.527 506.828 145.977 508.023 146.875C509.227 147.766 510 149 510.344 150.578L506.898 151.223C506.656 150.379 506.199 149.715 505.527 149.23C504.863 148.738 504.031 148.492 503.031 148.492C501.516 148.492 500.309 148.973 499.41 149.934C498.52 150.895 498.074 152.32 498.074 154.211C498.074 156.25 498.527 157.781 499.434 158.805C500.34 159.82 501.527 160.328 502.996 160.328C503.723 160.328 504.449 160.188 505.176 159.906C505.91 159.617 506.539 159.27 507.062 158.863V156.684H503.09ZM513.672 163V145.82H517.141V163H513.672ZM520.492 163V145.82H523.867L530.898 157.293V145.82H534.121V163H530.641L523.715 151.797V163H520.492ZM537.801 163V145.82H550.539V148.727H541.27V152.535H549.895V155.43H541.27V160.105H550.867V163H537.801ZM553.809 163V145.82H566.547V148.727H557.277V152.535H565.902V155.43H557.277V160.105H566.875V163H553.809ZM569.828 163V145.82H577.129C578.965 145.82 580.297 145.977 581.125 146.289C581.961 146.594 582.629 147.141 583.129 147.93C583.629 148.719 583.879 149.621 583.879 150.637C583.879 151.926 583.5 152.992 582.742 153.836C581.984 154.672 580.852 155.199 579.344 155.418C580.094 155.855 580.711 156.336 581.195 156.859C581.688 157.383 582.348 158.312 583.176 159.648L585.273 163H581.125L578.617 159.262C577.727 157.926 577.117 157.086 576.789 156.742C576.461 156.391 576.113 156.152 575.746 156.027C575.379 155.895 574.797 155.828 574 155.828H573.297V163H569.828ZM573.297 153.086H575.863C577.527 153.086 578.566 153.016 578.98 152.875C579.395 152.734 579.719 152.492 579.953 152.148C580.188 151.805 580.305 151.375 580.305 150.859C580.305 150.281 580.148 149.816 579.836 149.465C579.531 149.105 579.098 148.879 578.535 148.785C578.254 148.746 577.41 148.727 576.004 148.727H573.297V153.086ZM587.055 163V145.82H590.523V163H587.055ZM593.875 163V145.82H597.25L604.281 157.293V145.82H607.504V163H604.023L597.098 151.797V163H593.875ZM619.176 156.684V153.789H626.652V160.633C625.926 161.336 624.871 161.957 623.488 162.496C622.113 163.027 620.719 163.293 619.305 163.293C617.508 163.293 615.941 162.918 614.605 162.168C613.27 161.41 612.266 160.332 611.594 158.934C610.922 157.527 610.586 156 610.586 154.352C610.586 152.562 610.961 150.973 611.711 149.582C612.461 148.191 613.559 147.125 615.004 146.383C616.105 145.812 617.477 145.527 619.117 145.527C621.25 145.527 622.914 145.977 624.109 146.875C625.312 147.766 626.086 149 626.43 150.578L622.984 151.223C622.742 150.379 622.285 149.715 621.613 149.23C620.949 148.738 620.117 148.492 619.117 148.492C617.602 148.492 616.395 148.973 615.496 149.934C614.605 150.895 614.16 152.32 614.16 154.211C614.16 156.25 614.613 157.781 615.52 158.805C616.426 159.82 617.613 160.328 619.082 160.328C619.809 160.328 620.535 160.188 621.262 159.906C621.996 159.617 622.625 159.27 623.148 158.863V156.684H619.176Z" fill="black"/>
<path d="M636.746 163V145.82H642.312C644.422 145.82 645.797 145.906 646.438 146.078C647.422 146.336 648.246 146.898 648.91 147.766C649.574 148.625 649.906 149.738 649.906 151.105C649.906 152.16 649.715 153.047 649.332 153.766C648.949 154.484 648.461 155.051 647.867 155.465C647.281 155.871 646.684 156.141 646.074 156.273C645.246 156.438 644.047 156.52 642.477 156.52H640.215V163H636.746ZM640.215 148.727V153.602H642.113C643.48 153.602 644.395 153.512 644.855 153.332C645.316 153.152 645.676 152.871 645.934 152.488C646.199 152.105 646.332 151.66 646.332 151.152C646.332 150.527 646.148 150.012 645.781 149.605C645.414 149.199 644.949 148.945 644.387 148.844C643.973 148.766 643.141 148.727 641.891 148.727H640.215ZM652.766 163V145.82H656.234V152.582H663.031V145.82H666.5V163H663.031V155.488H656.234V163H652.766ZM674.609 163V155.77L668.316 145.82H672.383L676.426 152.617L680.387 145.82H684.383L678.066 155.793V163H674.609ZM685.227 157.41L688.602 157.082C688.805 158.215 689.215 159.047 689.832 159.578C690.457 160.109 691.297 160.375 692.352 160.375C693.469 160.375 694.309 160.141 694.871 159.672C695.441 159.195 695.727 158.641 695.727 158.008C695.727 157.602 695.605 157.258 695.363 156.977C695.129 156.688 694.715 156.438 694.121 156.227C693.715 156.086 692.789 155.836 691.344 155.477C689.484 155.016 688.18 154.449 687.43 153.777C686.375 152.832 685.848 151.68 685.848 150.32C685.848 149.445 686.094 148.629 686.586 147.871C687.086 147.105 687.801 146.523 688.73 146.125C689.668 145.727 690.797 145.527 692.117 145.527C694.273 145.527 695.895 146 696.98 146.945C698.074 147.891 698.648 149.152 698.703 150.73L695.234 150.883C695.086 150 694.766 149.367 694.273 148.984C693.789 148.594 693.059 148.398 692.082 148.398C691.074 148.398 690.285 148.605 689.715 149.02C689.348 149.285 689.164 149.641 689.164 150.086C689.164 150.492 689.336 150.84 689.68 151.129C690.117 151.496 691.18 151.879 692.867 152.277C694.555 152.676 695.801 153.09 696.605 153.52C697.418 153.941 698.051 154.523 698.504 155.266C698.965 156 699.195 156.91 699.195 157.996C699.195 158.98 698.922 159.902 698.375 160.762C697.828 161.621 697.055 162.262 696.055 162.684C695.055 163.098 693.809 163.305 692.316 163.305C690.145 163.305 688.477 162.805 687.312 161.805C686.148 160.797 685.453 159.332 685.227 157.41ZM702.008 163V145.82H705.477V163H702.008ZM719.785 156.684L723.148 157.75C722.633 159.625 721.773 161.02 720.57 161.934C719.375 162.84 717.855 163.293 716.012 163.293C713.73 163.293 711.855 162.516 710.387 160.961C708.918 159.398 708.184 157.266 708.184 154.562C708.184 151.703 708.922 149.484 710.398 147.906C711.875 146.32 713.816 145.527 716.223 145.527C718.324 145.527 720.031 146.148 721.344 147.391C722.125 148.125 722.711 149.18 723.102 150.555L719.668 151.375C719.465 150.484 719.039 149.781 718.391 149.266C717.75 148.75 716.969 148.492 716.047 148.492C714.773 148.492 713.738 148.949 712.941 149.863C712.152 150.777 711.758 152.258 711.758 154.305C711.758 156.477 712.148 158.023 712.93 158.945C713.711 159.867 714.727 160.328 715.977 160.328C716.898 160.328 717.691 160.035 718.355 159.449C719.02 158.863 719.496 157.941 719.785 156.684ZM741.629 163H737.855L736.355 159.098H729.488L728.07 163H724.391L731.082 145.82H734.75L741.629 163ZM735.242 156.203L732.875 149.828L730.555 156.203H735.242ZM743.574 163V145.961H747.043V160.105H755.668V163H743.574Z" fill="white"/>
<path d="M764.641 163V145.82H768.109V163H764.641ZM771.461 163V145.82H774.836L781.867 157.293V145.82H785.09V163H781.609L774.684 151.797V163H771.461ZM792.637 163V148.727H787.539V145.82H801.191V148.727H796.105V163H792.637ZM803.441 163V145.82H816.18V148.727H806.91V152.535H815.535V155.43H806.91V160.105H816.508V163H803.441ZM819.543 163V145.961H823.012V160.105H831.637V163H819.543ZM834.215 163V145.961H837.684V160.105H846.309V163H834.215ZM848.688 163V145.82H852.156V163H848.688ZM863.465 156.684V153.789H870.941V160.633C870.215 161.336 869.16 161.957 867.777 162.496C866.402 163.027 865.008 163.293 863.594 163.293C861.797 163.293 860.23 162.918 858.895 162.168C857.559 161.41 856.555 160.332 855.883 158.934C855.211 157.527 854.875 156 854.875 154.352C854.875 152.562 855.25 150.973 856 149.582C856.75 148.191 857.848 147.125 859.293 146.383C860.395 145.812 861.766 145.527 863.406 145.527C865.539 145.527 867.203 145.977 868.398 146.875C869.602 147.766 870.375 149 870.719 150.578L867.273 151.223C867.031 150.379 866.574 149.715 865.902 149.23C865.238 148.738 864.406 148.492 863.406 148.492C861.891 148.492 860.684 148.973 859.785 149.934C858.895 150.895 858.449 152.32 858.449 154.211C858.449 156.25 858.902 157.781 859.809 158.805C860.715 159.82 861.902 160.328 863.371 160.328C864.098 160.328 864.824 160.188 865.551 159.906C866.285 159.617 866.914 159.27 867.438 158.863V156.684H863.465ZM874.152 163V145.82H886.891V148.727H877.621V152.535H886.246V155.43H877.621V160.105H887.219V163H874.152ZM890.195 163V145.82H893.57L900.602 157.293V145.82H903.824V163H900.344L893.418 151.797V163H890.195ZM918.496 156.684L921.859 157.75C921.344 159.625 920.484 161.02 919.281 161.934C918.086 162.84 916.566 163.293 914.723 163.293C912.441 163.293 910.566 162.516 909.098 160.961C907.629 159.398 906.895 157.266 906.895 154.562C906.895 151.703 907.633 149.484 909.109 147.906C910.586 146.32 912.527 145.527 914.934 145.527C917.035 145.527 918.742 146.148 920.055 147.391C920.836 148.125 921.422 149.18 921.812 150.555L918.379 151.375C918.176 150.484 917.75 149.781 917.102 149.266C916.461 148.75 915.68 148.492 914.758 148.492C913.484 148.492 912.449 148.949 911.652 149.863C910.863 150.777 910.469 152.258 910.469 154.305C910.469 156.477 910.859 158.023 911.641 158.945C912.422 159.867 913.438 160.328 914.688 160.328C915.609 160.328 916.402 160.035 917.066 159.449C917.73 158.863 918.207 157.941 918.496 156.684ZM924.848 163V145.82H937.586V148.727H928.316V152.535H936.941V155.43H928.316V160.105H937.914V163H924.848Z" fill="white"/>
<path d="M423 187H976" stroke="white" stroke-width="2"/>
<path d="M97 31H227V69.3237H133.344V96.8382H208.129V134.179H133.344V162.676H227V201H97V31Z" fill="white"/>
<path d="M267 201H243V31H267V201ZM255 106C249.477 106 245 110.477 245 116C245 121.523 249.477 126 255 126C260.523 126 265 121.523 265 116C265 110.477 260.523 106 255 106Z" fill="white"/>
<path d="M267 171H243V163H267V171ZM267 69H243V61H267V69Z" fill="black"/>
<path d="M303 201H279V31H303V201ZM291 106C285.477 106 281 110.477 281 116C281 121.523 285.477 126 291 126C296.523 126 301 121.523 301 116C301 110.477 296.523 106 291 106Z" fill="white"/>
<path d="M303 171H279V163H303V171ZM303 69H279V61H303V69Z" fill="black"/>
</svg>
