<svg width="1200" height="360" viewBox="0 0 1200 360" fill="none" xmlns="http://www.w3.org/2000/svg">
<path d="M76 65.5H1124C1129.8 65.5 1134.5 70.201 1134.5 76V284C1134.5 289.799 1129.8 294.5 1124 294.5H76C70.201 294.5 65.5 289.799 65.5 284V76C65.5 70.201 70.201 65.5 76 65.5Z" stroke="black" stroke-width="3"/>
<path d="M104 94H290V133H156V161H263V199H156V228H290V267H104V94Z" fill="black"/>
<path d="M308 94H343V267H308V94ZM360 94H395V267H360V94Z" fill="black"/>
<path d="M308 128H395M308 233H395" stroke="white" stroke-width="8"/>
<path d="M325.5 191C331.299 191 336 186.299 336 180.5C336 174.701 331.299 170 325.5 170C319.701 170 315 174.701 315 180.5C315 186.299 319.701 191 325.5 191Z" fill="white"/>
<path d="M377.5 191C383.299 191 388 186.299 388 180.5C388 174.701 383.299 170 377.5 170C371.701 170 367 174.701 367 180.5C367 186.299 371.701 191 377.5 191Z" fill="white"/>
<path d="M474.238 181V129.461H512.453V138.18H484.645V149.605H510.52V158.289H484.645V172.316H513.438V181H474.238ZM519.625 164.23L529.75 163.246C530.359 166.645 531.59 169.141 533.441 170.734C535.316 172.328 537.836 173.125 541 173.125C544.352 173.125 546.871 172.422 548.559 171.016C550.27 169.586 551.125 167.922 551.125 166.023C551.125 164.805 550.762 163.773 550.035 162.93C549.332 162.062 548.09 161.312 546.309 160.68C545.09 160.258 542.312 159.508 537.977 158.43C532.398 157.047 528.484 155.348 526.234 153.332C523.07 150.496 521.488 147.039 521.488 142.961C521.488 140.336 522.227 137.887 523.703 135.613C525.203 133.316 527.348 131.57 530.137 130.375C532.949 129.18 536.336 128.582 540.297 128.582C546.766 128.582 551.629 130 554.887 132.836C558.168 135.672 559.891 139.457 560.055 144.191L549.648 144.648C549.203 142 548.242 140.102 546.766 138.953C545.312 137.781 543.121 137.195 540.191 137.195C537.168 137.195 534.801 137.816 533.09 139.059C531.988 139.855 531.438 140.922 531.438 142.258C531.438 143.477 531.953 144.52 532.984 145.387C534.297 146.488 537.484 147.637 542.547 148.832C547.609 150.027 551.348 151.27 553.762 152.559C556.199 153.824 558.098 155.57 559.457 157.797C560.84 160 561.531 162.73 561.531 165.988C561.531 168.941 560.711 171.707 559.07 174.285C557.43 176.863 555.109 178.785 552.109 180.051C549.109 181.293 545.371 181.914 540.895 181.914C534.379 181.914 529.375 180.414 525.883 177.414C522.391 174.391 520.305 169.996 519.625 164.23ZM581.887 181V138.18H566.594V129.461H607.551V138.18H592.293V181H581.887ZM614.336 181V129.461H624.742V149.746H645.133V129.461H655.539V181H645.133V158.465H624.742V181H614.336ZM666.016 181V129.461H676.422V181H666.016ZM686.371 181V129.461H724.586V138.18H696.777V149.605H722.652V158.289H696.777V172.316H725.57V181H686.371ZM734.5 181V129.461H744.625L765.719 163.879V129.461H775.387V181H764.945L744.168 147.391V181H734.5ZM806.746 181V129.883H817.152V172.316H843.027V181H806.746ZM896.957 181H885.637L881.137 169.293H860.535L856.281 181H845.242L865.316 129.461H876.32L896.957 181ZM877.797 160.609L870.695 141.484L863.734 160.609H877.797ZM902.547 129.461H923.148C927.227 129.461 930.262 129.637 932.254 129.988C934.27 130.316 936.062 131.02 937.633 132.098C939.227 133.176 940.551 134.617 941.605 136.422C942.66 138.203 943.188 140.207 943.188 142.434C943.188 144.848 942.531 147.062 941.219 149.078C939.93 151.094 938.172 152.605 935.945 153.613C939.086 154.527 941.5 156.086 943.188 158.289C944.875 160.492 945.719 163.082 945.719 166.059C945.719 168.402 945.168 170.688 944.066 172.914C942.988 175.117 941.5 176.887 939.602 178.223C937.727 179.535 935.406 180.344 932.641 180.648C930.906 180.836 926.723 180.953 920.09 181H902.547V129.461ZM912.953 138.039V149.957H919.773C923.828 149.957 926.348 149.898 927.332 149.781C929.113 149.57 930.508 148.961 931.516 147.953C932.547 146.922 933.062 145.574 933.062 143.91C933.062 142.316 932.617 141.027 931.727 140.043C930.859 139.035 929.559 138.426 927.824 138.215C926.793 138.098 923.828 138.039 918.93 138.039H912.953ZM912.953 158.535V172.316H922.586C926.336 172.316 928.715 172.211 929.723 172C931.27 171.719 932.523 171.039 933.484 169.961C934.469 168.859 934.961 167.395 934.961 165.566C934.961 164.02 934.586 162.707 933.836 161.629C933.086 160.551 931.996 159.766 930.566 159.273C929.16 158.781 926.09 158.535 921.355 158.535H912.953ZM951.906 164.23L962.031 163.246C962.641 166.645 963.871 169.141 965.723 170.734C967.598 172.328 970.117 173.125 973.281 173.125C976.633 173.125 979.152 172.422 980.84 171.016C982.551 169.586 983.406 167.922 983.406 166.023C983.406 164.805 983.043 163.773 982.316 162.93C981.613 162.062 980.371 161.312 978.59 160.68C977.371 160.258 974.594 159.508 970.258 158.43C964.68 157.047 960.766 155.348 958.516 153.332C955.352 150.496 953.77 147.039 953.77 142.961C953.77 140.336 954.508 137.887 955.984 135.613C957.484 133.316 959.629 131.57 962.418 130.375C965.23 129.18 968.617 128.582 972.578 128.582C979.047 128.582 983.91 130 987.168 132.836C990.449 135.672 992.172 139.457 992.336 144.191L981.93 144.648C981.484 142 980.523 140.102 979.047 138.953C977.594 137.781 975.402 137.195 972.473 137.195C969.449 137.195 967.082 137.816 965.371 139.059C964.27 139.855 963.719 140.922 963.719 142.258C963.719 143.477 964.234 144.52 965.266 145.387C966.578 146.488 969.766 147.637 974.828 148.832C979.891 150.027 983.629 151.27 986.043 152.559C988.48 153.824 990.379 155.57 991.738 157.797C993.121 160 993.812 162.73 993.812 165.988C993.812 168.941 992.992 171.707 991.352 174.285C989.711 176.863 987.391 178.785 984.391 180.051C981.391 181.293 977.652 181.914 973.176 181.914C966.66 181.914 961.656 180.414 958.164 177.414C954.672 174.391 952.586 169.996 951.906 164.23Z" fill="black"/>
<path d="M564.673 219V202.536H576.881V205.321H567.998V208.971H576.263V211.745H567.998V216.226H577.195V219H564.673ZM580.048 219V202.536H583.282L590.021 213.531V202.536H593.109V219H589.773L583.136 208.264V219H580.048ZM604.294 212.947V210.173H611.459V216.731C610.763 217.405 609.752 218 608.427 218.517C607.11 219.026 605.773 219.281 604.418 219.281C602.696 219.281 601.195 218.921 599.915 218.203C598.634 217.476 597.672 216.443 597.028 215.103C596.384 213.755 596.062 212.292 596.062 210.712C596.062 208.997 596.422 207.474 597.141 206.141C597.859 204.808 598.911 203.786 600.296 203.075C601.352 202.529 602.666 202.255 604.238 202.255C606.282 202.255 607.877 202.686 609.022 203.547C610.175 204.4 610.917 205.583 611.246 207.096L607.944 207.713C607.712 206.905 607.274 206.268 606.63 205.804C605.994 205.333 605.197 205.097 604.238 205.097C602.786 205.097 601.629 205.557 600.768 206.478C599.915 207.399 599.488 208.765 599.488 210.577C599.488 212.531 599.922 213.999 600.791 214.979C601.659 215.953 602.797 216.439 604.205 216.439C604.901 216.439 605.597 216.305 606.293 216.035C606.997 215.758 607.6 215.425 608.102 215.036V212.947H604.294ZM614.436 219V202.536H617.76V219H614.436ZM620.972 219V202.536H624.206L630.944 213.531V202.536H634.033V219H630.697L624.06 208.264V219H620.972ZM637.559 219V202.536H649.767V205.321H640.883V208.971H649.149V211.745H640.883V216.226H650.081V219H637.559ZM652.9 219V202.536H665.107V205.321H656.224V208.971H664.49V211.745H656.224V216.226H665.422V219H652.9ZM668.252 219V202.536H675.249C677.008 202.536 678.285 202.686 679.078 202.985C679.879 203.277 680.519 203.801 680.999 204.558C681.478 205.314 681.717 206.179 681.717 207.152C681.717 208.387 681.354 209.409 680.628 210.218C679.902 211.019 678.816 211.524 677.371 211.734C678.09 212.153 678.681 212.614 679.146 213.115C679.617 213.617 680.25 214.508 681.043 215.788L683.054 219H679.078L676.675 215.417C675.821 214.137 675.237 213.332 674.923 213.003C674.608 212.666 674.275 212.438 673.923 212.318C673.571 212.191 673.014 212.127 672.25 212.127H671.576V219H668.252ZM671.576 209.499H674.036C675.63 209.499 676.626 209.432 677.023 209.297C677.42 209.162 677.73 208.93 677.955 208.601C678.18 208.271 678.292 207.859 678.292 207.365C678.292 206.811 678.142 206.366 677.843 206.029C677.551 205.684 677.135 205.467 676.596 205.377C676.327 205.34 675.518 205.321 674.17 205.321H671.576V209.499ZM684.761 219V202.536H688.085V219H684.761ZM691.297 219V202.536H694.531L701.27 213.531V202.536H704.358V219H701.022L694.385 208.264V219H691.297ZM715.543 212.947V210.173H722.708V216.731C722.012 217.405 721.001 218 719.676 218.517C718.359 219.026 717.022 219.281 715.667 219.281C713.945 219.281 712.444 218.921 711.164 218.203C709.883 217.476 708.921 216.443 708.277 215.103C707.633 213.755 707.312 212.292 707.312 210.712C707.312 208.997 707.671 207.474 708.39 206.141C709.108 204.808 710.16 203.786 711.545 203.075C712.601 202.529 713.915 202.255 715.487 202.255C717.531 202.255 719.126 202.686 720.271 203.547C721.424 204.4 722.166 205.583 722.495 207.096L719.193 207.713C718.961 206.905 718.523 206.268 717.879 205.804C717.243 205.333 716.446 205.097 715.487 205.097C714.035 205.097 712.878 205.557 712.017 206.478C711.164 207.399 710.737 208.765 710.737 210.577C710.737 212.531 711.171 213.999 712.04 214.979C712.908 215.953 714.046 216.439 715.454 216.439C716.15 216.439 716.846 216.305 717.542 216.035C718.246 215.758 718.849 215.425 719.351 215.036V212.947H715.543Z" fill="white"/>
<path d="M736.572 219V202.536H739.896V219H736.572ZM743.108 219V202.536H746.343L753.081 213.531V202.536H756.169V219H752.834L746.197 208.264V219H743.108ZM763.402 219V205.321H758.517V202.536H771.6V205.321H766.726V219H763.402ZM773.756 219V202.536H785.964V205.321H777.081V208.971H785.346V211.745H777.081V216.226H786.278V219H773.756ZM789.187 219V202.671H792.511V216.226H800.777V219H789.187ZM803.248 219V202.671H806.572V216.226H814.837V219H803.248ZM817.117 219V202.536H820.441V219H817.117ZM831.279 212.947V210.173H838.444V216.731C837.748 217.405 836.737 218 835.412 218.517C834.094 219.026 832.757 219.281 831.402 219.281C829.68 219.281 828.179 218.921 826.899 218.203C825.619 217.476 824.657 216.443 824.013 215.103C823.369 213.755 823.047 212.292 823.047 210.712C823.047 208.997 823.406 207.474 824.125 206.141C824.844 204.808 825.896 203.786 827.281 203.075C828.336 202.529 829.65 202.255 831.223 202.255C833.267 202.255 834.861 202.686 836.007 203.547C837.16 204.4 837.901 205.583 838.23 207.096L834.929 207.713C834.697 206.905 834.259 206.268 833.615 205.804C832.978 205.333 832.181 205.097 831.223 205.097C829.77 205.097 828.613 205.557 827.752 206.478C826.899 207.399 826.472 208.765 826.472 210.577C826.472 212.531 826.906 213.999 827.775 214.979C828.643 215.953 829.781 216.439 831.189 216.439C831.885 216.439 832.582 216.305 833.278 216.035C833.982 215.758 834.584 215.425 835.086 215.036V212.947H831.279ZM841.521 219V202.536H853.729V205.321H844.845V208.971H853.111V211.745H844.845V216.226H854.043V219H841.521ZM856.896 219V202.536H860.13L866.868 213.531V202.536H869.957V219H866.621L859.984 208.264V219H856.896ZM884.017 212.947L887.24 213.969C886.746 215.766 885.923 217.102 884.77 217.978C883.624 218.847 882.168 219.281 880.401 219.281C878.215 219.281 876.418 218.536 875.01 217.046C873.603 215.549 872.899 213.505 872.899 210.914C872.899 208.174 873.606 206.048 875.021 204.535C876.437 203.015 878.297 202.255 880.603 202.255C882.617 202.255 884.253 202.851 885.511 204.041C886.259 204.745 886.821 205.756 887.195 207.073L883.905 207.859C883.71 207.006 883.302 206.332 882.681 205.838C882.067 205.344 881.318 205.097 880.435 205.097C879.214 205.097 878.222 205.535 877.458 206.411C876.702 207.287 876.324 208.705 876.324 210.667C876.324 212.748 876.699 214.231 877.447 215.114C878.196 215.998 879.169 216.439 880.367 216.439C881.251 216.439 882.011 216.159 882.647 215.597C883.283 215.036 883.74 214.152 884.017 212.947ZM890.104 219V202.536H902.312V205.321H893.428V208.971H901.694V211.745H893.428V216.226H902.626V219H890.104Z" fill="black"/>
<path d="M457 263H1010" stroke="black" stroke-width="2"/>
</svg>
