<?xml version="1.0" encoding="UTF-8"?>
<svg width="512" height="512" viewBox="0 0 512 512" fill="none" xmlns="http://www.w3.org/2000/svg" role="img" aria-label="Esthien Labs vertical logo">
  <title>Esthien Labs vertical logo</title>
  <rect width="512" height="512" fill="#1E1E1E"/>
  <rect width="512" height="512" rx="18" fill="#0A0D10"/>
  <rect x="48" y="48" width="416" height="416" rx="64" fill="#11181C" stroke="#CBD5D8" stroke-width="8"/>
  <g transform="translate(139 144) scale(1.46)">
    
  <path d="M13 18H26V78H13V18Z M26 18H52V31H26V18Z M26 41.5H48V54.5H26V41.5Z M26 65H52V78H26V65Z" fill="#F8FAF9"/>
  <path d="M59 18H69V78H59V18Z" fill="#32D69A"/>
  <path d="M74 18H84V78H74V18Z" fill="#4CC9F0"/>
  <path d="M59 31H84M59 65H84" stroke="#263239" stroke-width="4"/>
  <circle cx="64" cy="48" r="4.2" fill="#0A0D10"/>
  <circle cx="79" cy="48" r="4.2" fill="#0A0D10"/>
  </g>
  <text x="256" y="336" text-anchor="middle" fill="#F8FAF9" font-family="Arial Black, Arial, Helvetica, sans-serif" font-size="34" font-weight="900" letter-spacing="1.6">ESTHIEN LABS</text>
  <text x="256" y="358" text-anchor="middle" fill="#4CC9F0" font-family="Arial, Helvetica, sans-serif" font-size="10.8" font-weight="800" letter-spacing="1.7">CUSTOM SILICON FOR PHYSICAL INTELLIGENCE</text>
  <path d="M118 369H395" stroke="#CBD5D8" stroke-width="2"/>
</svg>
