<svg width="512" height="512" viewBox="0 0 512 512" fill="none" xmlns="http://www.w3.org/2000/svg">
<path d="M126.619 359V333.23H145.727V337.59H131.822V343.303H144.76V347.645H131.822V354.658H146.219V359H126.619ZM149.312 350.615L154.375 350.123C154.68 351.822 155.295 353.07 156.221 353.867C157.158 354.664 158.418 355.062 160 355.062C161.676 355.062 162.936 354.711 163.779 354.008C164.635 353.293 165.062 352.461 165.062 351.512C165.062 350.902 164.881 350.387 164.518 349.965C164.166 349.531 163.545 349.156 162.654 348.84C162.045 348.629 160.656 348.254 158.488 347.715C155.699 347.023 153.742 346.174 152.617 345.166C151.035 343.748 150.244 342.02 150.244 339.98C150.244 338.668 150.613 337.443 151.352 336.307C152.102 335.158 153.174 334.285 154.568 333.688C155.975 333.09 157.668 332.791 159.648 332.791C162.883 332.791 165.314 333.5 166.943 334.918C168.584 336.336 169.445 338.229 169.527 340.596L164.324 340.824C164.102 339.5 163.621 338.551 162.883 337.977C162.156 337.391 161.061 337.098 159.596 337.098C158.084 337.098 156.9 337.408 156.045 338.029C155.494 338.428 155.219 338.961 155.219 339.629C155.219 340.238 155.477 340.76 155.992 341.193C156.648 341.744 158.242 342.318 160.773 342.916C163.305 343.514 165.174 344.135 166.381 344.779C167.6 345.412 168.549 346.285 169.229 347.398C169.92 348.5 170.266 349.865 170.266 351.494C170.266 352.971 169.855 354.354 169.035 355.643C168.215 356.932 167.055 357.893 165.555 358.525C164.055 359.146 162.186 359.457 159.947 359.457C156.689 359.457 154.188 358.707 152.441 357.207C150.695 355.695 149.652 353.498 149.312 350.615ZM180.443 359V337.59H172.797V333.23H193.275V337.59H185.646V359H180.443ZM196.668 359V333.23H201.871V343.373H212.066V333.23H217.27V359H212.066V347.732H201.871V359H196.668ZM222.508 359V333.23H227.711V359H222.508ZM232.686 359V333.23H251.793V337.59H237.889V343.303H250.826V347.645H237.889V354.658H252.285V359H232.686ZM256.75 359V333.23H261.812L272.359 350.439V333.23H277.193V359H271.973L261.584 342.195V359H256.75ZM292.873 359V333.441H298.076V354.658H311.014V359H292.873ZM337.979 359H332.318L330.068 353.146H319.768L317.641 359H312.121L322.158 333.23H327.66L337.979 359ZM328.398 348.805L324.848 339.242L321.367 348.805H328.398ZM340.773 333.23H351.074C353.113 333.23 354.631 333.318 355.627 333.494C356.635 333.658 357.531 334.01 358.316 334.549C359.113 335.088 359.775 335.809 360.303 336.711C360.83 337.602 361.094 338.604 361.094 339.717C361.094 340.924 360.766 342.031 360.109 343.039C359.465 344.047 358.586 344.803 357.473 345.307C359.043 345.764 360.25 346.543 361.094 347.645C361.938 348.746 362.359 350.041 362.359 351.529C362.359 352.701 362.084 353.844 361.533 354.957C360.994 356.059 360.25 356.943 359.301 357.611C358.363 358.268 357.203 358.672 355.82 358.824C354.953 358.918 352.861 358.977 349.545 359H340.773V333.23ZM345.977 337.52V343.479H349.387C351.414 343.479 352.674 343.449 353.166 343.391C354.057 343.285 354.754 342.98 355.258 342.477C355.773 341.961 356.031 341.287 356.031 340.455C356.031 339.658 355.809 339.014 355.363 338.521C354.93 338.018 354.279 337.713 353.412 337.607C352.896 337.549 351.414 337.52 348.965 337.52H345.977ZM345.977 347.768V354.658H350.793C352.668 354.658 353.857 354.605 354.361 354.5C355.135 354.359 355.762 354.02 356.242 353.48C356.734 352.93 356.98 352.197 356.98 351.283C356.98 350.51 356.793 349.854 356.418 349.314C356.043 348.775 355.498 348.383 354.783 348.137C354.08 347.891 352.545 347.768 350.178 347.768H345.977ZM365.453 350.615L370.516 350.123C370.82 351.822 371.436 353.07 372.361 353.867C373.299 354.664 374.559 355.062 376.141 355.062C377.816 355.062 379.076 354.711 379.92 354.008C380.775 353.293 381.203 352.461 381.203 351.512C381.203 350.902 381.021 350.387 380.658 349.965C380.307 349.531 379.686 349.156 378.795 348.84C378.186 348.629 376.797 348.254 374.629 347.715C371.84 347.023 369.883 346.174 368.758 345.166C367.176 343.748 366.385 342.02 366.385 339.98C366.385 338.668 366.754 337.443 367.492 336.307C368.242 335.158 369.314 334.285 370.709 333.688C372.115 333.09 373.809 332.791 375.789 332.791C379.023 332.791 381.455 333.5 383.084 334.918C384.725 336.336 385.586 338.229 385.668 340.596L380.465 340.824C380.242 339.5 379.762 338.551 379.023 337.977C378.297 337.391 377.201 337.098 375.736 337.098C374.225 337.098 373.041 337.408 372.186 338.029C371.635 338.428 371.359 338.961 371.359 339.629C371.359 340.238 371.617 340.76 372.133 341.193C372.789 341.744 374.383 342.318 376.914 342.916C379.445 343.514 381.314 344.135 382.521 344.779C383.74 345.412 384.689 346.285 385.369 347.398C386.061 348.5 386.406 349.865 386.406 351.494C386.406 352.971 385.996 354.354 385.176 355.643C384.355 356.932 383.195 357.893 381.695 358.525C380.195 359.146 378.326 359.457 376.088 359.457C372.83 359.457 370.328 358.707 368.582 357.207C366.836 355.695 365.793 353.498 365.453 350.615Z" fill="#0A0D10"/>
<path d="M136.873 378V369.41H143.242V370.863H138.607V372.768H142.92V374.215H138.607V376.553H143.406V378H136.873ZM144.895 378V369.41H146.582L150.098 375.146V369.41H151.709V378H149.969L146.506 372.398V378H144.895ZM157.545 374.842V373.395H161.283V376.816C160.92 377.168 160.393 377.479 159.701 377.748C159.014 378.014 158.316 378.146 157.609 378.146C156.711 378.146 155.928 377.959 155.26 377.584C154.592 377.205 154.09 376.666 153.754 375.967C153.418 375.264 153.25 374.5 153.25 373.676C153.25 372.781 153.438 371.986 153.812 371.291C154.188 370.596 154.736 370.062 155.459 369.691C156.01 369.406 156.695 369.264 157.516 369.264C158.582 369.264 159.414 369.488 160.012 369.938C160.613 370.383 161 371 161.172 371.789L159.449 372.111C159.328 371.689 159.1 371.357 158.764 371.115C158.432 370.869 158.016 370.746 157.516 370.746C156.758 370.746 156.154 370.986 155.705 371.467C155.26 371.947 155.037 372.66 155.037 373.605C155.037 374.625 155.264 375.391 155.717 375.902C156.17 376.41 156.764 376.664 157.498 376.664C157.861 376.664 158.225 376.594 158.588 376.453C158.955 376.309 159.27 376.135 159.531 375.932V374.842H157.545ZM162.836 378V369.41H164.57V378H162.836ZM166.246 378V369.41H167.934L171.449 375.146V369.41H173.061V378H171.32L167.857 372.398V378H166.246ZM174.9 378V369.41H181.27V370.863H176.635V372.768H180.947V374.215H176.635V376.553H181.434V378H174.9ZM182.904 378V369.41H189.273V370.863H184.639V372.768H188.951V374.215H184.639V376.553H189.438V378H182.904ZM190.914 378V369.41H194.564C195.482 369.41 196.148 369.488 196.562 369.645C196.98 369.797 197.314 370.07 197.564 370.465C197.814 370.859 197.939 371.311 197.939 371.818C197.939 372.463 197.75 372.996 197.371 373.418C196.992 373.836 196.426 374.1 195.672 374.209C196.047 374.428 196.355 374.668 196.598 374.93C196.844 375.191 197.174 375.656 197.588 376.324L198.637 378H196.562L195.309 376.131C194.863 375.463 194.559 375.043 194.395 374.871C194.23 374.695 194.057 374.576 193.873 374.514C193.689 374.447 193.398 374.414 193 374.414H192.648V378H190.914ZM192.648 373.043H193.932C194.764 373.043 195.283 373.008 195.49 372.938C195.697 372.867 195.859 372.746 195.977 372.574C196.094 372.402 196.152 372.188 196.152 371.93C196.152 371.641 196.074 371.408 195.918 371.232C195.766 371.053 195.549 370.939 195.268 370.893C195.127 370.873 194.705 370.863 194.002 370.863H192.648V373.043ZM199.527 378V369.41H201.262V378H199.527ZM202.938 378V369.41H204.625L208.141 375.146V369.41H209.752V378H208.012L204.549 372.398V378H202.938ZM215.588 374.842V373.395H219.326V376.816C218.963 377.168 218.436 377.479 217.744 377.748C217.057 378.014 216.359 378.146 215.652 378.146C214.754 378.146 213.971 377.959 213.303 377.584C212.635 377.205 212.133 376.666 211.797 375.967C211.461 375.264 211.293 374.5 211.293 373.676C211.293 372.781 211.48 371.986 211.855 371.291C212.23 370.596 212.779 370.062 213.502 369.691C214.053 369.406 214.738 369.264 215.559 369.264C216.625 369.264 217.457 369.488 218.055 369.938C218.656 370.383 219.043 371 219.215 371.789L217.492 372.111C217.371 371.689 217.143 371.357 216.807 371.115C216.475 370.869 216.059 370.746 215.559 370.746C214.801 370.746 214.197 370.986 213.748 371.467C213.303 371.947 213.08 372.66 213.08 373.605C213.08 374.625 213.307 375.391 213.76 375.902C214.213 376.41 214.807 376.664 215.541 376.664C215.904 376.664 216.268 376.594 216.631 376.453C216.998 376.309 217.312 376.135 217.574 375.932V374.842H215.588Z" fill="#4CC9F0"/>
<path d="M224.873 378V369.41H227.656C228.711 369.41 229.398 369.453 229.719 369.539C230.211 369.668 230.623 369.949 230.955 370.383C231.287 370.812 231.453 371.369 231.453 372.053C231.453 372.58 231.357 373.023 231.166 373.383C230.975 373.742 230.73 374.025 230.434 374.232C230.141 374.436 229.842 374.57 229.537 374.637C229.123 374.719 228.523 374.76 227.738 374.76H226.607V378H224.873ZM226.607 370.863V373.301H227.557C228.24 373.301 228.697 373.256 228.928 373.166C229.158 373.076 229.338 372.936 229.467 372.744C229.6 372.553 229.666 372.33 229.666 372.076C229.666 371.764 229.574 371.506 229.391 371.303C229.207 371.1 228.975 370.973 228.693 370.922C228.486 370.883 228.07 370.863 227.445 370.863H226.607ZM232.883 378V369.41H234.617V372.791H238.016V369.41H239.75V378H238.016V374.244H234.617V378H232.883ZM243.805 378V374.385L240.658 369.41H242.691L244.713 372.809L246.693 369.41H248.691L245.533 374.396V378H243.805ZM249.113 375.205L250.801 375.041C250.902 375.607 251.107 376.023 251.416 376.289C251.729 376.555 252.148 376.688 252.676 376.688C253.234 376.688 253.654 376.57 253.936 376.336C254.221 376.098 254.363 375.82 254.363 375.504C254.363 375.301 254.303 375.129 254.182 374.988C254.064 374.844 253.857 374.719 253.561 374.613C253.357 374.543 252.895 374.418 252.172 374.238C251.242 374.008 250.59 373.725 250.215 373.389C249.688 372.916 249.424 372.34 249.424 371.66C249.424 371.223 249.547 370.814 249.793 370.436C250.043 370.053 250.4 369.762 250.865 369.562C251.334 369.363 251.898 369.264 252.559 369.264C253.637 369.264 254.447 369.5 254.99 369.973C255.537 370.445 255.824 371.076 255.852 371.865L254.117 371.941C254.043 371.5 253.883 371.184 253.637 370.992C253.395 370.797 253.029 370.699 252.541 370.699C252.037 370.699 251.643 370.803 251.357 371.01C251.174 371.143 251.082 371.32 251.082 371.543C251.082 371.746 251.168 371.92 251.34 372.064C251.559 372.248 252.09 372.439 252.934 372.639C253.777 372.838 254.4 373.045 254.803 373.26C255.209 373.471 255.525 373.762 255.752 374.133C255.982 374.5 256.098 374.955 256.098 375.498C256.098 375.99 255.961 376.451 255.688 376.881C255.414 377.311 255.027 377.631 254.527 377.842C254.027 378.049 253.404 378.152 252.658 378.152C251.572 378.152 250.738 377.902 250.156 377.402C249.574 376.898 249.227 376.166 249.113 375.205ZM257.504 378V369.41H259.238V378H257.504ZM266.393 374.842L268.074 375.375C267.816 376.312 267.387 377.01 266.785 377.467C266.188 377.92 265.428 378.146 264.506 378.146C263.365 378.146 262.428 377.758 261.693 376.98C260.959 376.199 260.592 375.133 260.592 373.781C260.592 372.352 260.961 371.242 261.699 370.453C262.438 369.66 263.408 369.264 264.611 369.264C265.662 369.264 266.516 369.574 267.172 370.195C267.562 370.562 267.855 371.09 268.051 371.777L266.334 372.188C266.232 371.742 266.02 371.391 265.695 371.133C265.375 370.875 264.984 370.746 264.523 370.746C263.887 370.746 263.369 370.975 262.971 371.432C262.576 371.889 262.379 372.629 262.379 373.652C262.379 374.738 262.574 375.512 262.965 375.973C263.355 376.434 263.863 376.664 264.488 376.664C264.949 376.664 265.346 376.518 265.678 376.225C266.01 375.932 266.248 375.471 266.393 374.842ZM277.314 378H275.428L274.678 376.049H271.244L270.535 378H268.695L272.041 369.41H273.875L277.314 378ZM274.121 374.602L272.938 371.414L271.777 374.602H274.121ZM278.287 378V369.48H280.021V376.553H284.334V378H278.287Z" fill="#0A0D10"/>
<path d="M288.82 378V369.41H290.555V378H288.82ZM292.23 378V369.41H293.918L297.434 375.146V369.41H299.045V378H297.305L293.842 372.398V378H292.23ZM302.818 378V370.863H300.27V369.41H307.096V370.863H304.553V378H302.818ZM308.221 378V369.41H314.59V370.863H309.955V372.768H314.268V374.215H309.955V376.553H314.754V378H308.221ZM316.271 378V369.48H318.006V376.553H322.318V378H316.271ZM323.607 378V369.48H325.342V376.553H329.654V378H323.607ZM330.844 378V369.41H332.578V378H330.844ZM338.232 374.842V373.395H341.971V376.816C341.607 377.168 341.08 377.479 340.389 377.748C339.701 378.014 339.004 378.146 338.297 378.146C337.398 378.146 336.615 377.959 335.947 377.584C335.279 377.205 334.777 376.666 334.441 375.967C334.105 375.264 333.938 374.5 333.938 373.676C333.938 372.781 334.125 371.986 334.5 371.291C334.875 370.596 335.424 370.062 336.146 369.691C336.697 369.406 337.383 369.264 338.203 369.264C339.27 369.264 340.102 369.488 340.699 369.938C341.301 370.383 341.688 371 341.859 371.789L340.137 372.111C340.016 371.689 339.787 371.357 339.451 371.115C339.119 370.869 338.703 370.746 338.203 370.746C337.445 370.746 336.842 370.986 336.393 371.467C335.947 371.947 335.725 372.66 335.725 373.605C335.725 374.625 335.951 375.391 336.404 375.902C336.857 376.41 337.451 376.664 338.186 376.664C338.549 376.664 338.912 376.594 339.275 376.453C339.643 376.309 339.957 376.135 340.219 375.932V374.842H338.232ZM343.576 378V369.41H349.945V370.863H345.311V372.768H349.623V374.215H345.311V376.553H350.109V378H343.576ZM351.598 378V369.41H353.285L356.801 375.146V369.41H358.412V378H356.672L353.209 372.398V378H351.598ZM365.748 374.842L367.43 375.375C367.172 376.312 366.742 377.01 366.141 377.467C365.543 377.92 364.783 378.146 363.861 378.146C362.721 378.146 361.783 377.758 361.049 376.98C360.314 376.199 359.947 375.133 359.947 373.781C359.947 372.352 360.316 371.242 361.055 370.453C361.793 369.66 362.764 369.264 363.967 369.264C365.018 369.264 365.871 369.574 366.527 370.195C366.918 370.562 367.211 371.09 367.406 371.777L365.689 372.188C365.588 371.742 365.375 371.391 365.051 371.133C364.73 370.875 364.34 370.746 363.879 370.746C363.242 370.746 362.725 370.975 362.326 371.432C361.932 371.889 361.734 372.629 361.734 373.652C361.734 374.738 361.93 375.512 362.32 375.973C362.711 376.434 363.219 376.664 363.844 376.664C364.305 376.664 364.701 376.518 365.033 376.225C365.365 375.932 365.604 375.471 365.748 374.842ZM368.924 378V369.41H375.293V370.863H370.658V372.768H374.971V374.215H370.658V376.553H375.457V378H368.924Z" fill="#0A0D10"/>
<path d="M147 132H284.573V172.578H185.461V201.711H264.603V241.249H185.461V271.422H284.573V312H147V132Z" fill="#0A0D10"/>
<path d="M326.903 312H301.505V132H326.903V312ZM314.204 211.417C308.36 211.417 303.621 216.155 303.621 222C303.621 227.845 308.36 232.583 314.204 232.583C320.049 232.583 324.786 227.845 324.786 222C324.786 216.155 320.049 211.417 314.204 211.417Z" fill="#32D69A"/>
<path d="M326.903 280.236H301.505V271.765H326.903V280.236ZM326.903 172.236H301.505V163.765H326.903V172.236Z" fill="#263239"/>
<path d="M365 312H339.602V132H365V312ZM352.301 211.417C346.456 211.417 341.718 216.155 341.718 222C341.718 227.845 346.456 232.583 352.301 232.583C358.145 232.583 362.883 227.845 362.883 222C362.883 216.155 358.145 211.417 352.301 211.417Z" fill="#4CC9F0"/>
<path d="M365 280.236H339.602V271.765H365V280.236ZM365 172.236H339.602V163.765H365V172.236Z" fill="#263239"/>
</svg>
