<svg width="1200" height="360" viewBox="0 0 1200 360" fill="none" xmlns="http://www.w3.org/2000/svg">
<g clip-path="url(#clip0_2004_103)">
<path d="M1172 0H28C12.536 0 0 12.536 0 28V332C0 347.464 12.536 360 28 360H1172C1187.46 360 1200 347.464 1200 332V28C1200 12.536 1187.46 0 1172 0Z" fill="#F8FAF9"/>
<path d="M1122 64H78C70.268 64 64 70.268 64 78V282C64 289.732 70.268 296 78 296H1122C1129.73 296 1136 289.732 1136 282V78C1136 70.268 1129.73 64 1122 64Z" fill="white" stroke="#2B373D" stroke-width="2"/>
<path d="M504.238 181V129.461H542.453V138.18H514.645V149.605H540.52V158.289H514.645V172.316H543.438V181H504.238ZM549.625 164.23L559.75 163.246C560.359 166.645 561.59 169.141 563.441 170.734C565.316 172.328 567.836 173.125 571 173.125C574.352 173.125 576.871 172.422 578.559 171.016C580.27 169.586 581.125 167.922 581.125 166.023C581.125 164.805 580.762 163.773 580.035 162.93C579.332 162.062 578.09 161.312 576.309 160.68C575.09 160.258 572.312 159.508 567.977 158.43C562.398 157.047 558.484 155.348 556.234 153.332C553.07 150.496 551.488 147.039 551.488 142.961C551.488 140.336 552.227 137.887 553.703 135.613C555.203 133.316 557.348 131.57 560.137 130.375C562.949 129.18 566.336 128.582 570.297 128.582C576.766 128.582 581.629 130 584.887 132.836C588.168 135.672 589.891 139.457 590.055 144.191L579.648 144.648C579.203 142 578.242 140.102 576.766 138.953C575.312 137.781 573.121 137.195 570.191 137.195C567.168 137.195 564.801 137.816 563.09 139.059C561.988 139.855 561.438 140.922 561.438 142.258C561.438 143.477 561.953 144.52 562.984 145.387C564.297 146.488 567.484 147.637 572.547 148.832C577.609 150.027 581.348 151.27 583.762 152.559C586.199 153.824 588.098 155.57 589.457 157.797C590.84 160 591.531 162.73 591.531 165.988C591.531 168.941 590.711 171.707 589.07 174.285C587.43 176.863 585.109 178.785 582.109 180.051C579.109 181.293 575.371 181.914 570.895 181.914C564.379 181.914 559.375 180.414 555.883 177.414C552.391 174.391 550.305 169.996 549.625 164.23ZM611.887 181V138.18H596.594V129.461H637.551V138.18H622.293V181H611.887ZM644.336 181V129.461H654.742V149.746H675.133V129.461H685.539V181H675.133V158.465H654.742V181H644.336ZM696.016 181V129.461H706.422V181H696.016ZM716.371 181V129.461H754.586V138.18H726.777V149.605H752.652V158.289H726.777V172.316H755.57V181H716.371ZM764.5 181V129.461H774.625L795.719 163.879V129.461H805.387V181H794.945L774.168 147.391V181H764.5ZM836.746 181V129.883H847.152V172.316H873.027V181H836.746ZM926.957 181H915.637L911.137 169.293H890.535L886.281 181H875.242L895.316 129.461H906.32L926.957 181ZM907.797 160.609L900.695 141.484L893.734 160.609H907.797ZM932.547 129.461H953.148C957.227 129.461 960.262 129.637 962.254 129.988C964.27 130.316 966.062 131.02 967.633 132.098C969.227 133.176 970.551 134.617 971.605 136.422C972.66 138.203 973.188 140.207 973.188 142.434C973.188 144.848 972.531 147.062 971.219 149.078C969.93 151.094 968.172 152.605 965.945 153.613C969.086 154.527 971.5 156.086 973.188 158.289C974.875 160.492 975.719 163.082 975.719 166.059C975.719 168.402 975.168 170.688 974.066 172.914C972.988 175.117 971.5 176.887 969.602 178.223C967.727 179.535 965.406 180.344 962.641 180.648C960.906 180.836 956.723 180.953 950.09 181H932.547V129.461ZM942.953 138.039V149.957H949.773C953.828 149.957 956.348 149.898 957.332 149.781C959.113 149.57 960.508 148.961 961.516 147.953C962.547 146.922 963.062 145.574 963.062 143.91C963.062 142.316 962.617 141.027 961.727 140.043C960.859 139.035 959.559 138.426 957.824 138.215C956.793 138.098 953.828 138.039 948.93 138.039H942.953ZM942.953 158.535V172.316H952.586C956.336 172.316 958.715 172.211 959.723 172C961.27 171.719 962.523 171.039 963.484 169.961C964.469 168.859 964.961 167.395 964.961 165.566C964.961 164.02 964.586 162.707 963.836 161.629C963.086 160.551 961.996 159.766 960.566 159.273C959.16 158.781 956.09 158.535 951.355 158.535H942.953ZM981.906 164.23L992.031 163.246C992.641 166.645 993.871 169.141 995.723 170.734C997.598 172.328 1000.12 173.125 1003.28 173.125C1006.63 173.125 1009.15 172.422 1010.84 171.016C1012.55 169.586 1013.41 167.922 1013.41 166.023C1013.41 164.805 1013.04 163.773 1012.32 162.93C1011.61 162.062 1010.37 161.312 1008.59 160.68C1007.37 160.258 1004.59 159.508 1000.26 158.43C994.68 157.047 990.766 155.348 988.516 153.332C985.352 150.496 983.77 147.039 983.77 142.961C983.77 140.336 984.508 137.887 985.984 135.613C987.484 133.316 989.629 131.57 992.418 130.375C995.23 129.18 998.617 128.582 1002.58 128.582C1009.05 128.582 1013.91 130 1017.17 132.836C1020.45 135.672 1022.17 139.457 1022.34 144.191L1011.93 144.648C1011.48 142 1010.52 140.102 1009.05 138.953C1007.59 137.781 1005.4 137.195 1002.47 137.195C999.449 137.195 997.082 137.816 995.371 139.059C994.27 139.855 993.719 140.922 993.719 142.258C993.719 143.477 994.234 144.52 995.266 145.387C996.578 146.488 999.766 147.637 1004.83 148.832C1009.89 150.027 1013.63 151.27 1016.04 152.559C1018.48 153.824 1020.38 155.57 1021.74 157.797C1023.12 160 1023.81 162.73 1023.81 165.988C1023.81 168.941 1022.99 171.707 1021.35 174.285C1019.71 176.863 1017.39 178.785 1014.39 180.051C1011.39 181.293 1007.65 181.914 1003.18 181.914C996.66 181.914 991.656 180.414 988.164 177.414C984.672 174.391 982.586 169.996 981.906 164.23Z" fill="#0A0D10"/>
<path d="M525.746 220V202.82H538.484V205.727H529.215V209.535H537.84V212.43H529.215V217.105H538.812V220H525.746ZM541.789 220V202.82H545.164L552.195 214.293V202.82H555.418V220H551.938L545.012 208.797V220H541.789ZM567.09 213.684V210.789H574.566V217.633C573.84 218.336 572.785 218.957 571.402 219.496C570.027 220.027 568.633 220.293 567.219 220.293C565.422 220.293 563.855 219.918 562.52 219.168C561.184 218.41 560.18 217.332 559.508 215.934C558.836 214.527 558.5 213 558.5 211.352C558.5 209.562 558.875 207.973 559.625 206.582C560.375 205.191 561.473 204.125 562.918 203.383C564.02 202.812 565.391 202.527 567.031 202.527C569.164 202.527 570.828 202.977 572.023 203.875C573.227 204.766 574 206 574.344 207.578L570.898 208.223C570.656 207.379 570.199 206.715 569.527 206.23C568.863 205.738 568.031 205.492 567.031 205.492C565.516 205.492 564.309 205.973 563.41 206.934C562.52 207.895 562.074 209.32 562.074 211.211C562.074 213.25 562.527 214.781 563.434 215.805C564.34 216.82 565.527 217.328 566.996 217.328C567.723 217.328 568.449 217.188 569.176 216.906C569.91 216.617 570.539 216.27 571.062 215.863V213.684H567.09ZM577.672 220V202.82H581.141V220H577.672ZM584.492 220V202.82H587.867L594.898 214.293V202.82H598.121V220H594.641L587.715 208.797V220H584.492ZM601.801 220V202.82H614.539V205.727H605.27V209.535H613.895V212.43H605.27V217.105H614.867V220H601.801ZM617.809 220V202.82H630.547V205.727H621.277V209.535H629.902V212.43H621.277V217.105H630.875V220H617.809ZM633.828 220V202.82H641.129C642.965 202.82 644.297 202.977 645.125 203.289C645.961 203.594 646.629 204.141 647.129 204.93C647.629 205.719 647.879 206.621 647.879 207.637C647.879 208.926 647.5 209.992 646.742 210.836C645.984 211.672 644.852 212.199 643.344 212.418C644.094 212.855 644.711 213.336 645.195 213.859C645.688 214.383 646.348 215.312 647.176 216.648L649.273 220H645.125L642.617 216.262C641.727 214.926 641.117 214.086 640.789 213.742C640.461 213.391 640.113 213.152 639.746 213.027C639.379 212.895 638.797 212.828 638 212.828H637.297V220H633.828ZM637.297 210.086H639.863C641.527 210.086 642.566 210.016 642.98 209.875C643.395 209.734 643.719 209.492 643.953 209.148C644.188 208.805 644.305 208.375 644.305 207.859C644.305 207.281 644.148 206.816 643.836 206.465C643.531 206.105 643.098 205.879 642.535 205.785C642.254 205.746 641.41 205.727 640.004 205.727H637.297V210.086ZM651.055 220V202.82H654.523V220H651.055ZM657.875 220V202.82H661.25L668.281 214.293V202.82H671.504V220H668.023L661.098 208.797V220H657.875ZM683.176 213.684V210.789H690.652V217.633C689.926 218.336 688.871 218.957 687.488 219.496C686.113 220.027 684.719 220.293 683.305 220.293C681.508 220.293 679.941 219.918 678.605 219.168C677.27 218.41 676.266 217.332 675.594 215.934C674.922 214.527 674.586 213 674.586 211.352C674.586 209.562 674.961 207.973 675.711 206.582C676.461 205.191 677.559 204.125 679.004 203.383C680.105 202.812 681.477 202.527 683.117 202.527C685.25 202.527 686.914 202.977 688.109 203.875C689.312 204.766 690.086 206 690.43 207.578L686.984 208.223C686.742 207.379 686.285 206.715 685.613 206.23C684.949 205.738 684.117 205.492 683.117 205.492C681.602 205.492 680.395 205.973 679.496 206.934C678.605 207.895 678.16 209.32 678.16 211.211C678.16 213.25 678.613 214.781 679.52 215.805C680.426 216.82 681.613 217.328 683.082 217.328C683.809 217.328 684.535 217.188 685.262 216.906C685.996 216.617 686.625 216.27 687.148 215.863V213.684H683.176Z" fill="#4CC9F0"/>
<path d="M700.746 220V202.82H706.312C708.422 202.82 709.797 202.906 710.438 203.078C711.422 203.336 712.246 203.898 712.91 204.766C713.574 205.625 713.906 206.738 713.906 208.105C713.906 209.16 713.715 210.047 713.332 210.766C712.949 211.484 712.461 212.051 711.867 212.465C711.281 212.871 710.684 213.141 710.074 213.273C709.246 213.438 708.047 213.52 706.477 213.52H704.215V220H700.746ZM704.215 205.727V210.602H706.113C707.48 210.602 708.395 210.512 708.855 210.332C709.316 210.152 709.676 209.871 709.934 209.488C710.199 209.105 710.332 208.66 710.332 208.152C710.332 207.527 710.148 207.012 709.781 206.605C709.414 206.199 708.949 205.945 708.387 205.844C707.973 205.766 707.141 205.727 705.891 205.727H704.215ZM716.766 220V202.82H720.234V209.582H727.031V202.82H730.5V220H727.031V212.488H720.234V220H716.766ZM738.609 220V212.77L732.316 202.82H736.383L740.426 209.617L744.387 202.82H748.383L742.066 212.793V220H738.609ZM749.227 214.41L752.602 214.082C752.805 215.215 753.215 216.047 753.832 216.578C754.457 217.109 755.297 217.375 756.352 217.375C757.469 217.375 758.309 217.141 758.871 216.672C759.441 216.195 759.727 215.641 759.727 215.008C759.727 214.602 759.605 214.258 759.363 213.977C759.129 213.688 758.715 213.438 758.121 213.227C757.715 213.086 756.789 212.836 755.344 212.477C753.484 212.016 752.18 211.449 751.43 210.777C750.375 209.832 749.848 208.68 749.848 207.32C749.848 206.445 750.094 205.629 750.586 204.871C751.086 204.105 751.801 203.523 752.73 203.125C753.668 202.727 754.797 202.527 756.117 202.527C758.273 202.527 759.895 203 760.98 203.945C762.074 204.891 762.648 206.152 762.703 207.73L759.234 207.883C759.086 207 758.766 206.367 758.273 205.984C757.789 205.594 757.059 205.398 756.082 205.398C755.074 205.398 754.285 205.605 753.715 206.02C753.348 206.285 753.164 206.641 753.164 207.086C753.164 207.492 753.336 207.84 753.68 208.129C754.117 208.496 755.18 208.879 756.867 209.277C758.555 209.676 759.801 210.09 760.605 210.52C761.418 210.941 762.051 211.523 762.504 212.266C762.965 213 763.195 213.91 763.195 214.996C763.195 215.98 762.922 216.902 762.375 217.762C761.828 218.621 761.055 219.262 760.055 219.684C759.055 220.098 757.809 220.305 756.316 220.305C754.145 220.305 752.477 219.805 751.312 218.805C750.148 217.797 749.453 216.332 749.227 214.41ZM766.008 220V202.82H769.477V220H766.008ZM783.785 213.684L787.148 214.75C786.633 216.625 785.773 218.02 784.57 218.934C783.375 219.84 781.855 220.293 780.012 220.293C777.73 220.293 775.855 219.516 774.387 217.961C772.918 216.398 772.184 214.266 772.184 211.562C772.184 208.703 772.922 206.484 774.398 204.906C775.875 203.32 777.816 202.527 780.223 202.527C782.324 202.527 784.031 203.148 785.344 204.391C786.125 205.125 786.711 206.18 787.102 207.555L783.668 208.375C783.465 207.484 783.039 206.781 782.391 206.266C781.75 205.75 780.969 205.492 780.047 205.492C778.773 205.492 777.738 205.949 776.941 206.863C776.152 207.777 775.758 209.258 775.758 211.305C775.758 213.477 776.148 215.023 776.93 215.945C777.711 216.867 778.727 217.328 779.977 217.328C780.898 217.328 781.691 217.035 782.355 216.449C783.02 215.863 783.496 214.941 783.785 213.684ZM805.629 220H801.855L800.355 216.098H793.488L792.07 220H788.391L795.082 202.82H798.75L805.629 220ZM799.242 213.203L796.875 206.828L794.555 213.203H799.242ZM807.574 220V202.961H811.043V217.105H819.668V220H807.574Z" fill="#0A0D10"/>
<path d="M828.641 220V202.82H832.109V220H828.641ZM835.461 220V202.82H838.836L845.867 214.293V202.82H849.09V220H845.609L838.684 208.797V220H835.461ZM856.637 220V205.727H851.539V202.82H865.191V205.727H860.105V220H856.637ZM867.441 220V202.82H880.18V205.727H870.91V209.535H879.535V212.43H870.91V217.105H880.508V220H867.441ZM883.543 220V202.961H887.012V217.105H895.637V220H883.543ZM898.215 220V202.961H901.684V217.105H910.309V220H898.215ZM912.688 220V202.82H916.156V220H912.688ZM927.465 213.684V210.789H934.941V217.633C934.215 218.336 933.16 218.957 931.777 219.496C930.402 220.027 929.008 220.293 927.594 220.293C925.797 220.293 924.23 219.918 922.895 219.168C921.559 218.41 920.555 217.332 919.883 215.934C919.211 214.527 918.875 213 918.875 211.352C918.875 209.562 919.25 207.973 920 206.582C920.75 205.191 921.848 204.125 923.293 203.383C924.395 202.812 925.766 202.527 927.406 202.527C929.539 202.527 931.203 202.977 932.398 203.875C933.602 204.766 934.375 206 934.719 207.578L931.273 208.223C931.031 207.379 930.574 206.715 929.902 206.23C929.238 205.738 928.406 205.492 927.406 205.492C925.891 205.492 924.684 205.973 923.785 206.934C922.895 207.895 922.449 209.32 922.449 211.211C922.449 213.25 922.902 214.781 923.809 215.805C924.715 216.82 925.902 217.328 927.371 217.328C928.098 217.328 928.824 217.188 929.551 216.906C930.285 216.617 930.914 216.27 931.438 215.863V213.684H927.465ZM938.152 220V202.82H950.891V205.727H941.621V209.535H950.246V212.43H941.621V217.105H951.219V220H938.152ZM954.195 220V202.82H957.57L964.602 214.293V202.82H967.824V220H964.344L957.418 208.797V220H954.195ZM982.496 213.684L985.859 214.75C985.344 216.625 984.484 218.02 983.281 218.934C982.086 219.84 980.566 220.293 978.723 220.293C976.441 220.293 974.566 219.516 973.098 217.961C971.629 216.398 970.895 214.266 970.895 211.562C970.895 208.703 971.633 206.484 973.109 204.906C974.586 203.32 976.527 202.527 978.934 202.527C981.035 202.527 982.742 203.148 984.055 204.391C984.836 205.125 985.422 206.18 985.812 207.555L982.379 208.375C982.176 207.484 981.75 206.781 981.102 206.266C980.461 205.75 979.68 205.492 978.758 205.492C977.484 205.492 976.449 205.949 975.652 206.863C974.863 207.777 974.469 209.258 974.469 211.305C974.469 213.477 974.859 215.023 975.641 215.945C976.422 216.867 977.438 217.328 978.688 217.328C979.609 217.328 980.402 217.035 981.066 216.449C981.73 215.863 982.207 214.941 982.496 213.684ZM988.848 220V202.82H1001.59V205.727H992.316V209.535H1000.94V212.43H992.316V217.105H1001.91V220H988.848Z" fill="#0A0D10"/>
<path d="M487 244H1040" stroke="#2B373D" stroke-width="2"/>
<path d="M161 95H291V133.324H197.344V160.838H272.129V198.179H197.344V226.676H291V265H161V95Z" fill="#0A0D10"/>
<path d="M331 265H307V95H331V265ZM319 170C313.477 170 309 174.477 309 180C309 185.523 313.477 190 319 190C324.523 190 329 185.523 329 180C329 174.477 324.523 170 319 170Z" fill="#32D69A"/>
<path d="M331 235H307V227H331V235ZM331 133H307V125H331V133Z" fill="#263239"/>
<path d="M367 265H343V95H367V265ZM355 170C349.477 170 345 174.477 345 180C345 185.523 349.477 190 355 190C360.523 190 365 185.523 365 180C365 174.477 360.523 170 355 170Z" fill="#4CC9F0"/>
<path d="M367 235H343V227H367V235ZM367 133H343V125H367V133Z" fill="#263239"/>
</g>
<defs>
<clipPath id="clip0_2004_103">
<rect width="1200" height="360" fill="white"/>
</clipPath>
</defs>
</svg>
