<svg width="96" height="96" viewBox="0 0 96 96" fill="none" xmlns="http://www.w3.org/2000/svg">
<g clip-path="url(#clip0_2018_63)">
<path d="M18 2H78C86.8366 2 94 9.16344 94 18V78C94 86.8366 86.8366 94 78 94H18C9.16344 94 2 86.8366 2 78V18L2.00488 17.5869C2.2205 9.07854 9.07854 2.2205 17.5869 2.00488L18 2Z" stroke="white" stroke-width="4"/>
<path d="M13 18H52V31H26V39H47V51H26V65H52V78H13V18Z" fill="white"/>
<path d="M59 18H69V78H59V18ZM74 18H84V78H74V18Z" fill="white"/>
<path d="M59 31H84M59 65H84" stroke="black" stroke-width="4"/>
<path d="M63.9969 52.1998C66.3165 52.1998 68.1969 50.3194 68.1969 47.9998C68.1969 45.6802 66.3165 43.7998 63.9969 43.7998C61.6773 43.7998 59.7969 45.6802 59.7969 47.9998C59.7969 50.3194 61.6773 52.1998 63.9969 52.1998Z" fill="black"/>
<path d="M78.9969 52.1998C81.3165 52.1998 83.1969 50.3194 83.1969 47.9998C83.1969 45.6802 81.3165 43.7998 78.9969 43.7998C76.6773 43.7998 74.7969 45.6802 74.7969 47.9998C74.7969 50.3194 76.6773 52.1998 78.9969 52.1998Z" fill="black"/>
</g>
<defs>
<clipPath id="clip0_2018_63">
<rect width="96" height="96" fill="white"/>
</clipPath>
</defs>
</svg>
