<svg width="512" height="512" viewBox="0 0 512 512" fill="none" xmlns="http://www.w3.org/2000/svg">
<g clip-path="url(#clip0_2004_12)">
<path d="M416 0H96C42.9807 0 0 42.9807 0 96V416C0 469.019 42.9807 512 96 512H416C469.019 512 512 469.019 512 416V96C512 42.9807 469.019 0 416 0Z" fill="#F8FAF9"/>
<path d="M62 96H306.854V168.139H130.454V219.931H271.311V290.22H130.454V343.861H306.854V416H62V96Z" fill="#0A0D10"/>
<path d="M382.194 416H336.99V96H382.194V416ZM359.592 237.165C349.19 237.165 340.757 245.598 340.757 256C340.757 266.402 349.19 274.835 359.592 274.835C369.994 274.835 378.427 266.402 378.427 256C378.427 245.598 369.994 237.165 359.592 237.165Z" fill="#32D69A"/>
<path d="M382.194 359.53H336.99V344.47H382.194V359.53ZM382.194 167.53H336.99V152.47H382.194V167.53Z" fill="#263239"/>
<path d="M450 416H404.796V96H450V416ZM427.397 237.165C416.995 237.165 408.563 245.598 408.562 256C408.562 266.402 416.995 274.835 427.397 274.835C437.8 274.835 446.232 266.402 446.232 256C446.232 245.598 437.8 237.165 427.397 237.165Z" fill="#4CC9F0"/>
<path d="M450 359.53H404.796V344.47H450V359.53ZM450 167.53H404.796V152.47H450V167.53Z" fill="#263239"/>
</g>
<defs>
<clipPath id="clip0_2004_12">
<rect width="512" height="512" fill="white"/>
</clipPath>
</defs>
</svg>
