<svg width="1072" height="232" viewBox="0 0 1072 232" fill="none" xmlns="http://www.w3.org/2000/svg">
<path d="M12 1.5H1060C1065.8 1.5 1070.5 6.20101 1070.5 12V220C1070.5 225.799 1065.8 230.5 1060 230.5H12C6.20102 230.5 1.5 225.799 1.5 220V12C1.5 6.20101 6.20101 1.5 12 1.5Z" stroke="black" stroke-width="3"/>
<path d="M40 30H226V69H92V97H199V135H92V164H226V203H40V30Z" fill="black"/>
<path d="M244 30H279V203H244V30ZM296 30H331V203H296V30Z" fill="black"/>
<path d="M244 64H331M244 169H331" stroke="white" stroke-width="8"/>
<path d="M261.5 127C267.299 127 272 122.299 272 116.5C272 110.701 267.299 106 261.5 106C255.701 106 251 110.701 251 116.5C251 122.299 255.701 127 261.5 127Z" fill="white"/>
<path d="M313.5 127C319.299 127 324 122.299 324 116.5C324 110.701 319.299 106 313.5 106C307.701 106 303 110.701 303 116.5C303 122.299 307.701 127 313.5 127Z" fill="white"/>
<path d="M409.238 124V72.4609H447.453V81.1797H419.645V92.6055H445.52V101.289H419.645V115.316H448.438V124H409.238ZM454.625 107.23L464.75 106.246C465.359 109.645 466.59 112.141 468.441 113.734C470.316 115.328 472.836 116.125 476 116.125C479.352 116.125 481.871 115.422 483.559 114.016C485.27 112.586 486.125 110.922 486.125 109.023C486.125 107.805 485.762 106.773 485.035 105.93C484.332 105.062 483.09 104.312 481.309 103.68C480.09 103.258 477.312 102.508 472.977 101.43C467.398 100.047 463.484 98.3477 461.234 96.332C458.07 93.4961 456.488 90.0391 456.488 85.9609C456.488 83.3359 457.227 80.8867 458.703 78.6133C460.203 76.3164 462.348 74.5703 465.137 73.375C467.949 72.1797 471.336 71.582 475.297 71.582C481.766 71.582 486.629 73 489.887 75.8359C493.168 78.6719 494.891 82.457 495.055 87.1914L484.648 87.6484C484.203 85 483.242 83.1016 481.766 81.9531C480.312 80.7812 478.121 80.1953 475.191 80.1953C472.168 80.1953 469.801 80.8164 468.09 82.0586C466.988 82.8555 466.438 83.9219 466.438 85.2578C466.438 86.4766 466.953 87.5195 467.984 88.3867C469.297 89.4883 472.484 90.6367 477.547 91.832C482.609 93.0273 486.348 94.2695 488.762 95.5586C491.199 96.8242 493.098 98.5703 494.457 100.797C495.84 103 496.531 105.73 496.531 108.988C496.531 111.941 495.711 114.707 494.07 117.285C492.43 119.863 490.109 121.785 487.109 123.051C484.109 124.293 480.371 124.914 475.895 124.914C469.379 124.914 464.375 123.414 460.883 120.414C457.391 117.391 455.305 112.996 454.625 107.23ZM516.887 124V81.1797H501.594V72.4609H542.551V81.1797H527.293V124H516.887ZM549.336 124V72.4609H559.742V92.7461H580.133V72.4609H590.539V124H580.133V101.465H559.742V124H549.336ZM601.016 124V72.4609H611.422V124H601.016ZM621.371 124V72.4609H659.586V81.1797H631.777V92.6055H657.652V101.289H631.777V115.316H660.57V124H621.371ZM669.5 124V72.4609H679.625L700.719 106.879V72.4609H710.387V124H699.945L679.168 90.3906V124H669.5ZM741.746 124V72.8828H752.152V115.316H778.027V124H741.746ZM831.957 124H820.637L816.137 112.293H795.535L791.281 124H780.242L800.316 72.4609H811.32L831.957 124ZM812.797 103.609L805.695 84.4844L798.734 103.609H812.797ZM837.547 72.4609H858.148C862.227 72.4609 865.262 72.6367 867.254 72.9883C869.27 73.3164 871.062 74.0195 872.633 75.0977C874.227 76.1758 875.551 77.6172 876.605 79.4219C877.66 81.2031 878.188 83.207 878.188 85.4336C878.188 87.8477 877.531 90.0625 876.219 92.0781C874.93 94.0938 873.172 95.6055 870.945 96.6133C874.086 97.5273 876.5 99.0859 878.188 101.289C879.875 103.492 880.719 106.082 880.719 109.059C880.719 111.402 880.168 113.688 879.066 115.914C877.988 118.117 876.5 119.887 874.602 121.223C872.727 122.535 870.406 123.344 867.641 123.648C865.906 123.836 861.723 123.953 855.09 124H837.547V72.4609ZM847.953 81.0391V92.957H854.773C858.828 92.957 861.348 92.8984 862.332 92.7812C864.113 92.5703 865.508 91.9609 866.516 90.9531C867.547 89.9219 868.062 88.5742 868.062 86.9102C868.062 85.3164 867.617 84.0273 866.727 83.043C865.859 82.0352 864.559 81.4258 862.824 81.2148C861.793 81.0977 858.828 81.0391 853.93 81.0391H847.953ZM847.953 101.535V115.316H857.586C861.336 115.316 863.715 115.211 864.723 115C866.27 114.719 867.523 114.039 868.484 112.961C869.469 111.859 869.961 110.395 869.961 108.566C869.961 107.02 869.586 105.707 868.836 104.629C868.086 103.551 866.996 102.766 865.566 102.273C864.16 101.781 861.09 101.535 856.355 101.535H847.953ZM886.906 107.23L897.031 106.246C897.641 109.645 898.871 112.141 900.723 113.734C902.598 115.328 905.117 116.125 908.281 116.125C911.633 116.125 914.152 115.422 915.84 114.016C917.551 112.586 918.406 110.922 918.406 109.023C918.406 107.805 918.043 106.773 917.316 105.93C916.613 105.062 915.371 104.312 913.59 103.68C912.371 103.258 909.594 102.508 905.258 101.43C899.68 100.047 895.766 98.3477 893.516 96.332C890.352 93.4961 888.77 90.0391 888.77 85.9609C888.77 83.3359 889.508 80.8867 890.984 78.6133C892.484 76.3164 894.629 74.5703 897.418 73.375C900.23 72.1797 903.617 71.582 907.578 71.582C914.047 71.582 918.91 73 922.168 75.8359C925.449 78.6719 927.172 82.457 927.336 87.1914L916.93 87.6484C916.484 85 915.523 83.1016 914.047 81.9531C912.594 80.7812 910.402 80.1953 907.473 80.1953C904.449 80.1953 902.082 80.8164 900.371 82.0586C899.27 82.8555 898.719 83.9219 898.719 85.2578C898.719 86.4766 899.234 87.5195 900.266 88.3867C901.578 89.4883 904.766 90.6367 909.828 91.832C914.891 93.0273 918.629 94.2695 921.043 95.5586C923.48 96.8242 925.379 98.5703 926.738 100.797C928.121 103 928.812 105.73 928.812 108.988C928.812 111.941 927.992 114.707 926.352 117.285C924.711 119.863 922.391 121.785 919.391 123.051C916.391 124.293 912.652 124.914 908.176 124.914C901.66 124.914 896.656 123.414 893.164 120.414C889.672 117.391 887.586 112.996 886.906 107.23Z" fill="black"/>
<path d="M492.746 163V145.82H505.484V148.727H496.215V152.535H504.84V155.43H496.215V160.105H505.812V163H492.746ZM508.789 163V145.82H512.164L519.195 157.293V145.82H522.418V163H518.938L512.012 151.797V163H508.789ZM534.09 156.684V153.789H541.566V160.633C540.84 161.336 539.785 161.957 538.402 162.496C537.027 163.027 535.633 163.293 534.219 163.293C532.422 163.293 530.855 162.918 529.52 162.168C528.184 161.41 527.18 160.332 526.508 158.934C525.836 157.527 525.5 156 525.5 154.352C525.5 152.562 525.875 150.973 526.625 149.582C527.375 148.191 528.473 147.125 529.918 146.383C531.02 145.812 532.391 145.527 534.031 145.527C536.164 145.527 537.828 145.977 539.023 146.875C540.227 147.766 541 149 541.344 150.578L537.898 151.223C537.656 150.379 537.199 149.715 536.527 149.23C535.863 148.738 535.031 148.492 534.031 148.492C532.516 148.492 531.309 148.973 530.41 149.934C529.52 150.895 529.074 152.32 529.074 154.211C529.074 156.25 529.527 157.781 530.434 158.805C531.34 159.82 532.527 160.328 533.996 160.328C534.723 160.328 535.449 160.188 536.176 159.906C536.91 159.617 537.539 159.27 538.062 158.863V156.684H534.09ZM544.672 163V145.82H548.141V163H544.672ZM551.492 163V145.82H554.867L561.898 157.293V145.82H565.121V163H561.641L554.715 151.797V163H551.492ZM568.801 163V145.82H581.539V148.727H572.27V152.535H580.895V155.43H572.27V160.105H581.867V163H568.801ZM584.809 163V145.82H597.547V148.727H588.277V152.535H596.902V155.43H588.277V160.105H597.875V163H584.809ZM600.828 163V145.82H608.129C609.965 145.82 611.297 145.977 612.125 146.289C612.961 146.594 613.629 147.141 614.129 147.93C614.629 148.719 614.879 149.621 614.879 150.637C614.879 151.926 614.5 152.992 613.742 153.836C612.984 154.672 611.852 155.199 610.344 155.418C611.094 155.855 611.711 156.336 612.195 156.859C612.688 157.383 613.348 158.312 614.176 159.648L616.273 163H612.125L609.617 159.262C608.727 157.926 608.117 157.086 607.789 156.742C607.461 156.391 607.113 156.152 606.746 156.027C606.379 155.895 605.797 155.828 605 155.828H604.297V163H600.828ZM604.297 153.086H606.863C608.527 153.086 609.566 153.016 609.98 152.875C610.395 152.734 610.719 152.492 610.953 152.148C611.188 151.805 611.305 151.375 611.305 150.859C611.305 150.281 611.148 149.816 610.836 149.465C610.531 149.105 610.098 148.879 609.535 148.785C609.254 148.746 608.41 148.727 607.004 148.727H604.297V153.086ZM618.055 163V145.82H621.523V163H618.055ZM624.875 163V145.82H628.25L635.281 157.293V145.82H638.504V163H635.023L628.098 151.797V163H624.875ZM650.176 156.684V153.789H657.652V160.633C656.926 161.336 655.871 161.957 654.488 162.496C653.113 163.027 651.719 163.293 650.305 163.293C648.508 163.293 646.941 162.918 645.605 162.168C644.27 161.41 643.266 160.332 642.594 158.934C641.922 157.527 641.586 156 641.586 154.352C641.586 152.562 641.961 150.973 642.711 149.582C643.461 148.191 644.559 147.125 646.004 146.383C647.105 145.812 648.477 145.527 650.117 145.527C652.25 145.527 653.914 145.977 655.109 146.875C656.312 147.766 657.086 149 657.43 150.578L653.984 151.223C653.742 150.379 653.285 149.715 652.613 149.23C651.949 148.738 651.117 148.492 650.117 148.492C648.602 148.492 647.395 148.973 646.496 149.934C645.605 150.895 645.16 152.32 645.16 154.211C645.16 156.25 645.613 157.781 646.52 158.805C647.426 159.82 648.613 160.328 650.082 160.328C650.809 160.328 651.535 160.188 652.262 159.906C652.996 159.617 653.625 159.27 654.148 158.863V156.684H650.176Z" fill="white"/>
<path d="M671.641 163V145.82H675.109V163H671.641ZM678.461 163V145.82H681.836L688.867 157.293V145.82H692.09V163H688.609L681.684 151.797V163H678.461ZM699.637 163V148.727H694.539V145.82H708.191V148.727H703.105V163H699.637ZM710.441 163V145.82H723.18V148.727H713.91V152.535H722.535V155.43H713.91V160.105H723.508V163H710.441ZM726.543 163V145.961H730.012V160.105H738.637V163H726.543ZM741.215 163V145.961H744.684V160.105H753.309V163H741.215ZM755.688 163V145.82H759.156V163H755.688ZM770.465 156.684V153.789H777.941V160.633C777.215 161.336 776.16 161.957 774.777 162.496C773.402 163.027 772.008 163.293 770.594 163.293C768.797 163.293 767.23 162.918 765.895 162.168C764.559 161.41 763.555 160.332 762.883 158.934C762.211 157.527 761.875 156 761.875 154.352C761.875 152.562 762.25 150.973 763 149.582C763.75 148.191 764.848 147.125 766.293 146.383C767.395 145.812 768.766 145.527 770.406 145.527C772.539 145.527 774.203 145.977 775.398 146.875C776.602 147.766 777.375 149 777.719 150.578L774.273 151.223C774.031 150.379 773.574 149.715 772.902 149.23C772.238 148.738 771.406 148.492 770.406 148.492C768.891 148.492 767.684 148.973 766.785 149.934C765.895 150.895 765.449 152.32 765.449 154.211C765.449 156.25 765.902 157.781 766.809 158.805C767.715 159.82 768.902 160.328 770.371 160.328C771.098 160.328 771.824 160.188 772.551 159.906C773.285 159.617 773.914 159.27 774.438 158.863V156.684H770.465ZM781.152 163V145.82H793.891V148.727H784.621V152.535H793.246V155.43H784.621V160.105H794.219V163H781.152ZM797.195 163V145.82H800.57L807.602 157.293V145.82H810.824V163H807.344L800.418 151.797V163H797.195ZM825.496 156.684L828.859 157.75C828.344 159.625 827.484 161.02 826.281 161.934C825.086 162.84 823.566 163.293 821.723 163.293C819.441 163.293 817.566 162.516 816.098 160.961C814.629 159.398 813.895 157.266 813.895 154.562C813.895 151.703 814.633 149.484 816.109 147.906C817.586 146.32 819.527 145.527 821.934 145.527C824.035 145.527 825.742 146.148 827.055 147.391C827.836 148.125 828.422 149.18 828.812 150.555L825.379 151.375C825.176 150.484 824.75 149.781 824.102 149.266C823.461 148.75 822.68 148.492 821.758 148.492C820.484 148.492 819.449 148.949 818.652 149.863C817.863 150.777 817.469 152.258 817.469 154.305C817.469 156.477 817.859 158.023 818.641 158.945C819.422 159.867 820.438 160.328 821.688 160.328C822.609 160.328 823.402 160.035 824.066 159.449C824.73 158.863 825.207 157.941 825.496 156.684ZM831.848 163V145.82H844.586V148.727H835.316V152.535H843.941V155.43H835.316V160.105H844.914V163H831.848Z" fill="black"/>
<path d="M392 188H945" stroke="black" stroke-width="2"/>
</svg>
