<svg width="1200" height="360" viewBox="0 0 1200 360" fill="none" xmlns="http://www.w3.org/2000/svg">
<rect width="1200" height="360" fill="#1E1E1E"/>
<g clip-path="url(#clip0_0_1)">
<path d="M1172 0H28C12.536 0 0 12.536 0 28V332C0 347.464 12.536 360 28 360H1172C1187.46 360 1200 347.464 1200 332V28C1200 12.536 1187.46 0 1172 0Z" fill="#0A0D10"/>
<path d="M1122 64H78C70.268 64 64 70.268 64 78V282C64 289.732 70.268 296 78 296H1122C1129.73 296 1136 289.732 1136 282V78C1136 70.268 1129.73 64 1122 64Z" fill="#11181C" stroke="#CBD5D8" stroke-width="2"/>
<path d="M104 94H290V133H156V161H263V199H156V228H290V267H104V94Z" fill="#F8FAF9"/>
<path d="M308 94H343V267H308V94Z" fill="#32D69A"/>
<path d="M360 94H395V267H360V94Z" fill="#4CC9F0"/>
<path d="M308 128H395M308 233H395" stroke="#263239" stroke-width="8"/>
<path d="M325.5 191C331.299 191 336 186.299 336 180.5C336 174.701 331.299 170 325.5 170C319.701 170 315 174.701 315 180.5C315 186.299 319.701 191 325.5 191Z" fill="#0A0D10"/>
<path d="M377.5 191C383.299 191 388 186.299 388 180.5C388 174.701 383.299 170 377.5 170C371.701 170 367 174.701 367 180.5C367 186.299 371.701 191 377.5 191Z" fill="#0A0D10"/>
<path d="M470.238 181V129.461H508.453V138.18H480.645V149.605H506.52V158.289H480.645V172.316H509.438V181H470.238ZM515.625 164.23L525.75 163.246C526.359 166.645 527.59 169.141 529.441 170.734C531.316 172.328 533.836 173.125 537 173.125C540.352 173.125 542.871 172.422 544.559 171.016C546.27 169.586 547.125 167.922 547.125 166.023C547.125 164.805 546.762 163.773 546.035 162.93C545.332 162.062 544.09 161.312 542.309 160.68C541.09 160.258 538.312 159.508 533.977 158.43C528.398 157.047 524.484 155.348 522.234 153.332C519.07 150.496 517.488 147.039 517.488 142.961C517.488 140.336 518.227 137.887 519.703 135.613C521.203 133.316 523.348 131.57 526.137 130.375C528.949 129.18 532.336 128.582 536.297 128.582C542.766 128.582 547.629 130 550.887 132.836C554.168 135.672 555.891 139.457 556.055 144.191L545.648 144.648C545.203 142 544.242 140.102 542.766 138.953C541.312 137.781 539.121 137.195 536.191 137.195C533.168 137.195 530.801 137.816 529.09 139.059C527.988 139.855 527.438 140.922 527.438 142.258C527.438 143.477 527.953 144.52 528.984 145.387C530.297 146.488 533.484 147.637 538.547 148.832C543.609 150.027 547.348 151.27 549.762 152.559C552.199 153.824 554.098 155.57 555.457 157.797C556.84 160 557.531 162.73 557.531 165.988C557.531 168.941 556.711 171.707 555.07 174.285C553.43 176.863 551.109 178.785 548.109 180.051C545.109 181.293 541.371 181.914 536.895 181.914C530.379 181.914 525.375 180.414 521.883 177.414C518.391 174.391 516.305 169.996 515.625 164.23ZM577.887 181V138.18H562.594V129.461H603.551V138.18H588.293V181H577.887ZM610.336 181V129.461H620.742V149.746H641.133V129.461H651.539V181H641.133V158.465H620.742V181H610.336ZM662.016 181V129.461H672.422V181H662.016ZM682.371 181V129.461H720.586V138.18H692.777V149.605H718.652V158.289H692.777V172.316H721.57V181H682.371ZM730.5 181V129.461H740.625L761.719 163.879V129.461H771.387V181H760.945L740.168 147.391V181H730.5ZM802.746 181V129.883H813.152V172.316H839.027V181H802.746ZM892.957 181H881.637L877.137 169.293H856.535L852.281 181H841.242L861.316 129.461H872.32L892.957 181ZM873.797 160.609L866.695 141.484L859.734 160.609H873.797ZM898.547 129.461H919.148C923.227 129.461 926.262 129.637 928.254 129.988C930.27 130.316 932.062 131.02 933.633 132.098C935.227 133.176 936.551 134.617 937.605 136.422C938.66 138.203 939.188 140.207 939.188 142.434C939.188 144.848 938.531 147.062 937.219 149.078C935.93 151.094 934.172 152.605 931.945 153.613C935.086 154.527 937.5 156.086 939.188 158.289C940.875 160.492 941.719 163.082 941.719 166.059C941.719 168.402 941.168 170.688 940.066 172.914C938.988 175.117 937.5 176.887 935.602 178.223C933.727 179.535 931.406 180.344 928.641 180.648C926.906 180.836 922.723 180.953 916.09 181H898.547V129.461ZM908.953 138.039V149.957H915.773C919.828 149.957 922.348 149.898 923.332 149.781C925.113 149.57 926.508 148.961 927.516 147.953C928.547 146.922 929.062 145.574 929.062 143.91C929.062 142.316 928.617 141.027 927.727 140.043C926.859 139.035 925.559 138.426 923.824 138.215C922.793 138.098 919.828 138.039 914.93 138.039H908.953ZM908.953 158.535V172.316H918.586C922.336 172.316 924.715 172.211 925.723 172C927.27 171.719 928.523 171.039 929.484 169.961C930.469 168.859 930.961 167.395 930.961 165.566C930.961 164.02 930.586 162.707 929.836 161.629C929.086 160.551 927.996 159.766 926.566 159.273C925.16 158.781 922.09 158.535 917.355 158.535H908.953ZM947.906 164.23L958.031 163.246C958.641 166.645 959.871 169.141 961.723 170.734C963.598 172.328 966.117 173.125 969.281 173.125C972.633 173.125 975.152 172.422 976.84 171.016C978.551 169.586 979.406 167.922 979.406 166.023C979.406 164.805 979.043 163.773 978.316 162.93C977.613 162.062 976.371 161.312 974.59 160.68C973.371 160.258 970.594 159.508 966.258 158.43C960.68 157.047 956.766 155.348 954.516 153.332C951.352 150.496 949.77 147.039 949.77 142.961C949.77 140.336 950.508 137.887 951.984 135.613C953.484 133.316 955.629 131.57 958.418 130.375C961.23 129.18 964.617 128.582 968.578 128.582C975.047 128.582 979.91 130 983.168 132.836C986.449 135.672 988.172 139.457 988.336 144.191L977.93 144.648C977.484 142 976.523 140.102 975.047 138.953C973.594 137.781 971.402 137.195 968.473 137.195C965.449 137.195 963.082 137.816 961.371 139.059C960.27 139.855 959.719 140.922 959.719 142.258C959.719 143.477 960.234 144.52 961.266 145.387C962.578 146.488 965.766 147.637 970.828 148.832C975.891 150.027 979.629 151.27 982.043 152.559C984.48 153.824 986.379 155.57 987.738 157.797C989.121 160 989.812 162.73 989.812 165.988C989.812 168.941 988.992 171.707 987.352 174.285C985.711 176.863 983.391 178.785 980.391 180.051C977.391 181.293 973.652 181.914 969.176 181.914C962.66 181.914 957.656 180.414 954.164 177.414C950.672 174.391 948.586 169.996 947.906 164.23Z" fill="#F8FAF9"/>
<path d="M560.673 219V202.536H572.881V205.321H563.998V208.971H572.263V211.745H563.998V216.226H573.195V219H560.673ZM576.048 219V202.536H579.282L586.021 213.531V202.536H589.109V219H585.773L579.136 208.264V219H576.048ZM600.294 212.947V210.173H607.459V216.731C606.763 217.405 605.752 218 604.427 218.517C603.11 219.026 601.773 219.281 600.418 219.281C598.696 219.281 597.195 218.921 595.915 218.203C594.634 217.476 593.672 216.443 593.028 215.103C592.384 213.755 592.062 212.292 592.062 210.712C592.062 208.997 592.422 207.474 593.141 206.141C593.859 204.808 594.911 203.786 596.296 203.075C597.352 202.529 598.666 202.255 600.238 202.255C602.282 202.255 603.877 202.686 605.022 203.547C606.175 204.4 606.917 205.583 607.246 207.096L603.944 207.713C603.712 206.905 603.274 206.268 602.63 205.804C601.994 205.333 601.197 205.097 600.238 205.097C598.786 205.097 597.629 205.557 596.768 206.478C595.915 207.399 595.488 208.765 595.488 210.577C595.488 212.531 595.922 213.999 596.791 214.979C597.659 215.953 598.797 216.439 600.205 216.439C600.901 216.439 601.597 216.305 602.293 216.035C602.997 215.758 603.6 215.425 604.102 215.036V212.947H600.294ZM610.436 219V202.536H613.76V219H610.436ZM616.972 219V202.536H620.206L626.944 213.531V202.536H630.033V219H626.697L620.06 208.264V219H616.972ZM633.559 219V202.536H645.767V205.321H636.883V208.971H645.149V211.745H636.883V216.226H646.081V219H633.559ZM648.9 219V202.536H661.107V205.321H652.224V208.971H660.49V211.745H652.224V216.226H661.422V219H648.9ZM664.252 219V202.536H671.249C673.008 202.536 674.285 202.686 675.078 202.985C675.879 203.277 676.519 203.801 676.999 204.558C677.478 205.314 677.717 206.179 677.717 207.152C677.717 208.387 677.354 209.409 676.628 210.218C675.902 211.019 674.816 211.524 673.371 211.734C674.09 212.153 674.681 212.614 675.146 213.115C675.617 213.617 676.25 214.508 677.043 215.788L679.054 219H675.078L672.675 215.417C671.821 214.137 671.237 213.332 670.923 213.003C670.608 212.666 670.275 212.438 669.923 212.318C669.571 212.191 669.014 212.127 668.25 212.127H667.576V219H664.252ZM667.576 209.499H670.036C671.63 209.499 672.626 209.432 673.023 209.297C673.42 209.162 673.73 208.93 673.955 208.601C674.18 208.271 674.292 207.859 674.292 207.365C674.292 206.811 674.142 206.366 673.843 206.029C673.551 205.684 673.135 205.467 672.596 205.377C672.327 205.34 671.518 205.321 670.17 205.321H667.576V209.499ZM680.761 219V202.536H684.085V219H680.761ZM687.297 219V202.536H690.531L697.27 213.531V202.536H700.358V219H697.022L690.385 208.264V219H687.297ZM711.543 212.947V210.173H718.708V216.731C718.012 217.405 717.001 218 715.676 218.517C714.359 219.026 713.022 219.281 711.667 219.281C709.945 219.281 708.444 218.921 707.164 218.203C705.883 217.476 704.921 216.443 704.277 215.103C703.633 213.755 703.312 212.292 703.312 210.712C703.312 208.997 703.671 207.474 704.39 206.141C705.108 204.808 706.16 203.786 707.545 203.075C708.601 202.529 709.915 202.255 711.487 202.255C713.531 202.255 715.126 202.686 716.271 203.547C717.424 204.4 718.166 205.583 718.495 207.096L715.193 207.713C714.961 206.905 714.523 206.268 713.879 205.804C713.243 205.333 712.446 205.097 711.487 205.097C710.035 205.097 708.878 205.557 708.017 206.478C707.164 207.399 706.737 208.765 706.737 210.577C706.737 212.531 707.171 213.999 708.04 214.979C708.908 215.953 710.046 216.439 711.454 216.439C712.15 216.439 712.846 216.305 713.542 216.035C714.246 215.758 714.849 215.425 715.351 215.036V212.947H711.543Z" fill="#4CC9F0"/>
<path d="M732.572 219V202.536H735.896V219H732.572ZM739.108 219V202.536H742.343L749.081 213.531V202.536H752.169V219H748.834L742.197 208.264V219H739.108ZM759.402 219V205.321H754.517V202.536H767.6V205.321H762.726V219H759.402ZM769.756 219V202.536H781.964V205.321H773.081V208.971H781.346V211.745H773.081V216.226H782.278V219H769.756ZM785.187 219V202.671H788.511V216.226H796.777V219H785.187ZM799.248 219V202.671H802.572V216.226H810.837V219H799.248ZM813.117 219V202.536H816.441V219H813.117ZM827.279 212.947V210.173H834.444V216.731C833.748 217.405 832.737 218 831.412 218.517C830.094 219.026 828.757 219.281 827.402 219.281C825.68 219.281 824.179 218.921 822.899 218.203C821.619 217.476 820.657 216.443 820.013 215.103C819.369 213.755 819.047 212.292 819.047 210.712C819.047 208.997 819.406 207.474 820.125 206.141C820.844 204.808 821.896 203.786 823.281 203.075C824.336 202.529 825.65 202.255 827.223 202.255C829.267 202.255 830.861 202.686 832.007 203.547C833.16 204.4 833.901 205.583 834.23 207.096L830.929 207.713C830.697 206.905 830.259 206.268 829.615 205.804C828.978 205.333 828.181 205.097 827.223 205.097C825.77 205.097 824.613 205.557 823.752 206.478C822.899 207.399 822.472 208.765 822.472 210.577C822.472 212.531 822.906 213.999 823.775 214.979C824.643 215.953 825.781 216.439 827.189 216.439C827.885 216.439 828.582 216.305 829.278 216.035C829.982 215.758 830.584 215.425 831.086 215.036V212.947H827.279ZM837.521 219V202.536H849.729V205.321H840.845V208.971H849.111V211.745H840.845V216.226H850.043V219H837.521ZM852.896 219V202.536H856.13L862.868 213.531V202.536H865.957V219H862.621L855.984 208.264V219H852.896ZM880.017 212.947L883.24 213.969C882.746 215.766 881.923 217.102 880.77 217.978C879.624 218.847 878.168 219.281 876.401 219.281C874.215 219.281 872.418 218.536 871.01 217.046C869.603 215.549 868.899 213.505 868.899 210.914C868.899 208.174 869.606 206.048 871.021 204.535C872.437 203.015 874.297 202.255 876.603 202.255C878.617 202.255 880.253 202.851 881.511 204.041C882.259 204.745 882.821 205.756 883.195 207.073L879.905 207.859C879.71 207.006 879.302 206.332 878.681 205.838C878.067 205.344 877.318 205.097 876.435 205.097C875.214 205.097 874.222 205.535 873.458 206.411C872.702 207.287 872.324 208.705 872.324 210.667C872.324 212.748 872.699 214.231 873.447 215.114C874.196 215.998 875.169 216.439 876.367 216.439C877.251 216.439 878.011 216.159 878.647 215.597C879.283 215.036 879.74 214.152 880.017 212.947ZM886.104 219V202.536H898.312V205.321H889.428V208.971H897.694V211.745H889.428V216.226H898.626V219H886.104Z" fill="#F8FAF9"/>
<path d="M457 263H1010" stroke="#CBD5D8" stroke-width="2"/>
</g>
<defs>
<clipPath id="clip0_0_1">
<rect width="1200" height="360" fill="white"/>
</clipPath>
</defs>
</svg>
