<svg width="512" height="512" viewBox="0 0 512 512" fill="none" xmlns="http://www.w3.org/2000/svg">
<path d="M126.619 355V329.23H145.727V333.59H131.822V339.303H144.76V343.645H131.822V350.658H146.219V355H126.619ZM149.312 346.615L154.375 346.123C154.68 347.822 155.295 349.07 156.221 349.867C157.158 350.664 158.418 351.062 160 351.062C161.676 351.062 162.936 350.711 163.779 350.008C164.635 349.293 165.062 348.461 165.062 347.512C165.062 346.902 164.881 346.387 164.518 345.965C164.166 345.531 163.545 345.156 162.654 344.84C162.045 344.629 160.656 344.254 158.488 343.715C155.699 343.023 153.742 342.174 152.617 341.166C151.035 339.748 150.244 338.02 150.244 335.98C150.244 334.668 150.613 333.443 151.352 332.307C152.102 331.158 153.174 330.285 154.568 329.688C155.975 329.09 157.668 328.791 159.648 328.791C162.883 328.791 165.314 329.5 166.943 330.918C168.584 332.336 169.445 334.229 169.527 336.596L164.324 336.824C164.102 335.5 163.621 334.551 162.883 333.977C162.156 333.391 161.061 333.098 159.596 333.098C158.084 333.098 156.9 333.408 156.045 334.029C155.494 334.428 155.219 334.961 155.219 335.629C155.219 336.238 155.477 336.76 155.992 337.193C156.648 337.744 158.242 338.318 160.773 338.916C163.305 339.514 165.174 340.135 166.381 340.779C167.6 341.412 168.549 342.285 169.229 343.398C169.92 344.5 170.266 345.865 170.266 347.494C170.266 348.971 169.855 350.354 169.035 351.643C168.215 352.932 167.055 353.893 165.555 354.525C164.055 355.146 162.186 355.457 159.947 355.457C156.689 355.457 154.188 354.707 152.441 353.207C150.695 351.695 149.652 349.498 149.312 346.615ZM180.443 355V333.59H172.797V329.23H193.275V333.59H185.646V355H180.443ZM196.668 355V329.23H201.871V339.373H212.066V329.23H217.27V355H212.066V343.732H201.871V355H196.668ZM222.508 355V329.23H227.711V355H222.508ZM232.686 355V329.23H251.793V333.59H237.889V339.303H250.826V343.645H237.889V350.658H252.285V355H232.686ZM256.75 355V329.23H261.812L272.359 346.439V329.23H277.193V355H271.973L261.584 338.195V355H256.75ZM292.873 355V329.441H298.076V350.658H311.014V355H292.873ZM337.979 355H332.318L330.068 349.146H319.768L317.641 355H312.121L322.158 329.23H327.66L337.979 355ZM328.398 344.805L324.848 335.242L321.367 344.805H328.398ZM340.773 329.23H351.074C353.113 329.23 354.631 329.318 355.627 329.494C356.635 329.658 357.531 330.01 358.316 330.549C359.113 331.088 359.775 331.809 360.303 332.711C360.83 333.602 361.094 334.604 361.094 335.717C361.094 336.924 360.766 338.031 360.109 339.039C359.465 340.047 358.586 340.803 357.473 341.307C359.043 341.764 360.25 342.543 361.094 343.645C361.938 344.746 362.359 346.041 362.359 347.529C362.359 348.701 362.084 349.844 361.533 350.957C360.994 352.059 360.25 352.943 359.301 353.611C358.363 354.268 357.203 354.672 355.82 354.824C354.953 354.918 352.861 354.977 349.545 355H340.773V329.23ZM345.977 333.52V339.479H349.387C351.414 339.479 352.674 339.449 353.166 339.391C354.057 339.285 354.754 338.98 355.258 338.477C355.773 337.961 356.031 337.287 356.031 336.455C356.031 335.658 355.809 335.014 355.363 334.521C354.93 334.018 354.279 333.713 353.412 333.607C352.896 333.549 351.414 333.52 348.965 333.52H345.977ZM345.977 343.768V350.658H350.793C352.668 350.658 353.857 350.605 354.361 350.5C355.135 350.359 355.762 350.02 356.242 349.48C356.734 348.93 356.98 348.197 356.98 347.283C356.98 346.51 356.793 345.854 356.418 345.314C356.043 344.775 355.498 344.383 354.783 344.137C354.08 343.891 352.545 343.768 350.178 343.768H345.977ZM365.453 346.615L370.516 346.123C370.82 347.822 371.436 349.07 372.361 349.867C373.299 350.664 374.559 351.062 376.141 351.062C377.816 351.062 379.076 350.711 379.92 350.008C380.775 349.293 381.203 348.461 381.203 347.512C381.203 346.902 381.021 346.387 380.658 345.965C380.307 345.531 379.686 345.156 378.795 344.84C378.186 344.629 376.797 344.254 374.629 343.715C371.84 343.023 369.883 342.174 368.758 341.166C367.176 339.748 366.385 338.02 366.385 335.98C366.385 334.668 366.754 333.443 367.492 332.307C368.242 331.158 369.314 330.285 370.709 329.688C372.115 329.09 373.809 328.791 375.789 328.791C379.023 328.791 381.455 329.5 383.084 330.918C384.725 332.336 385.586 334.229 385.668 336.596L380.465 336.824C380.242 335.5 379.762 334.551 379.023 333.977C378.297 333.391 377.201 333.098 375.736 333.098C374.225 333.098 373.041 333.408 372.186 334.029C371.635 334.428 371.359 334.961 371.359 335.629C371.359 336.238 371.617 336.76 372.133 337.193C372.789 337.744 374.383 338.318 376.914 338.916C379.445 339.514 381.314 340.135 382.521 340.779C383.74 341.412 384.689 342.285 385.369 343.398C386.061 344.5 386.406 345.865 386.406 347.494C386.406 348.971 385.996 350.354 385.176 351.643C384.355 352.932 383.195 353.893 381.695 354.525C380.195 355.146 378.326 355.457 376.088 355.457C372.83 355.457 370.328 354.707 368.582 353.207C366.836 351.695 365.793 349.498 365.453 346.615Z" fill="black"/>
<path d="M136.873 374V365.41H143.242V366.863H138.607V368.768H142.92V370.215H138.607V372.553H143.406V374H136.873ZM144.895 374V365.41H146.582L150.098 371.146V365.41H151.709V374H149.969L146.506 368.398V374H144.895ZM157.545 370.842V369.395H161.283V372.816C160.92 373.168 160.393 373.479 159.701 373.748C159.014 374.014 158.316 374.146 157.609 374.146C156.711 374.146 155.928 373.959 155.26 373.584C154.592 373.205 154.09 372.666 153.754 371.967C153.418 371.264 153.25 370.5 153.25 369.676C153.25 368.781 153.438 367.986 153.812 367.291C154.188 366.596 154.736 366.062 155.459 365.691C156.01 365.406 156.695 365.264 157.516 365.264C158.582 365.264 159.414 365.488 160.012 365.938C160.613 366.383 161 367 161.172 367.789L159.449 368.111C159.328 367.689 159.1 367.357 158.764 367.115C158.432 366.869 158.016 366.746 157.516 366.746C156.758 366.746 156.154 366.986 155.705 367.467C155.26 367.947 155.037 368.66 155.037 369.605C155.037 370.625 155.264 371.391 155.717 371.902C156.17 372.41 156.764 372.664 157.498 372.664C157.861 372.664 158.225 372.594 158.588 372.453C158.955 372.309 159.27 372.135 159.531 371.932V370.842H157.545ZM162.836 374V365.41H164.57V374H162.836ZM166.246 374V365.41H167.934L171.449 371.146V365.41H173.061V374H171.32L167.857 368.398V374H166.246ZM174.9 374V365.41H181.27V366.863H176.635V368.768H180.947V370.215H176.635V372.553H181.434V374H174.9ZM182.904 374V365.41H189.273V366.863H184.639V368.768H188.951V370.215H184.639V372.553H189.438V374H182.904ZM190.914 374V365.41H194.564C195.482 365.41 196.148 365.488 196.562 365.645C196.98 365.797 197.314 366.07 197.564 366.465C197.814 366.859 197.939 367.311 197.939 367.818C197.939 368.463 197.75 368.996 197.371 369.418C196.992 369.836 196.426 370.1 195.672 370.209C196.047 370.428 196.355 370.668 196.598 370.93C196.844 371.191 197.174 371.656 197.588 372.324L198.637 374H196.562L195.309 372.131C194.863 371.463 194.559 371.043 194.395 370.871C194.23 370.695 194.057 370.576 193.873 370.514C193.689 370.447 193.398 370.414 193 370.414H192.648V374H190.914ZM192.648 369.043H193.932C194.764 369.043 195.283 369.008 195.49 368.938C195.697 368.867 195.859 368.746 195.977 368.574C196.094 368.402 196.152 368.188 196.152 367.93C196.152 367.641 196.074 367.408 195.918 367.232C195.766 367.053 195.549 366.939 195.268 366.893C195.127 366.873 194.705 366.863 194.002 366.863H192.648V369.043ZM199.527 374V365.41H201.262V374H199.527ZM202.938 374V365.41H204.625L208.141 371.146V365.41H209.752V374H208.012L204.549 368.398V374H202.938ZM215.588 370.842V369.395H219.326V372.816C218.963 373.168 218.436 373.479 217.744 373.748C217.057 374.014 216.359 374.146 215.652 374.146C214.754 374.146 213.971 373.959 213.303 373.584C212.635 373.205 212.133 372.666 211.797 371.967C211.461 371.264 211.293 370.5 211.293 369.676C211.293 368.781 211.48 367.986 211.855 367.291C212.23 366.596 212.779 366.062 213.502 365.691C214.053 365.406 214.738 365.264 215.559 365.264C216.625 365.264 217.457 365.488 218.055 365.938C218.656 366.383 219.043 367 219.215 367.789L217.492 368.111C217.371 367.689 217.143 367.357 216.807 367.115C216.475 366.869 216.059 366.746 215.559 366.746C214.801 366.746 214.197 366.986 213.748 367.467C213.303 367.947 213.08 368.66 213.08 369.605C213.08 370.625 213.307 371.391 213.76 371.902C214.213 372.41 214.807 372.664 215.541 372.664C215.904 372.664 216.268 372.594 216.631 372.453C216.998 372.309 217.312 372.135 217.574 371.932V370.842H215.588Z" fill="white"/>
<path d="M224.873 374V365.41H227.656C228.711 365.41 229.398 365.453 229.719 365.539C230.211 365.668 230.623 365.949 230.955 366.383C231.287 366.812 231.453 367.369 231.453 368.053C231.453 368.58 231.357 369.023 231.166 369.383C230.975 369.742 230.73 370.025 230.434 370.232C230.141 370.436 229.842 370.57 229.537 370.637C229.123 370.719 228.523 370.76 227.738 370.76H226.607V374H224.873ZM226.607 366.863V369.301H227.557C228.24 369.301 228.697 369.256 228.928 369.166C229.158 369.076 229.338 368.936 229.467 368.744C229.6 368.553 229.666 368.33 229.666 368.076C229.666 367.764 229.574 367.506 229.391 367.303C229.207 367.1 228.975 366.973 228.693 366.922C228.486 366.883 228.07 366.863 227.445 366.863H226.607ZM232.883 374V365.41H234.617V368.791H238.016V365.41H239.75V374H238.016V370.244H234.617V374H232.883ZM243.805 374V370.385L240.658 365.41H242.691L244.713 368.809L246.693 365.41H248.691L245.533 370.396V374H243.805ZM249.113 371.205L250.801 371.041C250.902 371.607 251.107 372.023 251.416 372.289C251.729 372.555 252.148 372.688 252.676 372.688C253.234 372.688 253.654 372.57 253.936 372.336C254.221 372.098 254.363 371.82 254.363 371.504C254.363 371.301 254.303 371.129 254.182 370.988C254.064 370.844 253.857 370.719 253.561 370.613C253.357 370.543 252.895 370.418 252.172 370.238C251.242 370.008 250.59 369.725 250.215 369.389C249.688 368.916 249.424 368.34 249.424 367.66C249.424 367.223 249.547 366.814 249.793 366.436C250.043 366.053 250.4 365.762 250.865 365.562C251.334 365.363 251.898 365.264 252.559 365.264C253.637 365.264 254.447 365.5 254.99 365.973C255.537 366.445 255.824 367.076 255.852 367.865L254.117 367.941C254.043 367.5 253.883 367.184 253.637 366.992C253.395 366.797 253.029 366.699 252.541 366.699C252.037 366.699 251.643 366.803 251.357 367.01C251.174 367.143 251.082 367.32 251.082 367.543C251.082 367.746 251.168 367.92 251.34 368.064C251.559 368.248 252.09 368.439 252.934 368.639C253.777 368.838 254.4 369.045 254.803 369.26C255.209 369.471 255.525 369.762 255.752 370.133C255.982 370.5 256.098 370.955 256.098 371.498C256.098 371.99 255.961 372.451 255.688 372.881C255.414 373.311 255.027 373.631 254.527 373.842C254.027 374.049 253.404 374.152 252.658 374.152C251.572 374.152 250.738 373.902 250.156 373.402C249.574 372.898 249.227 372.166 249.113 371.205ZM257.504 374V365.41H259.238V374H257.504ZM266.393 370.842L268.074 371.375C267.816 372.312 267.387 373.01 266.785 373.467C266.188 373.92 265.428 374.146 264.506 374.146C263.365 374.146 262.428 373.758 261.693 372.98C260.959 372.199 260.592 371.133 260.592 369.781C260.592 368.352 260.961 367.242 261.699 366.453C262.438 365.66 263.408 365.264 264.611 365.264C265.662 365.264 266.516 365.574 267.172 366.195C267.562 366.562 267.855 367.09 268.051 367.777L266.334 368.188C266.232 367.742 266.02 367.391 265.695 367.133C265.375 366.875 264.984 366.746 264.523 366.746C263.887 366.746 263.369 366.975 262.971 367.432C262.576 367.889 262.379 368.629 262.379 369.652C262.379 370.738 262.574 371.512 262.965 371.973C263.355 372.434 263.863 372.664 264.488 372.664C264.949 372.664 265.346 372.518 265.678 372.225C266.01 371.932 266.248 371.471 266.393 370.842ZM277.314 374H275.428L274.678 372.049H271.244L270.535 374H268.695L272.041 365.41H273.875L277.314 374ZM274.121 370.602L272.938 367.414L271.777 370.602H274.121ZM278.287 374V365.48H280.021V372.553H284.334V374H278.287Z" fill="black"/>
<path d="M288.82 374V365.41H290.555V374H288.82ZM292.23 374V365.41H293.918L297.434 371.146V365.41H299.045V374H297.305L293.842 368.398V374H292.23ZM302.818 374V366.863H300.27V365.41H307.096V366.863H304.553V374H302.818ZM308.221 374V365.41H314.59V366.863H309.955V368.768H314.268V370.215H309.955V372.553H314.754V374H308.221ZM316.271 374V365.48H318.006V372.553H322.318V374H316.271ZM323.607 374V365.48H325.342V372.553H329.654V374H323.607ZM330.844 374V365.41H332.578V374H330.844ZM338.232 370.842V369.395H341.971V372.816C341.607 373.168 341.08 373.479 340.389 373.748C339.701 374.014 339.004 374.146 338.297 374.146C337.398 374.146 336.615 373.959 335.947 373.584C335.279 373.205 334.777 372.666 334.441 371.967C334.105 371.264 333.938 370.5 333.938 369.676C333.938 368.781 334.125 367.986 334.5 367.291C334.875 366.596 335.424 366.062 336.146 365.691C336.697 365.406 337.383 365.264 338.203 365.264C339.27 365.264 340.102 365.488 340.699 365.938C341.301 366.383 341.688 367 341.859 367.789L340.137 368.111C340.016 367.689 339.787 367.357 339.451 367.115C339.119 366.869 338.703 366.746 338.203 366.746C337.445 366.746 336.842 366.986 336.393 367.467C335.947 367.947 335.725 368.66 335.725 369.605C335.725 370.625 335.951 371.391 336.404 371.902C336.857 372.41 337.451 372.664 338.186 372.664C338.549 372.664 338.912 372.594 339.275 372.453C339.643 372.309 339.957 372.135 340.219 371.932V370.842H338.232ZM343.576 374V365.41H349.945V366.863H345.311V368.768H349.623V370.215H345.311V372.553H350.109V374H343.576ZM351.598 374V365.41H353.285L356.801 371.146V365.41H358.412V374H356.672L353.209 368.398V374H351.598ZM365.748 370.842L367.43 371.375C367.172 372.312 366.742 373.01 366.141 373.467C365.543 373.92 364.783 374.146 363.861 374.146C362.721 374.146 361.783 373.758 361.049 372.98C360.314 372.199 359.947 371.133 359.947 369.781C359.947 368.352 360.316 367.242 361.055 366.453C361.793 365.66 362.764 365.264 363.967 365.264C365.018 365.264 365.871 365.574 366.527 366.195C366.918 366.562 367.211 367.09 367.406 367.777L365.689 368.188C365.588 367.742 365.375 367.391 365.051 367.133C364.73 366.875 364.34 366.746 363.879 366.746C363.242 366.746 362.725 366.975 362.326 367.432C361.932 367.889 361.734 368.629 361.734 369.652C361.734 370.738 361.93 371.512 362.32 371.973C362.711 372.434 363.219 372.664 363.844 372.664C364.305 372.664 364.701 372.518 365.033 372.225C365.365 371.932 365.604 371.471 365.748 370.842ZM368.924 374V365.41H375.293V366.863H370.658V368.768H374.971V370.215H370.658V372.553H375.457V374H368.924Z" fill="black"/>
<path d="M118 385H395" stroke="black" stroke-width="2"/>
<path d="M147 128H284.573V168.578H185.461V197.711H264.603V237.249H185.461V267.422H284.573V308H147V128Z" fill="black"/>
<path d="M326.903 308H301.505V128H326.903V308ZM314.204 207.417C308.36 207.417 303.621 212.155 303.621 218C303.621 223.845 308.36 228.583 314.204 228.583C320.049 228.583 324.786 223.845 324.786 218C324.786 212.155 320.049 207.417 314.204 207.417Z" fill="black"/>
<path d="M326.903 276.236H301.505V267.765H326.903V276.236ZM326.903 168.236H301.505V159.765H326.903V168.236Z" fill="white"/>
<path d="M365 308H339.602V128H365V308ZM352.301 207.417C346.457 207.417 341.718 212.155 341.718 218C341.718 223.845 346.457 228.583 352.301 228.583C358.146 228.583 362.883 223.845 362.883 218C362.883 212.155 358.146 207.417 352.301 207.417Z" fill="black"/>
<path d="M365 276.236H339.602V267.765H365V276.236ZM365 168.236H339.602V159.765H365V168.236Z" fill="white"/>
</svg>
