<?xml version="1.0" encoding="UTF-8"?>
<svg width="1072" height="232" viewBox="0 0 1072 232" fill="none" xmlns="http://www.w3.org/2000/svg" role="img" aria-label="Esthien Labs horizontal logo">
  <title>Esthien Labs horizontal logo</title>
  <rect x="1.5" y="1.5" width="1069" height="229" rx="10.5" fill="#000000" stroke="#FFFFFF" stroke-width="3"/>
  <g transform="translate(40 30) scale(1.802)">
    
  <path d="M13 18H26V78H13V18Z M26 18H52V31H26V18Z M26 41.5H48V54.5H26V41.5Z M26 65H52V78H26V65Z" fill="#FFFFFF"/>
  <path d="M59 18H69V78H59V18Z" fill="#FFFFFF"/>
  <path d="M74 18H84V78H74V18Z" fill="#FFFFFF"/>
  <path d="M59 31H84M59 65H84" stroke="#000000" stroke-width="4"/>
  <circle cx="64" cy="48" r="4.2" fill="#000000"/>
  <circle cx="79" cy="48" r="4.2" fill="#000000"/>
  </g>
  <text x="392" y="119" fill="#FFFFFF" font-family="Arial Black, Arial, Helvetica, sans-serif" font-size="58" font-weight="900" letter-spacing="0.5">ESTHIEN LABS</text>
  <text x="394" y="163" fill="#FFFFFF" font-family="Arial, Helvetica, sans-serif" font-size="21" font-weight="700" letter-spacing="2.8">CUSTOM SILICON FOR PHYSICAL INTELLIGENCE</text>
  <path d="M392 188H945" stroke="#FFFFFF" stroke-width="2" opacity="0.55"/>
</svg>
