<svg width="1200" height="360" viewBox="0 0 1200 360" fill="none" xmlns="http://www.w3.org/2000/svg">
<g clip-path="url(#clip0_2011_63)">
<path d="M1172 0H28C12.536 0 0 12.536 0 28V332C0 347.464 12.536 360 28 360H1172C1187.46 360 1200 347.464 1200 332V28C1200 12.536 1187.46 0 1172 0Z" fill="#F8FAF9"/>
<path d="M1122 64H78C70.268 64 64 70.268 64 78V282C64 289.732 70.268 296 78 296H1122C1129.73 296 1136 289.732 1136 282V78C1136 70.268 1129.73 64 1122 64Z" fill="white" stroke="#2B373D" stroke-width="2"/>
<path d="M104 94H290V133H156V161H263V199H156V228H290V267H104V94Z" fill="#0A0D10"/>
<path d="M308 94H343V267H308V94Z" fill="#14956B"/>
<path d="M360 94H395V267H360V94Z" fill="#087CA6"/>
<path d="M308 128H395M308 233H395" stroke="#CBD5D8" stroke-width="8"/>
<path d="M325.5 191C331.299 191 336 186.299 336 180.5C336 174.701 331.299 170 325.5 170C319.701 170 315 174.701 315 180.5C315 186.299 319.701 191 325.5 191Z" fill="white"/>
<path d="M377.5 191C383.299 191 388 186.299 388 180.5C388 174.701 383.299 170 377.5 170C371.701 170 367 174.701 367 180.5C367 186.299 371.701 191 377.5 191Z" fill="white"/>
<path d="M472.238 188V136.461H510.453V145.18H482.645V156.605H508.52V165.289H482.645V179.316H511.438V188H472.238ZM517.625 171.23L527.75 170.246C528.359 173.645 529.59 176.141 531.441 177.734C533.316 179.328 535.836 180.125 539 180.125C542.352 180.125 544.871 179.422 546.559 178.016C548.27 176.586 549.125 174.922 549.125 173.023C549.125 171.805 548.762 170.773 548.035 169.93C547.332 169.062 546.09 168.312 544.309 167.68C543.09 167.258 540.312 166.508 535.977 165.43C530.398 164.047 526.484 162.348 524.234 160.332C521.07 157.496 519.488 154.039 519.488 149.961C519.488 147.336 520.227 144.887 521.703 142.613C523.203 140.316 525.348 138.57 528.137 137.375C530.949 136.18 534.336 135.582 538.297 135.582C544.766 135.582 549.629 137 552.887 139.836C556.168 142.672 557.891 146.457 558.055 151.191L547.648 151.648C547.203 149 546.242 147.102 544.766 145.953C543.312 144.781 541.121 144.195 538.191 144.195C535.168 144.195 532.801 144.816 531.09 146.059C529.988 146.855 529.438 147.922 529.438 149.258C529.438 150.477 529.953 151.52 530.984 152.387C532.297 153.488 535.484 154.637 540.547 155.832C545.609 157.027 549.348 158.27 551.762 159.559C554.199 160.824 556.098 162.57 557.457 164.797C558.84 167 559.531 169.73 559.531 172.988C559.531 175.941 558.711 178.707 557.07 181.285C555.43 183.863 553.109 185.785 550.109 187.051C547.109 188.293 543.371 188.914 538.895 188.914C532.379 188.914 527.375 187.414 523.883 184.414C520.391 181.391 518.305 176.996 517.625 171.23ZM579.887 188V145.18H564.594V136.461H605.551V145.18H590.293V188H579.887ZM612.336 188V136.461H622.742V156.746H643.133V136.461H653.539V188H643.133V165.465H622.742V188H612.336ZM664.016 188V136.461H674.422V188H664.016ZM684.371 188V136.461H722.586V145.18H694.777V156.605H720.652V165.289H694.777V179.316H723.57V188H684.371ZM732.5 188V136.461H742.625L763.719 170.879V136.461H773.387V188H762.945L742.168 154.391V188H732.5ZM804.746 188V136.883H815.152V179.316H841.027V188H804.746ZM894.957 188H883.637L879.137 176.293H858.535L854.281 188H843.242L863.316 136.461H874.32L894.957 188ZM875.797 167.609L868.695 148.484L861.734 167.609H875.797ZM900.547 136.461H921.148C925.227 136.461 928.262 136.637 930.254 136.988C932.27 137.316 934.062 138.02 935.633 139.098C937.227 140.176 938.551 141.617 939.605 143.422C940.66 145.203 941.188 147.207 941.188 149.434C941.188 151.848 940.531 154.062 939.219 156.078C937.93 158.094 936.172 159.605 933.945 160.613C937.086 161.527 939.5 163.086 941.188 165.289C942.875 167.492 943.719 170.082 943.719 173.059C943.719 175.402 943.168 177.688 942.066 179.914C940.988 182.117 939.5 183.887 937.602 185.223C935.727 186.535 933.406 187.344 930.641 187.648C928.906 187.836 924.723 187.953 918.09 188H900.547V136.461ZM910.953 145.039V156.957H917.773C921.828 156.957 924.348 156.898 925.332 156.781C927.113 156.57 928.508 155.961 929.516 154.953C930.547 153.922 931.062 152.574 931.062 150.91C931.062 149.316 930.617 148.027 929.727 147.043C928.859 146.035 927.559 145.426 925.824 145.215C924.793 145.098 921.828 145.039 916.93 145.039H910.953ZM910.953 165.535V179.316H920.586C924.336 179.316 926.715 179.211 927.723 179C929.27 178.719 930.523 178.039 931.484 176.961C932.469 175.859 932.961 174.395 932.961 172.566C932.961 171.02 932.586 169.707 931.836 168.629C931.086 167.551 929.996 166.766 928.566 166.273C927.16 165.781 924.09 165.535 919.355 165.535H910.953ZM949.906 171.23L960.031 170.246C960.641 173.645 961.871 176.141 963.723 177.734C965.598 179.328 968.117 180.125 971.281 180.125C974.633 180.125 977.152 179.422 978.84 178.016C980.551 176.586 981.406 174.922 981.406 173.023C981.406 171.805 981.043 170.773 980.316 169.93C979.613 169.062 978.371 168.312 976.59 167.68C975.371 167.258 972.594 166.508 968.258 165.43C962.68 164.047 958.766 162.348 956.516 160.332C953.352 157.496 951.77 154.039 951.77 149.961C951.77 147.336 952.508 144.887 953.984 142.613C955.484 140.316 957.629 138.57 960.418 137.375C963.23 136.18 966.617 135.582 970.578 135.582C977.047 135.582 981.91 137 985.168 139.836C988.449 142.672 990.172 146.457 990.336 151.191L979.93 151.648C979.484 149 978.523 147.102 977.047 145.953C975.594 144.781 973.402 144.195 970.473 144.195C967.449 144.195 965.082 144.816 963.371 146.059C962.27 146.855 961.719 147.922 961.719 149.258C961.719 150.477 962.234 151.52 963.266 152.387C964.578 153.488 967.766 154.637 972.828 155.832C977.891 157.027 981.629 158.27 984.043 159.559C986.48 160.824 988.379 162.57 989.738 164.797C991.121 167 991.812 169.73 991.812 172.988C991.812 175.941 990.992 178.707 989.352 181.285C987.711 183.863 985.391 185.785 982.391 187.051C979.391 188.293 975.652 188.914 971.176 188.914C964.66 188.914 959.656 187.414 956.164 184.414C952.672 181.391 950.586 176.996 949.906 171.23Z" fill="#0A0D10"/>
<path d="M555.746 227V209.82H568.484V212.727H559.215V216.535H567.84V219.43H559.215V224.105H568.812V227H555.746ZM571.789 227V209.82H575.164L582.195 221.293V209.82H585.418V227H581.938L575.012 215.797V227H571.789ZM597.09 220.684V217.789H604.566V224.633C603.84 225.336 602.785 225.957 601.402 226.496C600.027 227.027 598.633 227.293 597.219 227.293C595.422 227.293 593.855 226.918 592.52 226.168C591.184 225.41 590.18 224.332 589.508 222.934C588.836 221.527 588.5 220 588.5 218.352C588.5 216.562 588.875 214.973 589.625 213.582C590.375 212.191 591.473 211.125 592.918 210.383C594.02 209.812 595.391 209.527 597.031 209.527C599.164 209.527 600.828 209.977 602.023 210.875C603.227 211.766 604 213 604.344 214.578L600.898 215.223C600.656 214.379 600.199 213.715 599.527 213.23C598.863 212.738 598.031 212.492 597.031 212.492C595.516 212.492 594.309 212.973 593.41 213.934C592.52 214.895 592.074 216.32 592.074 218.211C592.074 220.25 592.527 221.781 593.434 222.805C594.34 223.82 595.527 224.328 596.996 224.328C597.723 224.328 598.449 224.188 599.176 223.906C599.91 223.617 600.539 223.27 601.062 222.863V220.684H597.09ZM607.672 227V209.82H611.141V227H607.672ZM614.492 227V209.82H617.867L624.898 221.293V209.82H628.121V227H624.641L617.715 215.797V227H614.492ZM631.801 227V209.82H644.539V212.727H635.27V216.535H643.895V219.43H635.27V224.105H644.867V227H631.801ZM647.809 227V209.82H660.547V212.727H651.277V216.535H659.902V219.43H651.277V224.105H660.875V227H647.809ZM663.828 227V209.82H671.129C672.965 209.82 674.297 209.977 675.125 210.289C675.961 210.594 676.629 211.141 677.129 211.93C677.629 212.719 677.879 213.621 677.879 214.637C677.879 215.926 677.5 216.992 676.742 217.836C675.984 218.672 674.852 219.199 673.344 219.418C674.094 219.855 674.711 220.336 675.195 220.859C675.688 221.383 676.348 222.312 677.176 223.648L679.273 227H675.125L672.617 223.262C671.727 221.926 671.117 221.086 670.789 220.742C670.461 220.391 670.113 220.152 669.746 220.027C669.379 219.895 668.797 219.828 668 219.828H667.297V227H663.828ZM667.297 217.086H669.863C671.527 217.086 672.566 217.016 672.98 216.875C673.395 216.734 673.719 216.492 673.953 216.148C674.188 215.805 674.305 215.375 674.305 214.859C674.305 214.281 674.148 213.816 673.836 213.465C673.531 213.105 673.098 212.879 672.535 212.785C672.254 212.746 671.41 212.727 670.004 212.727H667.297V217.086ZM681.055 227V209.82H684.523V227H681.055ZM687.875 227V209.82H691.25L698.281 221.293V209.82H701.504V227H698.023L691.098 215.797V227H687.875ZM713.176 220.684V217.789H720.652V224.633C719.926 225.336 718.871 225.957 717.488 226.496C716.113 227.027 714.719 227.293 713.305 227.293C711.508 227.293 709.941 226.918 708.605 226.168C707.27 225.41 706.266 224.332 705.594 222.934C704.922 221.527 704.586 220 704.586 218.352C704.586 216.562 704.961 214.973 705.711 213.582C706.461 212.191 707.559 211.125 709.004 210.383C710.105 209.812 711.477 209.527 713.117 209.527C715.25 209.527 716.914 209.977 718.109 210.875C719.312 211.766 720.086 213 720.43 214.578L716.984 215.223C716.742 214.379 716.285 213.715 715.613 213.23C714.949 212.738 714.117 212.492 713.117 212.492C711.602 212.492 710.395 212.973 709.496 213.934C708.605 214.895 708.16 216.32 708.16 218.211C708.16 220.25 708.613 221.781 709.52 222.805C710.426 223.82 711.613 224.328 713.082 224.328C713.809 224.328 714.535 224.188 715.262 223.906C715.996 223.617 716.625 223.27 717.148 222.863V220.684H713.176Z" fill="#4CC9F0"/>
<path d="M734.641 227V209.82H738.109V227H734.641ZM741.461 227V209.82H744.836L751.867 221.293V209.82H755.09V227H751.609L744.684 215.797V227H741.461ZM762.637 227V212.727H757.539V209.82H771.191V212.727H766.105V227H762.637ZM773.441 227V209.82H786.18V212.727H776.91V216.535H785.535V219.43H776.91V224.105H786.508V227H773.441ZM789.543 227V209.961H793.012V224.105H801.637V227H789.543ZM804.215 227V209.961H807.684V224.105H816.309V227H804.215ZM818.688 227V209.82H822.156V227H818.688ZM833.465 220.684V217.789H840.941V224.633C840.215 225.336 839.16 225.957 837.777 226.496C836.402 227.027 835.008 227.293 833.594 227.293C831.797 227.293 830.23 226.918 828.895 226.168C827.559 225.41 826.555 224.332 825.883 222.934C825.211 221.527 824.875 220 824.875 218.352C824.875 216.562 825.25 214.973 826 213.582C826.75 212.191 827.848 211.125 829.293 210.383C830.395 209.812 831.766 209.527 833.406 209.527C835.539 209.527 837.203 209.977 838.398 210.875C839.602 211.766 840.375 213 840.719 214.578L837.273 215.223C837.031 214.379 836.574 213.715 835.902 213.23C835.238 212.738 834.406 212.492 833.406 212.492C831.891 212.492 830.684 212.973 829.785 213.934C828.895 214.895 828.449 216.32 828.449 218.211C828.449 220.25 828.902 221.781 829.809 222.805C830.715 223.82 831.902 224.328 833.371 224.328C834.098 224.328 834.824 224.188 835.551 223.906C836.285 223.617 836.914 223.27 837.438 222.863V220.684H833.465ZM844.152 227V209.82H856.891V212.727H847.621V216.535H856.246V219.43H847.621V224.105H857.219V227H844.152ZM860.195 227V209.82H863.57L870.602 221.293V209.82H873.824V227H870.344L863.418 215.797V227H860.195ZM888.496 220.684L891.859 221.75C891.344 223.625 890.484 225.02 889.281 225.934C888.086 226.84 886.566 227.293 884.723 227.293C882.441 227.293 880.566 226.516 879.098 224.961C877.629 223.398 876.895 221.266 876.895 218.562C876.895 215.703 877.633 213.484 879.109 211.906C880.586 210.32 882.527 209.527 884.934 209.527C887.035 209.527 888.742 210.148 890.055 211.391C890.836 212.125 891.422 213.18 891.812 214.555L888.379 215.375C888.176 214.484 887.75 213.781 887.102 213.266C886.461 212.75 885.68 212.492 884.758 212.492C883.484 212.492 882.449 212.949 881.652 213.863C880.863 214.777 880.469 216.258 880.469 218.305C880.469 220.477 880.859 222.023 881.641 222.945C882.422 223.867 883.438 224.328 884.688 224.328C885.609 224.328 886.402 224.035 887.066 223.449C887.73 222.863 888.207 221.941 888.496 220.684ZM894.848 227V209.82H907.586V212.727H898.316V216.535H906.941V219.43H898.316V224.105H907.914V227H894.848Z" fill="#0A0D10"/>
<path d="M455 252H1008" stroke="#2B373D" stroke-width="2"/>
</g>
<defs>
<clipPath id="clip0_2011_63">
<rect width="1200" height="360" fill="white"/>
</clipPath>
</defs>
</svg>
